<mxfile host="app.diagrams.net" modified="2024-03-29T14:28:21.440Z" agent="Mozilla/5.0 (Windows NT 10.0; Win64; x64) AppleWebKit/537.36 (KHTML, like Gecko) Chrome/123.0.0.0 Safari/537.36" etag="_5R7h8ci_msGOdcFGYy2" version="24.2.1" type="github">
  <diagram name="Page-1" id="srl6LPMTQ9XQW8Z1MxjO">
    <mxGraphModel dx="794" dy="412" grid="1" gridSize="10" guides="1" tooltips="1" connect="1" arrows="1" fold="1" page="1" pageScale="1" pageWidth="850" pageHeight="1100" math="0" shadow="0">
      <root>
        <mxCell id="0" />
        <mxCell id="1" parent="0" />
        <mxCell id="ys0QlLGKugF7_1xoD7Ld-1" value="" style="rounded=0;whiteSpace=wrap;html=1;strokeColor=none;" vertex="1" parent="1">
          <mxGeometry x="40" y="30" width="280" height="540" as="geometry" />
        </mxCell>
        <mxCell id="ys0QlLGKugF7_1xoD7Ld-2" value="" style="shape=image;verticalLabelPosition=bottom;labelBackgroundColor=default;verticalAlign=top;aspect=fixed;imageAspect=0;image=data:image/png,iVBORw0KGgoAAAANSUhEUgAAAioAAASwCAYAAADVHWGsAAAAAXNSR0IArs4c6QAAIABJREFUeF7svQd0HMeVNnpnkCMTCOacc845B5EUlW3ZCpTDv7Z33/p5neQ95/3n7P5n95xnyxJlS15byZKDbEsiKeYo5pxzDmAECAIEkdPMvPfd6mo2Gj0B4ADEABdrLkVMT3f1V1W3vvpuKJfbHeUj8pHb5SaXy0Xqx0X4Lx/5jH/LX4KAICAICAKCgCAgCNQvAm43cxOXLzo6msaPG099+vQhF35pEhXdICEs9ds18jRBQBAQBAQBQUAQ8PmIXLGxsb7YmFj67//+b3r5pZcfqiouQ1fRIovgJQgIAoKAICAICAKCQD0iUFFRQa7UlFQfXD5vvPEGvfbaa4aWYnqAtCeoHpsljxIEBAFBQBAQBAQBQYBjUMgVHRXtS0hIoKVLl9KSJUsgo6gfu7dHvD8yZgQBQUAQEAQEAUGgPhGAd8ftcvsSEhLp7bffptdesxAVfw0RwlKfXSTPEgQEAUFAEBAEGi8CwcJLoKi4yOVLSkxiorJEiErjHQzyZoKAICAICAKCQENDIGSikpREby8VotLQ+k/aIwgIAoKAICAINGoEQiIqLpcvOSm5eoyKuH4a9diQlxMEBAFBQBAQBB47AiERFXL5kpOFqDz2zpIGCAKCgCAgCAgCTQ2BUIlKkrh+mtrQkPcVBAQBQUAQEAQePwI1ISpvvbWUs35c7iDfkqyfx9+x0gJBQBAQBAQBQaAxIBAqUUlMSqSlb6lgWrcQlcbQ9fIOgoAgIAgIAoJAw0egJkTlbYOoiKLS8PtVWigICAKCgCAgCDQKBEIlKohRWYr05CVLUFjl8fzYK+I6tcPJ7RSu9trv/aj3DXa/mrrQ1HHWVX/8tdF6Xajv8ajfsY+aUJ/7eEZbdSwfVzvkuY8PgVBtzKO2MJTnhHJNoHb4qyhuv29N7Y5+Zrju86hYOtmZ2r5TbdoSil2ry3WqNm0OBZ9Q3sv+7FDuW5v2OnxHFXzTwbTWEvphekBIt7GCpF8+1IlbG4CdGhUqCQjphUIkFU7P9Nf5jZGo4F3t7xWu/gzWT/U4yYI1RT5/TAiEamMetXmhPCeUa/y1I9B3nT7zGjeqyVyrCVHB3HI72EB/7a/NJgn38kfO/C2oNXlfff/arAtCVB51xlTbkPMygToqXPDtcRMVpwHrtJg5sfzaDnZ9r0dZuGpqKPwRJeuibZ+EgYiKxsj6Lvr6UCdnIOxxX/sz9O9qYjydDIgQlfBOarlb6Aj4m7eBNkt2exHq/PJns4JtzPT9nea/0z0Dtc94ls+n/oPd/LWxe4HaYn8fJ7vhZDuc7FWg51iJhP0ZVtvp06/oUwfuhtpfTptnJ3JkfVYgmx3qc634hTIO/fW3FZNQ+9jaB6E8O9T7hj4jna80uu3xEJVQdhBOwFkHi/W1AJoV3FAHRhCiwpPa6HScMl3lkV7LhK/t8/xNxmCD3h+Bs2MWarv8ERXjhYFDtfilUI2svZ/s72ydVKG291EHf31Nskdtp3y/7hAIQFTMIWm9xjIneT6EsPCZ11lJhX0hNYiD+aJsZ3zEtsdF5HZDnrD86LGrG+m0yNvHt3ENmzN+no/cUcZ97XPf+m8nuxCEqPj4uFsX+bxexsgx7pHNqg1Du/3mthrcwtIPXq/XxEXZZ5cKWXDoT58XOCpmBPsdSp8pFudn2Nntromrun8VhdhOdkKxbXq5sWLstBbYm+fPntn7KlDfWceoU7+H+sxwz9jHSlSsLxNCB2LA8clE2AT4fORj+dKnJrEBvtdrDEb7/UK4PzdHkx096I3O0gNdjV+XwYd8hAkTFRXFz/d4PNyWKmTGafBYjR0mEToB72S0nee4zrwy7ovfwajwJLPaKxjLYEFFob67v3mJicOEzDBsVlLhb0D6GeSeSg8jGGUYSDbiwdofyGjoPgs2MfwtSMG+J583SQR4cdMLmx6ftjHEc0LPVW38HYi7dYxrJaOavfcpO6ZIhJdc/N9etnHIwjQXQMt4V/d6aA/V4u0it9Fep+8o+6jsJ/47Oiaqqs3zZwOMDVkVTAybxURCnW6rvm0QITxfP4/bYiobNg5gJyDwGhk2ndtZqfDg9zLsstfjJS8TRTzX+MxiJ7Qt9apFgomMXiu4Z/U64ZDhau17YBrQphu2ENdVVlZSdHS0M/lzwtVOYoxr0D68n7b3pvoF4mdRwtQa6Ew2FS+zECerq89KemxE1/qsKm61QKStPixEgyUqDgu8OTCNicgDjhdRRRbwuVpQ1aQBthiozKFBcJzSru3P0bsNnleGIWJyhEGieuRhP6vJDkOiRBevueiau4hARAXt83iZ9OAeWMTLy8opJzeXMjPvUHZ2NhUWFvLgjIuLo5SUFEpPT6e2bdtSs2bNKDoqmt9ZGzLHBV/bDp+PKsor+F6YeDyBq+24lNGz7jjcLneV3Zz5DMvABUFjXHgH5aPSslIqLCik+/fvU0lJCVVUVlBMdAwlJSdRakozSk1Nofi4eLM/hKjUx0yXZ9QEgSobE5eLPF4PlZdX8GYkOiqKFyT8wO5Yd9GmjbDMD17I3USVlR62HVod0QsN7AwWJcw1tb6oBUYvWLyoukHuo6q8grZPJvkxnqk3M0wUfGqh1XZRkwp1bx9vGEKZf+azSG3IYPCKi4upuLiESktLyeOpZMMYGxNLScnJlJiQQDExMWqx1SqGJlmWhRL2Cz9cEsOl7KFpS4zFlm2Wy2inQVQYO+O7TFq8Xn6eIkeKsGlmBBtdXlHO9g9YxMXFUlR0FLldUdwvCnT1F65lO86bUbWKM1HRyDuoEbgKz8Q6xFgbN0Rb0G7+zAesq/ZflT0nXtvkeWoTjraZ7TA3zBovPEcrRQYp4TUPfa4InAFfdSXJulHWOBrqliJmUeSOMpQn63s7TSB/Kk5NJlso1zZIoqJfXjNwDEgmAwYTduOfxqS2sGMs8uWVFTwpYUhiY2NMo+Dige4g51mepQaql8rKyqisvJw7OzYujmLjYijKbRlkls6BIaiorKTSEjVZY2PjeCJoY1RtcNo6XrN3PDcrK4sunL9Ily5douvXM3ihhzHAZ9FY6JOSqE2bdOrWrRv16dOHunfvQSnJyYqUGWSqWp8bkz+/IJ+uXL5C9+7lcDu14TGbYwEHEy4uIZ46dexEHTq0p8TERL++bLUzUwQNBuv2nTt0+dJlunHjBj148ICNmjK8yqi3atmKevTsST169KBWrVoxVsoyWdx2TopNIFUolMkiikoo5kCu0eubJgvG3/fu3aPrGdfpQf4Dxig6JoY3DZiLsDPmj4OiohdBXuB5w4NFTSsoxu452s2LJRZQLBGVBhlQniVl+6AcRGkXkF7UvMpmwRzibyzavGAbsSe8SBruFVPZUZIK3xMqQGxsbFCygmvRftjG69ev8/y+cyeTioqKqKKigioqynmzhmenpCRTq7Q0th/dunUlHM8SY2BkboIM5VovtmgS2ppfUMDKCWwOfspKy5gkIoZSK9d6FcbGDpug3JxctjVdu3al+Pj4Ku+L97ty5QpdvnyZioqKGb+01mlsf9B/sdr+aKJiuMSKi4opNzeXmrdoTkmJSQ+fbSE1Zp8bbUf/lVdUUGXFww0h8NBklt1shm3T5FOTJE2MtT3FOOBNsGHX8R7A3gOlxe3mNQn9xs3R6h8pFQ5jB+/pxubdIHFog1WRUt4J9d3S0jJFNivVuhATE0vx8VjH4pQ6FEhBD8X2hsOqNBiiYnkZLc1pxgwQb968Sbdv32Y1AQMyISGBBzYGav6DfLp69SrdunmLCQa+hwJ2nTt1oq5du/Fgq8KI7cD51CQpKCiga9eu8UJbXFLCkzktLY269+xOHTt05GcaegPfARP0WsY1unDhIpMKEICUlFTq0aM7denShZKTUyg6WrmFHNOKjU4uKy+jzDuZdPDgITpwYD9lZmZSYWGRoeJ4eXCyHOxy8eBs1rwZ9ejeg8aPn0CDhwxmpQUD09/OCAoHCNBXX21hEoR2q2sfNsz6XRgkvOvo0aNp0qRJ1LFjx+o+cgNDzd6LS4rp3LnzdOjgISZcMABt27RhDDBZS0tLKC/vAeXdv8+ToWPHTjRkyBDq06c3GzEtDeuJW80/bCca1skTymQRohIOc9Ek7qHVBuwqoTrANpw6dZK2bdtGN2/eUooC+WjkyFE0f/483kBg8cDmyElxZNBYwMSiUEoXL15kJaJT5048R0xlABuSmGiqrKjkhffa1Wvkjo7ixb558xa8qGiXqVWWxyKHxfxedjbbMNjI5JQUNbsNgoHn6s1D+/btqV27dpSTm8PPwIYBhEurRE6dDGU0IyODbd35c+co534ORbmj2U6AVMDOARdcp/+kpjbjtvft24969OxBzVKbPXRj6QXfolyXl5fTsWPHqKysnK+PjYmha9cy+H4jhg9nnPV7Y+HGJg5E6dKly0xGJk6cwLYK9kS7zPDemzdvZtuKtuIe5eVlbD8nTJxArdNbV7U9sOuVFXTxwkU6cvgIDRw0kDeFCYmw/caPzd5gfKAtdzIz6fLFS3Q/L4/tNYhCm/R06tWrF7Vp24aioqJNsmC6+U3C6aOcnBy2z2hz127duI+g3gEX9Y6XuX8TEhKpa9cujFHzZs0NkwnFHBvmEjpz9iwrad27d6O0Vmn8flUUKUMVw5it9FTSg7wHTMqw2QaRBtnDmtKiRQvuVybP/tzzodjecFiNBklUMLkqPVRYVEj3cnLo6pWrdPLkCbp08RJNmTqFZs2aRS1atuCJATZ9+PBhOnjgIJWUlnAn4gefpTZLpWFDh9HIkSMYeC3RYpCzf9bYveB6GIZTp07RoUOH6c6dO8woIRVi8nbu0pnGjh3Lgzs+IZ7vryb+TdqxcwddvHCBDRWYqNfrYaY+YsQIGjBgAJMkc/F16DAM8tt3btOunbto/779dP3GDR6YIEkwWvoHZAX31lIkJlzfvn1p8uTJNHjwIB5U1QLuDB6Cybx37z5atWoVXb16xZSWtc/YSuJYqjQUEBjiJxctov4D+lMUjLCfAQfcz549R3v37KWsrEzq1r07DR40mHr27MFEBSSqrKLMJJRHjx2j27duUYcOHbj9XbqAeCpcH4moWAmh/m/776zvUF+TLBwTVe5RbwiwMuHz8hy/fu06LyCnz5ym/fv3073se/wZ7MuAAQNp8pTJ1KJ5c97ItOvQjhLiE6oHYWIjBFdJURGT+R3bt1NUTDSNHzeeOnXqSFA7S4tLqdJbSSm8uYmh8rIy2vLVV0wmJk2cyPYEyoSZpWOT77EZOX3yNJ07f566d+9OQwYP5sUV7YT7+MyZs7Rv3z7Kf/CAJk2eRIMGDWJScOrUaRo6dAhNnDiRd9DmFDTcKvh+QWEB214s9pcvXWKVGQslntOyZStWdeMTEnhxxkIK9QkbRxAjuK9BjIYOHUqDBw+mNultTNWIn2UxKppU4Hu4PjU1lQ4cOMg2eMqUKUxKYLMTE5OYdOC6+3n3+Z1A/vr26Uvjxo3jjZx2tRQVF9O6devo7Jkz1L9ffyZlBw4eZPL5/PPPMUFjV7ihCmONgPKyZ89uWrduPT932vSp3JZqRMXar+fP0eHDR+j27VvKzeZSrj6QONjpYcOGUsdOnVh907E7cHexq8tFTMYO7D9AGzZs4PZMnz6Dxo8fz1hduniRdu3aTdnZd7kJaCuI68gRI2jM2DF8vQdkqbCILly4QFu+2kItW7WiaVOnUpeuXdjtbl2DlKvKwxvW0rIyup97n3Jzc3jd0aoY2t2qVUuKjwe5S+TNpuMCUF82tKERFZa+PF56kJ/P5OT8+fOUlXWXCgryGdAZM2fQ7NmzeWHGwD539hytXbeOF7rhw0dQG96heFmWBIHBf6PThw4bwh2GzsHOABMKqgdYPnYjmMhbtmxm9QKTuGPHDiy1QWHBMzp26kjTpk6jzl26kMdbSTdv3KSvvtpKd7OyeGHGzgGdix3XiRMneIBNnTKVjYCWz+ysFO+al5dHBw8epDVr1tCtW7cVSYGXlN092KEpX6TX47EEprl5ZwVSBglz0aKFNGDgAEpMSHxIQixmXROVlStX8vto+6BkYbjRlF+TdwGszCiJecjQoUxUBg4apEidZtWWaH3sPiCrYrd5/34eT8gBAwdSakoqD3Ate2qVDIbv7t273DenT59mwzFjxkzGz3TPoYHV4mds65SNgCifteGathCeKpg7qTL1tvzJgyICAQSvV3rYJsBVunrVajp95gwvktiJw1pjLmJhgPGOj4tjV8L0adNp4qSJ1Lq1sUO3vSzm2tmzZ3nRxEYIC2Snzp15Nwt7VFJczLvbli1aUrv27al9+3aUkXGdzp49wwoJbN7AAQMpCsGvth/MKbi9YSt37drFisSoUaNowID+3N7Tp07Rps2b6cKF86wQz58/n9uJOYsFf97cedStezczhkLPVRCyvPt5dPLkKdq7dw+VlJTyddiAdezQgSdbWUkp22F2N0S7KS42ju0g5j0IHt4ZiyfwGzZsGC++sNHadW+KuljYPZV08sRJ2r//AKWnt2YSBDvRp3dvJl1QFXBvbCLRBqgPt27dYhcTyF5+fgEtWrSI0tu0Nu0O1HbYVrSjZ4+elJySzLa+ZYsW9OTiJ6l9u/ZM/mDrsTZAjamoqKQd23fQ6lWraNbsWbzmwJ7Zf1itqvTQrdu3aOPGjdyWYcOHU/du3XjTCpX94sULvCagv4F7SmoyvzuraC6lysPmnz93gbZu3crKHfCZO3cujRkzlqC2r1q5ksfM8OHDqXev3nT9xnXat3cfq0MvfuNFficEHOP56zesZxymTJnMeMfArWfED2qygmfD83D3bpYRZ1RMJcUlZpwnrsM6AGUF4wPjD+48vdGvkjXV5IiKZRHBpMu4nkHr1q7jHUG//v2pID+fF/RRI0fR7DmzWS3JuZdD23fsoBPHT9CTTy7iTgTbx4KLgbdz5y6eYPj9cy88xzuGwvxCWr1mNftZFy5YSH379aWCgkLavn07TwpMJLW7iGWCAHfFxg0b6PLlKzR9+jSaMH4CKzfYjaxevZqGDh1GU6dMYeUEkxOTeceOHXyv/v370Zw5cziIFOPS9C8bIx4DFIv1+vXrebdSWalcMiBhWKhhLEHaMJjxg/bDpQKjB78iDCcG0sxZs2jmjBm8c9GDyLpAByIqTFqM+B81QKOYBCEmB+QHGMG9xIzasgNifze5ePe0ZfMWunT5Mg0aPIhGjxrNu4P8/AesmID5Q75kf6gOM/P6eOLt3r2bjhw5QlOmTKVp06ayW4tVIafBbycZBlGBOoYYIc64crmMAD6VyWBmS2gLI0QlIrjCY2mkjk0x4jmw+O7avZvWrFrNCyIHGUZHqQB2VjZ1AKWPVdaZM2fx4gKFxCkuDWMfJALKKeYSNiHY7Ny4eYMXRuxe8T0oEJjT6eltqF+/vmzHMNfHjB5NY8eNfehesoxlnQFTVFjI9gTPwaZu5syZ1L5De3bH7j9wgBeytm3b0BNPLKDkpCTavmM79e7Th6ZNm8YuCpUwYMScGcH916/foP379tG16xk0bOhQGj5iBC/OcDNdvXaN5z8UjYLCQrYjLVu2pHZt27JKqha4FCYqsMOY2xMmTGBlpQpRMTocGMMFsWnTZr4vFCTgMXz4MFZMkEDQrFlzJh1QyTHnz587zwp2y1YtWdVduHABtWvbTrmxXMQL8fLly1lNAsmBvUA7nlr8FNs12Gb8YC1BaAFcKbgX1hWQ1NmzZzGOVRQVo73ACrYZatOq1auoS+cuNGPWDCabsPdwd2MTt3nzFh4/L7/0EisdMTHR3HZszCo9Faw+bdu6jQmrjl0COQJRgdL/0YcfMhmeMWMGde7cmTHZsmULK0pf//rXuY8xXrdv207Hjx/njTZwBhnV9h2uR/0DDO7l3GN3GdYGHYCsVShtg3nMR0VR796G68qI0+S+swUh1/mcbTCKik3KLCouosuXrlCzZqmU3qYNL/wgBpgsMAgYOIjlAAtFh7300svMwvUARWeAdWLQY+K88uorFBcXzzuXzVs283ehtCCeBAME12FQPP3009SjZ3czdx8D8cCBA0wmBg8ZQvPmzuX4lV07d7Ic98wzz/BEwr31oACLXr9uAy+ci59azAQCBMAazAsfKhZz+E9XrVzFExPkC/E3ffr05e9y/E1+Phs0dkF17kwtWrbkCHb4li+cP8/+UEx8tBsTDwTLhVQ8y0AClnv37KOVq1bS9WsZZjQ7gmbxA14AcoL4mnbt2rL/HFlH/fv3p6eeeppdS2x8WX5RX8COEkTg6JGjvJto3TqdZsyYzuQF0iN2d8B33LixptsNxAufs2+0spIn+Lr161l5WbRwEaW1bv0wXVI3zE4yzAWFWB6/ezebSQ9IX4sWzdmv27xFC5XdpDO9nAIc7fev85kmD2iQCFgWfK3mQgGFAd+4YRNt3ryJFzDlKo7mzQKINzYMGHMIugQJmT5jBi1YsIC6dO780D2jMzUMhRT2BXF0x44fp6NHjrDdQfAlNiZw1WDBXbN2DdshBHB26tSJXT4jR45kJZc3T0b2iN7d6gQDxBdk3c3i3fv58+dYlcDmCZuorl260pGjR1hBQbA/dvZQMPfu3cvv9sQTT7CrpUqMitF2uH0yM7N4E9WufTsqKiiiffv3s2qMdoJ0gVCgbVjY4GZ68CCf53S/vv1oHBSUtm04Ng2YQtHBe1ZxU1viNECCdu3exZtM2F7YQ5CSQ4cOMR6Ie4FbBooKgosvXbjIizjsD0jak08+yQkHKmtK2QjY7pMnT5rPRbuhUPXq2Utt/Hw+On3qNN+3Z8+eNG7ceCZ7cJWDqCDUwCQqFiUXZAR27PyFc7Rs2XLuw6lTp7JKzyq4z8sB2GvXrmP32UsvvURpLVuZm2m0EfjjXbFmwH0IPK9cvUITJ0xktw5UqXd++w71HzCAZs2aSW3btWWMN2/awqQE7isoMCBsO3bupLTWrZhYgTQBH3N4W2L6MG6vXr3Gm0SoKpzl43axq0pt7nS5DwRQe9k9D1VLBddaMqXq04Y2GKJiAVKrCFjYEKeBzsPEW/nlSl40mag0S6WC/ALuLHyGwExInRjIABtKyL59ezn4a+DAASzhwfWDAYTdBgwE5D+Af/ToUWaoCEB7+qmnuON1eiAmDvzKkAEReIVBi8H51Vdf0ZUrV3nw9erdS0mNhiXGwglfIxZRDHRMKmQJWGNBEKSHOA2QB5AV/PTu3ZsVGEwKTFL8jR3B5StXOOodCgWYOJQHDFYQhEOHD1HrtDR66qmnOPC1efPm1XyJrKjs2UsrV65iHyq+D+aO3RrvMKKiePcDwoXAL+yi9uzZw0wdrh/eAVkLTunIdfKxEYCiNWTIUJabsTtYsWI5/41Ju2jRk+Zukb+mfE3MdjAJ0a4L5y+wrx84IQjaZE9WZcW2oACHc+fOcTuxw8K7tG3TltsACV7fR6UWGl8WRaVBcoXH2ijbuNLZGCAgX23dSuvWruVYNMRhYMGFu7hdu/a8EEPax1y5dOkiB56DACBA1lQFLTYNdgdjFO4kzEMQFcSVwM60apVGC554gu3Ohx99yMQbYzYxKYnl+3nz5tGgQQOruZA1sQJ+mG+Il4ObBm5tbHBAuJBQMH36dI4VgzKEe48aNZI3XQf3H2BVBXEYWNyqxqioVYjdSohdIB/HA27etJmVlNSUFOrbrx/bDbgg4BqGLcHOHtdduHiB7ty+Q6nNmrES3bNXL1YSoNQi3s0MCtadr8tC+IjOnD3DbnXYPsQGwt10+NBhJkYIsM2+l824YJOWnXWX2wBFB++NDRs2LGrX6KKiwiJOIgAphOsMbhLEvTRLTeV4R2wiQbD27NnLm8+BAwfS1GnTWO0FUcG6MdtGVNhrY2SkAh+o83Avwa5CCYE9BklA9g9sE9YnbLhhC5s3b8ZrGogvAl937tpFJ0+cYBVo6LChnDRy6PBhmjB+PI0ePYZDHj788CMmsyAMiA3KvnePtn61lbIyM+n5F55ntx9ce1Bw0Jf9+vXjvuT6MmxrXRRlUUEwtg8eOsSegoxrGYwT+oNr3jBuOoVeTY7nn3+eA5VBSM0CgZZ+q5f522CIiuXFvaTS7DhaGQuN28XqCJSHQYMH09y5DxdzxDtgsQSbhuTVrVt3/g78sZi8iNgGsUlvk658g0agE6d+RanaJWDPGJgwQvPnP8EEBsoBroVykHHtGsuHIExg4vjuxo0b2MXxjW98g5UOa40WECGQiPMXLtDkyZNo7Nhxyq2hCxYRcWT/iZMnacXy5RxdDuIFt9OcOXPp4IEDzKp5J9W5M/ucoa7cuH6DlQoMRCgVIENQJHBf+Mjnzp/LrLxKlpGLeLJiQV+1ajUPZhACDO6z585SdvY9Dj4bN3YckyoYv+3bd9DOnTvZQDy1eDG7dExFRbNoIyXv008/ZUI2ddoUVoLgY/5yxQomV3Nmz2afMWddGX5ZtJUHuxFAhp0MVDG0CXIl2lKFqDiQC+xUgD1ibrZu20Z3M7NUfYuYGDboULn69O3DQYlcJ0KISr3Ykoh8iE3J1QXcML6wWK5Zs5oVWwREYu4PGz6MawBhAOcXPKAdO3ay5I7NECsqXbo4w+Airi2EDdGG9RtY0cU4Bglo06YtPfvss7zAvff++5w1p92liNNY9ORCemL+Ew/nYJVdPWyUh+0XCNCVy5dV3Q4jYBKxElAlQFagkGJRxYIDGwflE64JPBsLv2PWj7Egw8188dIlWrt2LaW3Tmf706FjByYeupYK7KOOT7mfm0sHDx1kl9PkSZNYWcFibc5tY0E0zb5RPA+LJgI7kXmJzSQUDtiErMwsVh2wQcOGDVmD165dZTuA+jZQBzD3sZGEK45td6WHkI2IGCPE2vTq1ZPTpkEeLp6/wK5t9CtUJriGduxAPw6kqVMNorJ6Fd+PiQrarlOYqxTNUxk/sJdw33Tq0pl6dO/OQdEgVHB7AVdkaCpKJPALAAAgAElEQVTlPY5tFUgd2oGNars27dj9BmUIAbXYfCL8YOSoUVRRXk7r12+gmzdvUM+evThLEuQYKn/7du1owcIFHOSNzS5sLdYMuCehoiPLiANho5Wr0RWlBjs2+Pj+suXLWfExVRRdBMjoFH5dn4+9ERg/2Dg/VqLSIA4ltExvlVuvYiC0xAmigokI5WTOnNnsr+S8+/wC9n+CGEC6wu9BCvLy7jPTnzJ5Co0bP4532Nb76fvDUGCQYSHv3q07zZs/j/2saj1Wgb1g48u+WMadNHvOHP4ddloIIPvmN79JnTt3MgNNISNiUiAwFxH448aOpYmTJimXjGXBRNtBUL5c8SUdP3GClRBErIMsbNq0iX2yGKxY/PFTVFTI8iX+YDBCedmy5StaufJLzk4C216waCFLz1xASlcyshAVDHgMSgw6MPTTp89wcC1qpeCeLVq05Al76NBBNs4gD4vhy9VERQ9gnRFQ6aE//+UvLOkiMh6xQDdu3qTNmzbxRJg2bTqTFWRomYWYjEqe+DfI16WLl2nTxo3UpWtXDgBDu8zCfqqIRNUfI3YHu6uPP/6EVTMYK/2D4OKnnn6K3wcZGFXOMhFFJSK5RL002nTTqIBsBBdu2ryJNwIP8vJ4wUKMAMYT5hsCYbGD37J5MxMaqLkLFy70T1SIOHAebgCMd7h6deFFuEIWLFhIAwcM4J3ujRvXWcpHxg9iPLAALV68WNVHsc8JH3Fg5M4dO2i5oWTqeDJdTBKLFDZs02dM5+D75MQkJh07d+6gzp27cHwYXKbVsgYtwMMFAJKArD4oPVCYoNBgsQX5wRyEatOyZQsmF4MGDmIilns/l1o0b8Eua87+41ogHg7U5NoqWnVC+rax+cEmqqSkWKlKyVBYgXk52xkoNnBR4/tQjfA7ZDJCOUf/9OzVs0oKMJ4F3LE2gGzADj/Iy+c2Z9+9y22FUg7XEmILQVRAGrAeINRg5qyZTFDZ9aPHiK7pb5T3L68oo1MnT9O6dWtZZcOGCQXvMD7wXATBAnu41bHhA4FCfAg2aGg/1Disa1C2d+/azaQTa9akSROZZMCdh/hMkEo0Apu+tLRW7K5DX2Ozhg0g1gCsh3D9wT7CpYN0bSR0gEDHxcexHUa7DuxTRAVjjZMYjFR261zTafOvLnmVZs6YSSmpKf6PUKnrSaoqH7t9SYmJtPRxHkpofVFrRofBvLGAwvWDzpkzew4TErDGM2fOsPsAMmqH9h3YB4qMG9QluXnrFrP4kSNGMntGHAkHtFqOzUAgGwYHBil8oDA2GASa+aOzIHUu++ILjqAGScJ3EL2PZ77y8stKUTEyYlQ9lkKOg0FKHHyN4yaMU7KqxZUBMnHs6DFasXwFu68w+eGLnTdvPg8e+C7hcsEER2YA2oFJgM969epNvXv1otVr1rB8hwV/0qTJnP2DAcn18Swl+JWispcnHgYpZDxMDgxkFLDC7gqupiNHjvKEgKSIOBhMniefXMxExe6/RvthBP7610/ZYEydOoWDnrG7gKy9aeMmDlSD8eBJ6HazoYPRARaQgWHIQFRAMpHzD9cViApULAwBJlt+FBW8x6ef/o127drJkxL4Y1LDDcfxOoMHszEz1SVr3RX7+KrrSSb3b/gI2OKYkKKKzQZSVLE4Tps+jd0omJewE9hUoDgZSAeICuptLPJDVFjd8Hg4PX/N2rWsxt7NzuadLxQ/vUmBqxSL2M1bN3kRw2YFmy4QFbh2kVGjN25WQDHnsBOHwgh3KBYvpagg9dVH0VFKWYRbF3FjUJ6vZ2TwLhxVZOF2smb9OHUWiArqRMEOwDbAhbVx4yaOZUPwL1Qa2Ci4c9HGWTNn0chRI5lo6fdHfA5sXe79+6xADRk6xHCZq0kOm4KFG7Ybz0FGDhIXMq5f599rNRxEC2562BME38IuIsAZmxO43lgVM6oJc6VYVTZcVY31weVSymsD3h/tgNKEdsENBvcQMMJ6s3r1KkVUZqnkDX4RbUcMG4KNLoKUd+/ew8p7+44dOIgVyhKCXuFaQXwPVHC4pJE9VILaLps20/Hjx9i1hXZjcwyyt2/fflZIQG4mT5nELn9siKEowS2EwGVkQMFlhWdv3bqN7S9sJ8gKVCy8J7BDLCVc/WgPFDlsGEEOgSXcUcuXLePMMmOJrdbtekq8+uorTNTRl072uF4mt0lUkpJo6VtL6/f0ZPsipEZrVTCMf6MDV375JcdCYJcO3yenY61bR5lZWUwgIHFyvRRy8eA9cfIE57bDZ/nsM8/yoq/cSao8MseheH08MNDhrVuncTAWdjicpeI1FJXr15mogFGCXWNXgEGOSfLKK6+ogmiGiwHGAfExmzZt5BiWmTNn8ITUVQTNKpVeFfuC1DPUT8HzECk/evQoJluQMxHoC3UB6dEwPjCU2O7BHwyDgDbgM9wbwXzz5s3luBI7IYLkrIkKlBKkXsPQDh82nKVQpPbtg4929y6+L3Y02DkOHTKUFj25iA0bS4eWk1bZCBLR3/72d95lgc0PHTaMO/Bulko/RiYTVK0RI4bz9+HrB59DZVoEsiUkxtPZM2fZ4IH1w/WllTKr+mVOBMM4ABNUUYRxgJQOSRg7FxBMlRU2hwOoo2OjH2LhJ96lXiaZPKThI2BbgFB/Y+tXXzGJhvqBEgRQKxFHAhLcuVNnupN5hz7//HM6fvwEj3FWVDobrh+rS8kIpsU9N6xfTxs2bGTXD35gi+Cegc3p0qUzL/pYeKDiwo5AuodLCYoKpHz2HtvOHiopLmVXNzIXES+mVQtkw8HFgCxIXcRx0CDlOkecDWfdHT3CGYOIbTBtlENvcSquF5l1bt7UQBFAQC02HdioQXFQi/ZtXlBhq+CywYKKOY3SBXCx79u7l+NJsHDDZoM88YYCta+8HrqbeZcOHDpICfHx7I6GbYLKBPICew9VAvYWRAAJBfgcJQ6g5vTu05v69+tnKkPaRmmCos+KU9k4V+jzzz/jYGXYQihDW7dtpX59+7PijDWBicrMqoqKKvmvD2d1MXFABigCYuHyQQAskj9QLwWbKSQMQJ0BmUS2FdRrrAuIfwGBwbPbd+jAuOIa1PJCXwIfxNtBAWOCwLXBkAFazu+n4w6379xBY0aP4fsAX4Q7wC0HwoU6ZBgTCJxdvPhJvhc2xFALsSH94vPPVaaRPj/IHFfGAY8c5uOml19+iTecTNbsP1a7WpezPNKICowEFJWU1FQ6d+4s/f1vf+dI6FdffVW5d4zDrzBIIe/BXQSjAFaIan+QG1BjBYMVvk7s+hEnAXcLFvinn3laybcsQ6Jkv5ddJBhYmJCYXDAE27Zv40X2xRdfNOIholWJfx/xRN24fgNHemM31LVb14eKhPZz+rx0+9ZtVmZAOMCmoSZgMGFyQy7t07cvs3JEo2MQd+rUmXcuKByFXHoMQEyGDu3bs68SMR4cTKspsuFfLiwo4BgfpGXD1QP5Ee8CvzQMLnYXqIgLQwDcOKPH5ebPFy5ayDIuFBDroWN8hojLzdlSR48eYdUErioYEBhFGPe9+/Zx7BAi72HcgDuejV3EzFkz2I8LY4lrkN6J3Q360DyvyV4NUWf88MRysXSLKowwmvChY+eACY7CfFwW3Hq2kxCVujQjkX9vozYQu4TdLt51w7UKxQ47dxAUxL9hjHbo0JF/h5oXcKfm5NzjHS3cNyAbTj+qdkUZF6aE8oEFjMvkGzUuVACuejbXcfF5WSHEZgX3hRtApz3bVRVsaqC6wu4glgFqEIg8UlBVrRFkLanzZmDzUMoB9T6gwsDtjXtjx2wNpq3yDpZ5h6mHuY/NT2FhgZrvXg/HwYFk4Q9sEv5gMUQsCdxO2NRh8QdmwA6bSmyEoDKAyHCBtIpKjr9A8CvuM3fePFYJML+hLm3csJGvh62BOwdBsSB6CAxu3kyRItS70m5vxhJpwORi9xhqvqB8BVSmC+cu0LLly7j21oQJ41mJgjKGlHC4fqA4IB4HmYzWrB9t4/UOCPYZMX1wy2Bt6Ne/Hytf/ELsdi/k9GRs3CZOmMCqM3A4dPAgB9WCoIKA4gc2EhtJZOKgojqUbIwrvgapwQb5RcziyVMnafu2bbzeIWsL6exffPE5k0W0Fy4tXaJj/4H9bJtR3RfrJjJfsYnE9VB8dE0X6xlRvFE3MsyQUTtjpopReWxERZXRcPuw820QiopWVayIuIilOHb9DBlKs2bP5gX7zJnT9OlfP2W5D9k3rKYYixOXt796jQkGFkiwwj69+1BJWSm7JTDAIOuhuiJcHdjVw9eJyH0wWXVEuY8XQKgteD5+D7YN6RO1BUBuwLhRihkSnXaHIGUXgVXwfUKRgKxXLRPApYKaEIyHiHFIqBiQCFxFHj7OxEE+P3YtiPdAiiDvvmJjWUaGkcPExoSBTIgdF2JKzF2RRa1iqW/vfvpy5UqWfCtwJlFMDC/sMBLYuaEuAgiKrqOA9uK+kLNR8M1OVHSMz/kL59mlBL8xsEBUuq6UmHNPGUrIqiCLMFYIRESQ2JgxozmNETtWjD0YTwQ8c2aWw7HuJvkyxoeO+0JfcLGsysoqxabs1zuuHk6KXuQvufIG/hDwp+Aa1/P8rcQBp2p3iw0EUnhBEJD+il0yiixicUawKAIlcYQGFotp06cbikrnasHsfHvEVnk8nHXz2Wef8UKIccsp+8bBn/oEdZ6DPi8rDVAqsRPHws4HxfFR61VVZ+uJ5DpQE/MDNgXth+2CDcTGCZsw2Aq4BrZv38a76znz5tCA/gMCltDnVzDOPeINnFG9Gs+DCnDm9Blq264dZxRx4ctbtzhRAL8bO0bVf4HyiowWZDsiowXKLrKBEHaAd8J7oGQ+7CreHZskxLzgvB9sZt5/731268Lenjt/jus3IbMFxCW9dWu25XwumXE+DsfF4VwlbE5v3+FYDxyIiiwhbGKXL1vONg71ac6eO8cKGtKAoTABN7j9QFqQ+YMsIf3DZM2opZOZlcmpwnfu3Oa4QdTl4kqwfBAj8VEocCFiozh23DhWO0BqsJEDGVbER1WqBMm4hqNgbt2i7j16cPFMrDlQpkBUVJyfj9uOQGjgCDcV4mpgNBGjhA0vXIhQrMsqynkjCHIMtRp9g6wnkEpU50XcZUbGNUNReXggrc54VUVHY+iVV15mRQUeBSEqVgTschKIihFMixgVuF9AVLCDgCKhaqJM590MOgKjPjcnh1P1sEhisCONC9HqYPPw/8LnB78z3BAYMCADCMqFrAgZDewRHYUaJrv37OFFHCWJwXIh/yGlFhkB7NoYOZJlYQRRYcGHYUA2EpSD8RPGq919NeeeOsAK0ecI2gPLxjMx6Dg9mlx09142u3YwcFVVTCX7IuiKq8l6vDx45sydyymASHEz4zos0jNieUBUVnz5JftR9amgcCHBgMBtAhlSldRX4OP5KO4EAgEZEezfqqhwgbUoN+MI+RsTBEwebiJ8m+VW4ywmxJDgmICc7ByOyG/bth37u3FcwbmzZ1WRvUkT2TipXaNqfLXjJRziVViIZYJlHDVvPeLeifTaCLCs6k0IgSBERU9RbFAKi4po65avOO3z/v1c3vVCEcEmAfMccw9KIYgyxi0WDOxsVbxadfe1dp2gsNiyZcs4FgG2CFI+5pImAbwgGScpY9GdMnkyzZ03lzrAvaxPIbbdX6eVatcsL37ILKys4PmJRenQgYOchYiKt2gn2rxt23YmLvPmz+XUfmuRyECjwuoqwOKKTD/YWWw0EG+BmB5sUOCKwE4fGyi4eGAHEcALhQTuLKjH+hBGPA+uDSyc2LxoogKFGK5oVJN9/733OKMPNhXZjxs3bWIVAvVasOlCrAliEvXRI/o8HdhxlKAA5nDvIwMJdV2gxqO9o0aPYsUGcYq4B9YSHDmydu0aJipYb1AbRRNEq+KLzRfc6lg/UF4C5AIhBtgIIhvqxvXrXHcGsYDIPsXnfOgkjnHRpxwbNgvqC9p45PBhzi6bOHESr11aSdPn0aEQIYr4Qama/8R8JmcVZeW0cdNGfg+4s2CHkYaMlHUo78C7b78+rJphvdOKCtxQWh3itUWfUm0QU2yMX3rpmxwMrF1QVcZGfbl+IkZRMdKTmajMmcMlfWFMELAKRQKTA+lbSiZzs2sEigrUjEmTJ3Ogalx8PBsFnImAMw7gc0MJbMxq7AAgpSFTB7EOICyYhBch0cKXOHYcjRkzhlq0amHGwIBc4A86s1vXrvw30r1AkuC2QefCLaN3VCZX0cGcPmJ/7cGDB2jFii+ZeKExkA5RThqDGW3AwEZhIs6UqUBlRWWpMJlhBBYseILT7KqdM2I8RxOVL7/8Uu0AkVeP6HOvUmX4HB+jnLMerGizIipPstxtxqgYo5TTx90uunXzNtdNAa6oP4BCUpjIfOIoDmRUrEdB4EUlx0o+dgA7q9OnT/FOdc7cOVzR06zea8QLVCN3DguAGY9j/0yTlEATSRSVJsRSbOTB3B5XhwCbEiyOyCiDComD5rA5ULv+SjV3cEaLQaYTEhM5eBQHFMK1Yh3z1ngxkHmoDyingJgLBDbid3CT4G91NkwCq5zYiEEJxeYK9m70mNHqnBgHRcW0L8ar6GxF3iwgQLWwiHfV2KDBriD9Fmot6obgGizEWGT9nvQeaJS41DlpcMVgEcQch5sDcRlIs4aNgksGx2SgwinUZlQdh5oNUmdtu5WogBjC7QKCwEXQrlyh3//h9/Tcc8+xAgJXzc4dO7nyNdwjwIyLz6UkKeXBcmow+g1xgKh91To9nebOmcskERmTWE9wVAiCg6GSQ+HBxgmZjyj/gMxFZEXBTW0qWRabwrVxrlzlaxEfgnUDtgzkAZjAlYP+hVIDtR7EQ23iVIykdf+KquZ7LFk/cOXzKdJGGAKUJSSPII0aP7gf4nK4JhY+O3uWP4PbDGshXHOIvQHZW/zkYiaSIJnYIB87epQ3mIjVMVUdI1tUE1b8jUwheCtQcwZegypjW9vYerIiDc/1YwfARczacf4COgYSGkpA6wO3MGiRtotCQyAgSEHDQMegQPAtStnDN4naBFq240URAbBGBUOkHCKiHwP0wsWLvHNCB6KThwwewkwbUdOYzHxaqaeScnPvs88Vz0YAHGeexMSwfxCLPHYvkAHNtD89wI3qrmoX4WG3DgjP7t27WMHRBEIPIDPd2DgiHtk6kDBBTnSBHxS6U+fqVDfIkLHBwBGvgxgVBNfBgCpZ1K5cKHqANmO38cSCBey3RYaCtdqt3lWhFszaNWv42b179+G/saNBPRc+fRPqT7Rb1TQoLmHjhfNLIMNiUiNbCMZdx5TAENt9puY8sBILHfxoy9aoMmeCsX0hKvVkYhrIY4IpKpqEe328oOMEXcQpYH5jvnMmCZc+xxhV6iZsCDZDUBOxsMBGmD86ndUoc4BYEtgL7HrT0lpzBVWowVjgsDPHM+HyRZkE1CjB5unmjRusGIwdb5TPd0rZd1gw9PzUSQFwNUCVwN9QN7ChwCYM56khFo2LUqLsfKg/RrKBcpEjrk3hgndE3ANSdWGXMa9x7AgU0zZt27LLDBtMZGjyJtHSJyAXOFIAiz7sBOwoVGYQGuCOwH3E/A0fNowLyiFQFDYF5SEQTIvzdPCduPhYpQ4briq8EtwtcO/gAEmoDXB3Q7no1qM7n80D248S/LBF2Jihj5CyDHUCdlbVzrHYVh3Y7/UySUBmErIdkdgB0gnXEGwoFH70H+JoWhkhAFWyGc0xgpT4Ylam4E5Hn4BsgLjqdQLP2bd/HwfAwsUEkhUbE8sbQrwrFJRjx46zegQiBnc93gfXIVGD68uYZf8xttfR5cuXePOI9oIosmpn/MF9EajMmI8YwQHOQlScJohlEYJchQUXygJYpjrYSc1QSLLoJPhbEbvBR1NHRbP8hihnTAjO8jHiV0w2a3smFAwEiSHtEDeHawPFgJKTk3hnYEaPGwf5sTqDo8ah0JSWspSH70GpUWf/WE4cti6aFqKCJqDNcBkhuG3vvr2ceYOsJZAna7Q9DAlkZxhGTB64qECg4OPlcskcAGXGcVmCr8o4eA8ZMtiZsBEz6pHogwA5y8a4BwYsBiVcWhyV3r7dwwPLjPo2wBOyK+J34IPFxFDBVmoGAzdkLyHIDUoT6iKgpkLe/QdMJBH0CiOAVE8uy8yTQ6mQprTs4C6rMlFELQl1WZHrrIuMFQ17kLWRgooxiDTSEyeO8yKHWAOoKVb/vVoI3Wa2CSrXcnyCA3nmTQeqkZaWcjkBbGjwB3MI9ku7fzDHsbjjDxZ9uHxxT6SkckCl9cdO3G2fsZ0ziA2IBFQi2Dg8F+oHHwFQXMy2DX/8Fkb0N3ociJ96R9ibi3T8xHFOx0UCBNJ28VwsiLhGF5Bkm2zcB0QFNahQoA2xPComKIED/pH0gEUchAo2A5+DWKA4HLKmUCkXxwygqBvsNu7FxUJdLravqMPC7mp3FK8H+G/0BVQt2B+O7amo4A0Z7BX6BN8BLlzllYxMUd1YPrtMpZ1zzA55ef0BcdLxKxgbuD/sM0iCGafohzDzGW4lpcqdmBBf5ewzvWmFyoY+xOdMnixZYLgG34fChfUQYwlKExIU2HWPd0Amq8/LawtcgVgPcJSL1Z2nMy4x5rCZ7NGjJ685XNrDSdWuJ+vSMBUV/fIO8Sr2HQvTFUPl0MZDpSFbzjrQg0O7XSwxHNbceHQkR+MbGTxws7BSoVNz9U7e2MWo4nS4HFKwurl+dpV26ufil1aiYrQDgy8vN48LpsElgt0ITo3GZMK90QbEwyD9EacTo8AUYlkwkXWmU7V1XbtcYHRLSjmgDOl8inB51dHm5OaBqwenkv3UuSbwtWIXoNMHNc6MDalJATkVO0JEk0PiRYloGEAEfGG3iJoy2GHAv4nPEMiGHR184zA+ML5cVdY4RMysVWAf/IHUj0CqSj1NInlMBCAQTFGxzFG1QUDlWCxYIAwVrBzgYEJF6h++LxYMuGtNV6eRbWc+zmprnAhTEGVPZcQaGy1/2WtOv9cmqa66xk+7eddeXsE2B4sbFlVWZAP86Ng4EDd8T5EKN2PKLi9UAs7P5/op2Ohwuf6SUs5swQ4nPjaON3G8KXWpqrTabuvMH5Mo2AidsoNKSVB7XxXNb8bsOG2IjENWfR4fF6qDssZqvUcF7z5cBxxUbid75ecZ3NRgGzKDXGv7z/EvfBabu6pd1WuWzmwrVSdfw/6bbj+MXYPM4PLEhEQWB0yvgL3Pg6nWYRx7kU9UAB57M3SYqOpcuw+QMXMiKhpMvbCjnLMRU8FfMZQGx0FjkgGH4E8r2fJnjIw0MD3AschDTVGFjPLYTw2Gjt0IFnv4rOGOwn8zS7YG2AUyBIbkh52VCpo1JiS/oLGXMg21mrQwEpiA9gmOiahObPWyRAsiwkeCY+cQF8c7DFTShW8W7wOFBrsSfAZyog4xQwqfwhakqZp7LIwDXG4lCNQGAV0h2zQavH4pBcBv6rteDJyCwWvTCNui6qTWVLFLgVSWR32+/ft2Ahbs/truGDvDKk01hBWVRq1sN9d7NE50VplNIAQPVSWrDbNX1WXygQP2oCLY64TYSJ2ZZWhyAiN+xPo+fjbMujYLE1eLGswbZktldXMTWZOFvSb4WjbQOpiaxQ8dB6M/N6rpqioeDxm1lZTp3+taY06JIMG6ui4+j0yi4m8XbekQR7CC7F6sBEXNp4fFb8z7WVUVG8mpxn6tSoqTETGIikmswLlY7fBxEC+CXTHwFDtWcrE5ADXxsv5tGEp/8vPD5irLYLziQ6gsE0lVtrRUiLV+ZqgwVl+4aoZyQeFH125QWUDGcQhGNDncZPrsI/1+fo1wIINRFzNC7ikIGHOqSkYND2pjs+M0rwOpv06I1mbRaog9oxc/bYeCKVdO9tOJBBn4sGPFq85/Q+A/dHK9iLK5M9RvtQlVylPQxdXeBuu/9X9b+zgY7oGUhlDJYzDcgo0h/X0ngoN3sir5lndkt6OXOGSCfyzfZ8JnxKzwZ6H0XTCsavl5ZBIVDZr1pYMNiGAkxTIxdI8F+4r5+GDs198gDNBmkwQY6cJ6UvJY0kw52OC2GUPrBA82XqoEtdonbbB/GzfX1SGtxsOsGInDCXXQm7U4m71hNTHowV5KPhcE/BFfh7nERMWqoPgjI/r3dW3IQ1k8/W2OavDeNRokeGe9OeddVNVv65g4c9deo5uri62ZTFrV0rcxkw6M+ktsa6rVNgjhof76LlTM/eFrW/z9tiSQLQ/FBgYiKk421egrEED0H6tSljZwt+qwAFRzN/q5NtCGgH7QSxo2UQnWfGsHBiIqoTAOJ5WmJgbI34Cu6bM1YTKCXtXgUXuEKuTB4ic3YbIPaKcB7q89gYysk/GzY+/wrCr+daORKuDXIq8Gem4oEzTYGJHPBQF/CPizH2p1NItxmTEpwYhKqItSffWIfQPltKEKxT4Faq8/TIzvMNnz54qvDQ42e6GTKvRu3yQyTnYlFNJRmzbpftfP9Gd3g9kzpzUs2Hd0e0MhKk4bTGOsB3xtB+W/tjDV9nuNh6gEQiDYZHQaDFbiYicxgQZisGcFm/T2wervfvbfBxrQgQyyuTUx/uNR2l/bUSjfEwQaKgL2Bc/Pwmwtlqhsf/UJWc0l4bQ5qiWpqqJkOC3SgZ5Vk3bUtJ/Cde9gNszpc3+bIH/2u6bvJtfXGwKRTVRCYYPWXY4TrIFISm264VEWeidCFOh+TjukYO/otMsKtFN8lPepDX7yHUGgASGgj2uwbpqrNc96UcANkyXmLdjCa79PIOXCtql6JG5g23XzWu+0KapPuxDo3e0bLXtHObUz0KYu0PX1+c51PQceaZDUdeOq31+ISl0QlVAmlrUvairvBSI0gXZTVtJW22cGI36hjOFgzw5mEIJ9Ho42hHIPuabRI6Ddl/yiZrGiR3htnWVnvUUo4znYnLHcz2/RxBo2W2zHozIAACAASURBVGeABIz5CKXtNXxulctDUT+c7G2g79WEqNSUUD7Ku9b1d4NhUtd9+QjvF/lE5RFenr8ajKjY4zMcrrfLvuZt7alxAdrKt9XX6+BSJ9YbqsEK1TUUyG/t9K5GOdsaj+kaf8Ghb+z3qM09nXZgjzqG5PuRg0Co88fPG6mvq/8fNLsk4Hw383VrF/xp3Nu0G04EyE5enNpjI19V6olYrreTFV0Mos6DK43+qpZmHGjE2W229Vpb/5tpugYRNU1KILtYUxsSyE6FOh5rY+tCIXkBsDE/qs2zw2wRhKiEOlACDU7roLZJp4ZFC9xtoSgwTvcNNhgCuYZCkf6CqTPBnm/9/FEHu7/21va+Ne33mryrXNvwEKhpf4eyUD3KW9a0PfZn+bMz/hQAf88L1a742/jUdv7VBLtQ7KP9vQPZt0BYOLWrJgpMKAu/U1/6w+NxKjrBxmh99L2BixCVUBbsh5uo4ISjNgYulIkYiHT4a1Ww7zgRkWAGJNjgDdaWYPcPNmHrcXLUtqnyvQaIQE3HbW3mcU1euzbtcVq0/C3QaMujkgt/i2So5KYmeAS7NhQ7Hco19ueE8h0hKs69U4+2WIhKKAM1VKISbLIF+7w2qkEojLumRjFQO2tzr0d12VifWRtyFQx3+bzxI1DTcetkhB/VMNvHcU1QD+Y+8Pd5sM1KsDY42SQhKg9RC9YvwfB1IpT+VJlHHX+htMXfs52+W4/teXxEpaagyfWCgCAgCAgCgoAg0OQQEKLS5LpcXlgQEAQEAUFAEIgcBISoRE5fSUsFAUFAEBAEBIEmh4AQlSbX5fLCgoAgIAgIAoJA5CAgRCVy+kpaKggIAoKAICAINDkEhKg0uS6XFxYEBAFBQBAQBCIHASEqkdNX0lJBQBAQBAQBQaDJISBEpcl1ubywICAICAKCgCAQOQgIUYmcvpKWCgKCgCAgCAgCTQ4BISpNrsvlhQUBQUAQEAQEgchBQIhK5PSVtFQQEAQEAUFAEGgYCIRyfEuYWipEJUxAym0EAUFAEBAEBIEmg0Aoh+mGCQwhKmECUm4jCAgCgoAgIAgIAuFHQIhK+DGVOwoCgoAgIAgIAoJAmBAQohImIPk21mOva3qsfDjbIfcSBAQBQUAQEAQaCQJCVMLZkYGICj4DedHXWP9btyEc5EY/R9/T/u9Hfd+a3K8m14bSLn/3c8IylPvJNYKAICAICAINHgEhKuHsIieiohdRO1Fxeq4mKtb74LqaEJhHJSrW7zvdqybtCbfCJEQlnKNV7iUICAKCQEQgIEQlnN1kVUusKgl+HwpR8deWmhAV+z1qqmo4KT9WdUaISjhHjNxLEBAEBAFBIAgCQlTqeoiEoqjUJs0rVPJSG6JixSRcufKhtreu+0PuLwgIAoKAIPDoCIRrbQihJUJUQgApLJcEUlQigajY3VE1BUWISk0Rk+sFAUFAEGi4CNRm3arl27hc5PIlJSXR20vfpiVLllTNXKnlTRvi13w+harL9agr7iO+nVMwbW06PNSFP1yKyqPCFmp7HxFe+bogIAgIAoJA40IgcoiKDzGlPnIh2MMa82HvD2tAqoUU+LzGB3jjEBZd8Bq+rqYLvW6PnZBY2xVs0Q6hfTUKsK3JmA3l2TW5n7422DvX5p7yHUFAEBAEGioC9egaaagQhKtdEUFUQBqgiCjiwFSl2o/H4yG32+2smLiIQFS8Xq95DcaQ1+Ph6/EHJAg/Xg+uiSK32yBE+GVtFllbxovX5yOf10v4O8rt5naYP/Yg3NqSo3CMCiEq4UBR7iEICAJNHQEhKmEbARFDVJgt8CLqUqTD5+G/XW4QFxeBzGDxZ4Lh8AOSUllZaX6iiIKL3FHq+yA6paWl/CchIYHi4uIoOiZaXV9LooL2KYIFIkTk9XqIvERR0VHcbvO+Tk0O9sy6IhRhG1q2GwV7n7p6rtxXEBAEBIHHgYAQlbChHhFExSQLWNt9PiYT2dnZdOvmLSYvIBY9e/Wk+PgEViusJAAExuvzUmlJKWVmZVLOvRwqKyultm3bUvsO7SkxIZEJTFZWFp08eZLuZd+jtNatafjw4ZSW1oqioqKqKh+BFlybEoK2giCBqIAYsWpjZAExeTHcUdxe60+gZ+gsIn29TbmpJjdpl1ko/i6HYaVCexTZsvZDjUegEJUaQyZfEAQEgQhGQIhK2DovooiKz6UW+pycHNq5cxetXbuW3Smt01vTd7/7XerYsSOrFayWWAZJZaWHic22bVtp/779dD/vPk2aNIlmzZpFHTp2oJLiEtq3dx998OEHdO3qNereozv98z//Mw0bNozi4+MV2Dq2Bfe1kwX+3OgT24IMclJZUcnkSrunYuNiKTYmVi3++J+dRBiuLnzogvBjfaY11sX6XMUnWFni7+jmsKqjflfjQGKzHfi+EJWwzTq5kSAgCDR+BISohK2PI4eosOvEyy9++/Zt+vvf/0HvvvsORUfHUJcunemXv/olDRw4sKoCYsCEuJMb12/Qe++/R2vWrKH7eXn07DPP0EsvvUwDBvansrJy2rxxE/36zV/T1avXqE/fPvS9f/onmj59OqWmphqEwhYb4xRHYldUyMfkJPdeLh05epTy8/MpJTWF+vTuQ+3bt6f4+LiqHWkhO/yuUGIMt5EpnARQVJiQ6M+NtnhZtYGLDPE7SpHSgcJBiYsmKhYypd1tNR6BoqjUGDL5giAgCEQwAkJUwtZ5kUNULIvmrVu36G9/+zsTFbhmOnfqTEvfXkr9BwxwjFFhonLjBr377ru0ceNGVmSeeeZZ+ta3vkUDBvSn8ooKOn3qFK1YvoIuXrpEffr0oaeffop69+5DcXGx5sKuU4D0As9uEZfKRNKxKErYUMoPAmc9lZV06dIl+t//z/+mrLt3qUWL5qz+TJkyhZAWzveykQ9OpdZeIre6N37hdrmN/7YoHKaSomJ4uC242udVGVJGSrYiKIo44XZRUW5yR1UPPgaxeejmeXhP3AcuNGDJMTY1dSUJUQnbpJUbCQKCQAQgIEQlbJ0UeUTFTRybAqLyu3ff5cW2U6dO9Jvf/Ib69+//0EVhgQgqAIjKO++8Q5s2beI4lGeeeYa+/Z3vsKKCzysqKqm4uIiKioooKTGJXT5x8XGme6Ya4j4ij8fLhMCaJYSFXqsOUEPKy8rp+IkT9MMf/pCyMjOpeYvm9NOf/JTmzJlDySnJSgGyDGiQiYrKSiMw2BIcbKgheKa30kMxsTFmLA6eqdxKLiYRcHXB3RQdE8X3B6lAO/AH74TvQrHBs8zna8kGopXhOsI98F1cA4Li8XopJjba2fUVbEgKUQmGkHwuCAgCjQkBISph682IJyqInejcubMiKgP6O+/0fUQ3btyk3/72N45EBUShpKSU8vLyqLKygmJiYik1JYUXdR1MizFXWVHB8SxFxUVUVlZGJSUlVF5ezspISkoKJSYmMsFBthAW+eLiYr7niRMn6L/+678o844iKoh/mTlzJiUlJ1N8XBwlJyebxAFEpLyijAoLiuhB/gOqqKig2JgYdnHFJ8RT82bNOCPJqoZwgHFJKRUUFFB5RTkHFyfEJ3AboR6VlpXx99BGld1UxkQoOTmJkpKSjcGklBSoJoUFhUzYcF/E0gAHvBt+qgQXs1wT4lgUohIiUHKZICAINAoEhKiErRsjmqjAlYPFFTEqwYjKzZs3+RonRcVT6aFz585zcO697Gxq174dLV68mNq3a2+kKKv05dzcHDp54iQdPHSIbt68wSQFRKJ5s+aU3iadg2+HDh1Gbdu2YYJw8OAh2r17F2VmZdGO7duptKyU4uLiacjgIdS+fTtWgBAH07t3b74/so8K8gvoyJEjdOzEcbp65QqVlZZRTEwMJSYlUo8ePWjkyFEcQ5OammKSBqgdR48epW3btlNWViZ1796dBgwYQHCRHTx4kB48eEAjRozg31+7do2uXL5CiUlJNG7cWJo2bTpFRbtZBQL5wfMOHTpEe/bsobt371LHDh1p1OhRKrA4IZ7IhwwmGzsJRlaEpIRtwsqNBAFBIEIQEKISto6KaKIC1w8UlbZt29Hv//B76te3r6qrYkml1SnCmZmZ9Nvf/pZWr15N9+/n0XPPPmu6frA479i+g97+zW/o+vUM6tmrF/30Jz+hwYMHU2xcHGcWZWRc56yhLVu20JUrV6i4qJiJAsgKromNjWVlB0rJ7NmzOXB19eo19PnnnzFRuH//PpMRl8tNKcnJTIDGjRvHxxaMGjWK1Q+4p9av30B79+6lixcuUH5BPj8Df/AeLVq0pMGDBtH4CRNozpzZlJaWpuJOvB5as3otffLJx3T+/AXq1LEj9ezZk27cvEGXL1/mey9YsIBJ0davttLWrVu5vU8seIK+973vUYuWLTj+Bbjl5ubSBx98QBs2bKB793Jo4sSJ9M1vfoMGDR7ELjEloliK4YVtKMqNBAFBQBBoRAgIUQlbZ0Y8UcFYgALy5ptv0gDEqBgpvzruQ8Wh+ujmrVscTLtjxw7Kzcmhp59+2iQqcJts3ryZfvWrX9G1jAzq07s3vf766zR69Gh2e4CUrF27jv7ylz/ThQsXqHXr1kxi0lunM/m4fuMGHT9+nPLzH9DgwUPoha89TyOGj2T14quvtjABOX36NGcbwdWD77Zr14769u3LQbU9evZk9WPlii9p/YYNdOvWTXYhIUi4U+dOVF5eQVevXuX7gJj069+PXvz612nOnLmUkBDPbVi2bDn98Y8f0cmTp9g11KpVK1ZoQEhwzdSp02jevHm0edMm+sc//kEP8vNp8uRJ9C//8i+cLRUbG8cF6dDmX//617R9+w5Wi5555mn6zre/w2ncIGTBxJOwjUy5kSAgCAgCkYyAEJWw9V5EExVk/WDhbtmqFT3z9NPUtWs3VjJ0GjPv/pm4uDiAdu3aNZSRkUFFRcV8vQ6mtROV3r160c9+9jMaP348RcfE0O1bt+h/fvc/9Nnnn1FcfDzNmD6dXn31VSYD+Dl16jR9/vnndPjwIV7wZ86aSV974QXq3LkLu4hOnz5D7/7uXbpz+w41a5ZKr7zyKo0fP46/37JlS24fFB2QLbhbEDuCGi9jxoyhbt26UVl5OZ09c4bVnF27dnHWDkjG66//grp07sxxJcuXr2BF5eSpU6yOdOrUkUaPHsPKChSczl26UJ8+vWnfvn304Ycf0fHjx/izl19+mZ566ilKTkmh8vIy2rt3H/3u3d/RsWNHWbF55ZVX6GsvfI3TqquU/Q/bEJQbPTICTnV97De1FwaszUP91AqqcqtQrqnNs/19J5zHTeh7hfOe4XxXuVdkISBEJWz9FdFEBa4fuD2gIKDeiQ741Ccla5SwwEJ1uH3rNpWVl7Hzwur68UdU4PbAWDt96jT97ncqtbldu/acMfSDH3yfVQ+QIhSQA9E4fPgwFRQUUu/evZho9O7Thxf/kydO0b/924+4+m3zFi3oJz/+Mc2ePYcJCX6gyPz5T3+mP/7xj1xbZcKECfSd73yH06QRGAsZI+9+HrttPjJUk65du9K//ehHNHXaVG4HiAoUlbNnz1J6eht22bz88ktcvC7KFcXxJdHR0fz5H/7wB1qzZi0//4knFtD3vvdPlN6mDQcHf/H5F/SnP33C6g0UJbRj8uTJjvVpwjYK5UahI+C0iDZEooI3qo/YpHCSilCJSqjXhd6rcmVjRECISth6NaKJCtKNkaWDhRqKgDaMSAvWPgpdFwRk5UFeHtc2QfZOMNfPz3/+cxo/YTz5vETnzp3lYnEb1m+g5OQUmjZ1Kr34jRe5aBuya+AeQhxKXt4D8ngqObsG1XJBnJASDLcPpydnZbGC8pOf/JSJTGJSAhOoI0eO0rvvvEN7du/hz7/9nW/Tc889x+nLnOpsxNygHstHH33EZKJZs2Y0b/58+va3v0Vt2rShFSu+pA8/+IDOXzjPrqXnn3+BnnxyEV+HdGUEzAIfxJ1AefnrX//KyhLiZJCFBLUlP7+Afv/739OXX35JFRXlrLRAOerVq1fYBpzc6DEhEA5FhSXKIASkMSgqwbpIiEowhORzO1EXn/kjjYmIJipaUUlNbUbz588zXTHWYmRQPEBOkHILtwnIQnFRUWCi0qs3vf6LX9C48eMoJiqaFZO//e1v9Nlnn1FmZhYTiKFDhnKMSbduXSktrTU/u3nz5pTaDMpOgjqVmVycpnzy1En68Y9/TMg8ata8OYEEzZszlzN5kE68d89e+tUbb9CZ06fZ1QNSM2PGDEpITDDPA0Iv49nLly+jX7/xa1aRRowcwS4qZAMhRuWTP31C58+doyFDhtL3vv89mjJ5MhMpLC4oQgfShbov69atpz/84fd0/Nhx6tGzBxOV+fPns4vq7bffZpxAwr71rddo8eKn2F1lYlrfC9EjDW/5siAgCAgCjwkBUVTCBnxEExUoKlg3u3XvTv/nP/+T+g3o51xC3+ulGxk36J1336Hdu3ezG8Va8M10/fzyV3T12lV2ufz7v/87jR03jmuYoB4Ksmm2bv2Ktm3bxq4aBIrAxQSCktYqjRf8vn370fARw6lnjx4UFa1OXkb7cNjhT378E7rBRKUZ/eL112kuiEpiIpVVlLGS8stf/pLOnTvHqco//elPOT4GgbDWLKbsu9msdvzy//0lpxIPHTqUfvGLX3CsybJly+iTTz7hewwbNpx+8IMf0KRJEyk+Ll41ArE7HnVAIuq6fPzxJ7Rh/XqKT0ig5557lrN/tmz5iv7nf37HAbVwPyEjaezYsVxLxYyiDbajDtvQlBsJAoKAIBDBCAhRCVvnRTRRgaICQoB0XFVCvz8Hktp/oKogq+b9Dz6glV+upHv37vFZP9WCaTVR6d2Hfv766xzwCrcOVBHUWrmTlUnHjx2jY8eO09EjRygr+y6VFBezWhMbH0et09I4NmThwoWcSYNCbsi8ATEA+YCiktqsmVJU5ipFBanDVqLSq1dv+sUvVMYRiApcVvpAQCtRQcrykKFDakRUuMw/ufiARriP4Ea6m32XpkydSj/76c/o8y8+p3/8/e98pMCrr7xCX3/x65xy7UapWpEuwzbp5EaCgCDQBBAQohK2To54ooLD9pDh8pvf/pb69+vvfNaP10vXr1+n999/n9atW0dY8KsoKqWltGXzFk5PRhpw71696eev/5xVDbhYUF4fsSdw0xQXlVBJSTHXRUFtlps3btKJkyfo6NFjXCK/bdu2tHDRQo4xgUsGKb7Hj4Oo/IQPUwRRASmYN89QVMrKOBMHz0YsS/du3elH//ZvnNWjT25mN5LLRXfuZLJysvStt5hAoYgbCJBy/fhRVPTpz4a8g4yhkqJi2r5jB33wwftclA6F51544QVas3o1nT9/nt/h1SWv0rz587iYndRNCdt8kxsJAoJAU0FAiErYejqiiQrSk7kybecuXMytb79+iqgY7gl9uB8UlQwmKu9xITMoCs887aCoMFG5xoGliP2AOuKOiqKsO5kc24I04Fat0qhNm3QmESj2BjUl+949jl9ZsWIFFeTn06TJkzm+Y/z4CVTpqaBjR4/Tj370f/NzEcfy4x//hGNqkNEDtebU6VP01ltLad++vdSqZStOGX7+hec5sBZEB4oKFJSzZ8/RRx9+RKtWruR04blz5/LBiunp6bR8+XL605/+xK6f4cOV6wftN10/2g/lI74nAnM//fRTzjZClVrExiCVGllL06dNo29/+9s0fMQIisZZRNYfUVbCNvnkRoKAINCIERCiErbObRxEpUsX+s1vfkv9+vV9WOvDOH0YSCmikkHv/+E9Wr9hfbVDCUsNReWXcP1cvcoF3+D6mTBxPJeUR2l6FG5DjRO4dBBg2qdvbyZJIEMoCPfZZ59zWu+1q9do2PBh9L/+1z/RrNmzqLysjE6cPEk/++lP6dat25yF86//+q80/4l51Cy1GX//5s1b9PEnH9MnH39CiQkJnA4MtxQIUwziVIj4jKGt27ZxmjSKznXo0IHJCGq2gIwsW76c/gyicv4cDR82wiAqE0xVxnTd4FRnr5ezf1ClF+cf4VwfHKwI4oWMpa997QVWhFByX9SUsM01uZEgIAg0JQSEqISttyOLqHABN+JYD5yerBQVN3Xt2oWzVfqxomKJUTHqS+DU3+sZGfQHEJV16/gcHn+uH5TH72PEqICowO2DQmsf//GPdOzYMerWrTun/SIrBwcMIiA241oGLftiGW3ctJEKCwtp/Ljx9Mqrr3B6M4gOiMV//Md/cGE4xJ3g+9OmT6OuXZAxlEZwX6Gs/Ru/eoPdSVBIpk2bRjNmTKeOHTtyfROUwt+4cRMTJigiKNX/rz/8IXXv3o1PcYbr50+ffMKuGx1MO3GiM1HB6MHBhPv376ffvvMbOnb0GBUWFvG79O3bh2unTJw4iRUda6p32Ead3EgQEAQEgcaOgBCVsPVwRBEVfms7UXG7qVvXrkxUkC7sVD2VFZWM63we0IZ160MiKkhPHjt2DBdJu3Ytgz777B98aOGDvAdc/n7goIFcWC0mJpoLyeEgQRRJ69qtK6c+L1i4kGNnEISL37/xxhu0c+cuKijIZzcLglQHDBhI06dPo8FDBrPLCS4dZPUghgaBtlBv2rRpy0QF5OzKVXVIYY///3BBxJCArMAF5KnwcCDsxx/jrB9NVL5f1fVjq6OBdGU88y9//jOX1EeAMdSUaVOn0fe+/30mfbGxMc6nUYdt+MmNBAFBQBBopAgIUQlbx0YWUTEWWyzacLW89957DAQUlTfe+DWnFTspACj6hu8gywUpuTm5ubRo0SIuZjZgQH8+1Xjb1m1MdqCoIM345z//mTqUMDaOq9+eOH6CNm7cwCoEMoigasTHJ7C7BHExcAOhngrSeXHY35DBgzngFQXbEHiLGBLULzlz5jRnAiHmBCccv/TSS3xgIFKgUWJ/+Yrl/Axd6h+EQh0YSFx9FwRiypSpNHPmDE6NRrAv0o5BcOA+gnoDRQUxMlViVAzs+OwjVH7zEeXl5XFK8tKlSzk+BUTlxRe/wW3C6c7WejRhG3FyI0FAEBAEmgICQlTC1suRQVR4XVV+HCzY2feyaffuPZypg08QoPrd736X3SQcU2EoL7wkG/VOUDUWLpxDhw7Rg/wHNHrkKHbfdOzUkdNxz549Q6tXrebMHATnPvPcs9S5UyeVIhzlJtRauX79Bh05cpgP/rt7N4vKysqZsKAgGtQV1DXp378fF0tDpVxVINdFFZUVlHknk7Zv30779x9gggByg2ydWbNn85k+eI+K8goO2oU6g0wh1DMBgUmIj6ek5CR+vzFjxnKwbEpKsioq53YxUTl08BBt2ryJSVSv3r1ZGQEJM2ugGLBwpV51TiOVlZfSkcNH6D//8//QxYsXWZn6/g++TzNnzKQUFHkz8BPCErb5JjcSBASBpoKAEJWw9XREEBUsqlwDxFhsURIeKcJFhQgCdROCYdu0a0Mx0TGq7oi+EAut18fZOqhOW5BfwDEkKLsPdQKBrRhLcA0h/Tg3J5fJR0x0tBl/EhUdxffE80FWkBUDV0xJaQm7YfA9KCsgDrgfsoGiY1SxNzyb67q4iUvlI4AVriOc/4N3aN68GacC4xwea4YSFJ6sTFTQLWbFBu4nVKlFdk6L5s1ZRYEig8ZzQC8H2xbT/Qd5VFZaal4HkmKeJm13/QCPggLauWsnvfnrtziIGNk+IHyDBg/iZ3D9FutkC+VMmbANTbmRICAICAIRjIAQlbB1XkQQFbXqq/gUuGEQkwHWAkJh/riIXSpQP3gR198xsn+8Xg8Tlih3FF9T5UcTIbfK4oFCgR9cxws9/mkvHW9P07V8DlIEkqJ1IE7xtX0fsStQWnD/mJhYJjwIqo1CMLCLWF3Be+B3uBbXRcdEcdsQ4MvxI5YqbB6fl/+FNuMafAcEx4moeCpxjwrKyLhG//j7P+gfn31GBYUF9H/987/Q17/xdY7BMfHTQOlJJ+nJYZt8ciNBQBBoxAgIUQlb50YOUbG8snIDKbeKuY6q4AsmMBZBxVQE7N+BisJkxMgSUi4i/BsKhXF/3AjpvFzRVakXTj+4F75vEhuD+Ohr9fdwDTJ0dEyLVlFYsWF55OE76fapFGiV7aTUE8W87G3hs3xYejI+0/fSKojRdKhQODMIFWnPnD5DX3zxBV29eoW6dOnCadMTJ03kWJVqRCVsQ05uJAgIAoJAE0CgKRCVetrARhZRsZ4zYy3qhjGPBRquCpMdBJgImkhYiIE+tA/38FlJDLiK4hDOizd/biE2RluqtMMMZIVaA3eQii1h0uG1kA5L8+EqAhlh15GdH1kngNNrGmf7mG4by/dPnTpFa9eso0OHD1HmnTtMWtLTW9O8efPoueee50MWY2Jiqt5VXD5NwKrKKwoCgoAg0DARiByiYicpBiHQQgrYRBWigs+dFnjrfWx9ogkJEw+tzFivtxOEUAmE5TqrOlONqFhIlg56Nd/JShYCERX9LD94IUX6k48/pp27dnGcTevWrTmDaPGTiznlOikpqYpSZSor4vJpmDNYWiUICAKCQCNHIDKJikOnaPdItY/sxCQAUdGLMnOCUEhIKNc4ESb9O1Z2HM77M1Qcvswa2xLK8+zX2P59+tQZLhqHUvvIaELtmZEjR1LPXj35EEXE8MiPICAICAKCgCDQUBBoNETFL6C1ICp8r9qQglBcMtZ76+udlBq778/J/eL0vCBEJT+/gLLv3uWMH7h4UH0W9VhQqh8uL055tr68PyUlkP9VXEUNZX5LOwQBQUAQiHgEIoeoRBrU/khLfbtQrM+ztEnXl8GvONMIado+r4qJCeVHiEooKMk1goAgIAgIAo+IgBCVRwTQ79dtRKWKa8pOHuqSvNif5S9KO5hLzP6iTkRFKyn2eBp7cG9dYF7T9tdFG+SegoAgIAgIAmFHQIhK2CH1c8Om4A7x556qSyKm4Raif75PNgAAIABJREFUUl8jWZ4jCAgCgoBCQNKTZSREHAJCVCKuy6TBgoAgIAjUCoFgWbC1uqnzl0RRCSOYcitBQBAQBAQBQaBJICBEpUl0s7ykICAICAKCgCAQmQjUY+VdUVQic4hIqwUBQUAQEAQEgSaBgBCVJtHN8pKCgCAgCAgCgkBkIiBEJTL7TVotCAgCgoAgIAg8PgSsVdPruBVCVOoYYLm9ICAICAKCgCAgCNQeASEqtcdOvikICAKCgCAgCAgCdYyAEJU6BlhuLwgIAoKAICAICAK1R0CISu2xk28KAoKAICAICAKCQB0jIESljgGW2wsCgoAgIAgIAoJA7REQolJ77OSbgoAgIAgIAoKAIFDHCLjcLrcvKSmJlr61lJYsWUJUHwfI1fFLye0FAUFAEBAEBAFBoHEgEBpRqcdSuY0DVnkLQUAQEAQEAUFAEAgHAkxUEhMTaenSt1lRcdkVlXo8eCgcLyT3EAQEAUFAEBAEBIHGg8BDomK4flzVmIrtZcU11Hh6X95EEBAEBAFBQBB4nAiAU9gFETvtcLlcvqTEhzEqQlQeZ4/JswUBQUAQEAQEgSaEQLBS/D4il52oVPf9VAWM7ymqShMaRfKqgoAgIAgIAoLAY0IARMWMUdFZP8HagoTmYNfI54KAICAICAKCgCAgCISIgM/nx/8DzlFjosKKilCVELGXywQBQUAQEAQEAUEgEAI+H+H/lMPGxi+ciEqQmBZRU2S4CQKCgCAgCAgCgkDYEGCaYpAPpYM8JCv4ryqKyqtLlpBf+cVoEoJtRU8JW//IjQQBQUAQEAQEgSaNgLeK2weM5SHLcNfK9SNEpUkPKHl5QUAQEAQEAUEgHAiwiGKLTQFpqSKIgHNEuaNUwbe3lhIUlWA/kvUTDCH5XBAQBAQBQUAQEASCIuBzKKEC4mKJg2XXjyIqqKPyliIqFnZj1lQRX09QvOUCQUAQEAQEAUFAEKglAgGq4FchKo6HEgYrqV/LNsnXBAFBQBAQBAQBQaCJIxCo4JtRtdZ0/bxlltBv4qDJ6wsCgoAgIAgIAoLAY0FAJ/SYHh1rwTcQlddeW1Ilh5nzmg0f0kOXkUvKqDyW7pOHCgKCgCAgCAgCjQwBm8vHKfPYTE9+8823aMmSV20IOJESm04jxd8a2aiR1xEEBAFBQBAQBOoYATMe1hZfYimowp4fZAFxZdqERPr1m2/SK6+8TF6Pl1OYWXbh/6n/U6QHaUNuriDn83qNt5BI2zruTrm9ICAICAKCgCDQKBCwemeYVdjSk/XnZsU28BAQlYSEBHrzzTfpm9/8Jnk8HgYDhMSsuWK5kdvt5s+9Xm/Q4nCNAlV5CUFAEBAEBAFBQBAICwI69kRzCc05FO+oLnxERUdVJSovv/wyExCTqLCGgiAVracQoUoc/vVQUQlL2+UmgoAgIAgIAoKAINDYETCKxipS4iKv18N1U/z5ZkBoTEXlrbcQo1I1mJZlmSrSjNNJQOL6aezjSt5PEBAEBAFBQBCoCwRCCXM1Y1TefOtNeu2118gNl4/lpyo1sZSRM/mJEJW66Dy5pyAgCAgCgoAg0HgRUGf6hE5UEhMJWT9MVNxCPBrvwJA3EwQEAUFAEBAEIgsBMz3ZrKMSCr2JrHeU1goCgoAgIAgIAoJAhCJgEhUcSrgEBd/qS1FxCneJUBCl2YKAICAICAKCgCBQAwQClc633UaISg1wlUsFAUFAEBAEBAFBoH4ReDxERdSU+u1leZogIAgIAoKAIBChCFQnKhKjEqFdKc0WBAQBQUAQEAQaHwJCVBpfn8obCQKCgCAgCAgCjQYBISqNpivlRQQBQUAQEAQEgcaHgBCVxten8kaCgCAgCAgCgkCjQUCISqPpSnkRQUAQEAQEAUGg8SEgRKXx9am8kSAgCAgCgoAg0GgQEKLSaLpSXkQQEAQEAUFAEGh8CAhRaXx9Km8kCAgCgoAgIAg0GgSEqDSarpQXEQQEAUFAEBAEGh8CQlQaX5/KGwkCgoAgIAgIAo0GASEqjaYr5UUEAUFAEBAEBIHGh4Aryh3lS0xIpLeWvkVLlrxGUkG/8XWyvJEgIAgIAoKAIBCpCLii3NG+xMREWvoWiMoSIn30cl2/kRxMWNcIy/0FAUFAI1Bfdk0QFwQEgbAjIEQl7JDKDQUBQaDBISBEpcF1iTRIEAgVASEqoSIl1wkCgkDkIiBEJXL7Tlre5BEQotLkh4AAIAg0AQSEqDSBTpZXbKwINCyiYjcmtYljcTJITvcJx7PqalSE+g519fyGfN+G3G8NGbeG0LbH2XdCVBrCCJA2CAK1QqBpEpWGTgQaevtqNdTC9KXHudiF6RWa7G0e57gWotJkh528eOQj0HCJSrjUFPSR/V6PY7HDM0N9p3C1z0Xk89VfIpc5HWryrvpL+p2DYRQubALN3dq0P/JtQd2/QX30nb+3EKJS9/0rTxAE6giBhkNUHtWIWb+Pxc7+byuAts985CMXuUj/7Yh1qAup05fxXfviF2hBDtT2GgwEH4iK10dut3HDYCSgBvf2e6l+V28NbxYqvrUZJ1b8g2Hgrx3697of9X38kZpAC2Morkh/49WJeAd7J3wnlIW6pu3SbfT3/GDPtGIYynAJ9fravkcobZBrBAFBoN4ReHxEJdir+ojUQuulnHs5lJ2dTXkP8sjr9VJSUjK1atWS2qS3oeiYGIqKcpPH4yGXy00+n4/cLhe53C4qLSul3Jxc/m5hYRG53W5q2aIFpaW3ptSUFIqOjiZd4Y7XG5YfXOSprKSysjLKycmlwsJCio+Pp/T01pScnFyl1bgcz827f5/u3r1LufdzyeVycfvSWrWitNatKS42lhcJTYLwufUH98BnpSWldOvWTSoqLKKo6Ghq3rwZtUpLo9iYGCZR+B6ui4qK4naWlJTQ/Vz13OKSEn4XjUlySrJxPTFeUW43FRQW0t2sLCotLeVVy+fzstqCp+P++B/unZaWRi1atKDoqGh+N/ze7Y6i0tISyr6bTXez71JZWTnFxMRQy5YtKL11OiUlJ/F3reuWxhPPz88v4D7Izcmh8opyQoHBtNZp1DqtNSUkJnC/eH2K2Xg9qv/wroUFhZR9L5tyc3PJ6/Fyn6J9rVqlUQq/o1utv+jvADtp4OWEP96vsqKSbty4wf2NNjVr3pwxR5tMBcxOUhyepbFUnEDhGdJPqIuvlRA5kCO8y507mVRcVERuox9TU1PUe9THj5Uc6PYZBBFkGeP1zp07jDPqNmHuou/9/aC/8L9QsPQacx738ni9PB8xVvH7tLRW1KpVqyrjsz7gkGcIAoJA+BBoGETFQUHweLxUVFxE1zMyaPfu3XTmzBlelCsrPQQD3K17dxo7Zgz179+f2rZrywuZ26UWPCxMD/If0NkzZ+nw4cN05sxZys3NoaioaOrUqSMNHjyYxowZQx07dWQSEuVWiz8bOo+Hbly/QadOn6bjx4/TvXvZ1L59e5o3dx4NHDRI8RpDqQCJuXrlKh04eJBOnjxBmZmZvPinNkuhXj170ejRo2nAgAFsKEE0XG69sD50A+G5pWVldOb0GVq1ehXdunmL4uPjaOjQoTR9+gzq0KE9LzbWxTwvL49OHD9BBw8eogsXzlPegwcUHxdPXbt0oWHDh9HwEcOpS5cu6jtQVFwuunz5Ci1fvowyMjIUifH52KgzCTIWexCxefPm0YgRwykxKYm8Hg95vB4qKCigkydP0r69+/l5RUXFFBsbQ127dqWhQ4dxWzt27EDxCcbCYxADkC5gefzEcfr/2LsOwKqKbbtveoNUSCAJVXoTlabSREDpKF16t4GACiiC7z19CtJtKE1BbPQqvSNFqdJ7CYE0SO/J/X+tc87NTQyQxiPg3P95YHLPOTNr5sxes3aZI0eOyJUrV0mU3N2LSrly5eSJJ5+U2rUfJ76GoU9LTZPU1FQJCQmRQ4cOycE/D8rVa1c1IiomKVuurNSoUYPPDAwMFGdnZw3b7JiBPq9AlmD4MD8MokiyF5/AMVuydKncvHFDGjVqJA2ebkCCaGdFvCyv253UE5Jc43/Am6yIyl2u4X2zGvg7qWn3uA+IwJIlS+TUqVNSpEgReaHlC1KzVs0MA51bhcfodE6vy0K4QE7I12xMfDevXQuShT8slKjISKlYoaK88MILfP8sxD2LCqL9pyaNavPzzose3nljDoBE79u3V9av30Ay3qRJU3m24TPi5pp5k1FwS6i6k0JAIXC/ESgcRMWql9z9ms1UQA4dPiSLf/1Vtm/bru14fXwkzaztmLA4VShfQbp26yodOnSQokWLcjWDmwO7/h3bd8iyZcto7JKTk8XR0ZH3haEEcejYsaO0atVKKleuLK6urpKalsZFFMRj85YtsnHjBhKctLRUqVa1mowcNVLatm1rIUNxcXHy559/yuLFi2XXrt0SHx9PFQRGFsoPFAeQqG7dunFR9vDwpDXjgmqlqsAAX75yRRb9sEgWLlxAMoa2tmrVWl5//XWSBhIck+gGPFR27tghS5culQMHDvB39naa+gEjX6JkCenY8SXp3qOb+Jf05+4az923f7988P44+ePPP2jIsKvFB2qJYQS8vbxk2LDh0qzZc1RV0M7g4Buyc9dOWbpkiRw+fJj9AuFLTkmiGhEYWIrkpl27tlK5chWxs7djW+Pj4on9smXL5fe9v0tYaKg4ODhS+UlITCCu5cqWk27du3EsgA+UMRCrc2fPytq1a2XN2jVy+eJlcXZ1ESdHR44jcC5WrJi0bNlSOnXqRIyh/vztY23Y9H+TjOL/zWY+JzY2Ro4cOSofffSRnD51Snr26iUDBvaX8uXLa8qcoUborkT8zNjhZzWwdyQqesMMIkzDa9U26+s4DncjKladzErMYqJj5J1335GNGzeS+I0ZM4bjklXpyi5Q6i56FAle9p8sV1l9TcM3nYqopkyZ5cSJEzJ06FASw2eeeUZGjBghNWvW4pgbnCSDnFg/0YqoZCFrBnZ4DjE1i8THJ8jPP/8kU6ZM4TsxcOBAHg0CZUV9FAIKgYcTgQdHVO7gR8buKzUtlQby22+/kQULFnDRa9y4MRUKLLznzp2Xffv3ydkzZ6RRo8YyZsxo7rDt4WYxm2X37t0yZ85c2b59G40+1BPs4EF2Dh46SKUE0nOfPn1oKKEMYPf/+++/83mHDx8REBEQDrieYAzffvttad++PZ+fnJzCXf5XX30lPy5axGfUr1+fO30s0hcuXJCDhw7JjRvB0uy5ZvLOu+9KrVo1uZDCrYPF27BHUEe2bd3Ge+35fY+kpKbwfm3atJVRo0ZKnafqWGZWdHS07Nm9R2Z+PlOOHTtGglWvXn0pXrw4FSP87NKlS1RxsEC3b9+B6k5aajqJ178+/JecPHVSHq/1uFSvUV0cHB3pFuKG1WSiawsEAP3Fv+Gm2bJpi3w7+1s5cOAP8fB0l8aNGpMoAJ99+/aR2MGw9+vfT156+WXx9PRg/4KuBcm8efPlu/nzJTk1WZ6o/QQNE+T+oGvXOA7nz52Xhg0bElsoQXCZJSclya+//Cpffv2lXL58WapUriJPP/OMFC9WjMrOrt275c8//5AA/wB5881h8vLLL9Od97cPumW1y7cYz3QQYc2lmJScxLkwevQYOX7iuPTv11+GvjpUypUtyznnYO/A28KFgP+DSxA4YQ7Y2GIMM1jFHYmKToysBQeLqkPRwMz7W9QDw+Ka8Vy4w7RnaF467S64HoRcu49GfKKiouWt4cNlw8aNEhAQIOPef19atW6luTf1S9FnTXHU0MJ1VJms5qM1UTL6hGtA7KhK4Xk2Jl5Hl5sBgdX7jP6kpKRQjTNI5KmTJ+X1N17nu1G3Xl0Z9/44efLJJy1kkGOCtvE5WoPxt6EmGkqmNW/Cd9E2qKwGHgkJifLrr7/KpEkTOV8GDR4sb7z+hhQr5vNwrtCq1QoBhYAUOqJiSP+nz5yWd955V3bu2iHNmjWT1159TerUrSsuzs6MKVi0aJHMnDlT/Pz8+LvuPbozJgRxEHPnzpU5c+dKYkKCtGjZUoYMGSIVKjwmiQlJsn3bNpkydYpcvHhRnn76aXnjjTek2fPNBCRg6ZKlMm3aNKoJcEvAvXLmzGkpXaaMjH73XSo3tna2kpyYLKdOn5YPPhhH1aBNmzbySo9XpEqVKmLvYM/2gfDMnz9f/EqUkFEjR/LaIkWL0g1jGBsYw7/+Oi7ffDNLNmzYSOOYlJQoKckp0qhxI3n3nXelfoP6tFX4HVwnIEaTJ0+WgIBA6du3j7Rt01aK+/qy37+t/01+/uUXqhfPPvusjB0zVkqXKU1DuGzJUvn4vx+znwMHDqLSg35qO31NPcAfuMIcHDUDffPGTfnyyy9Jorx9vKVb127Ss2dPKlv47o8//iRz586Rq1evUjV67bXXpHbt2sQALpupU6eSfDVp0kT69ukrTzzxBA0nSOjKVStlymeTGRfy1vC3pF379hy/mOgo7obnzJlDZaBXr97SsWMHfg+KyqqVq2TyZ5MlJDREunfrLkNffVWqV6uW+VU23HO0ftpWGyQVhgvuOvQZrjLgcvLkCZkw4UM5c+aM9O7dW4YMGUyVzfhgLOIS4jmXoOZgMJydnehKAOmCwoRPclIysYV5xb1dXF00NcMskpCYSGKHHT5cZu5F3Ul00A7cPyY2Rlf9nEg+YXzjYmMlJSVVHBwc+AfPRpwQ5gEwdHZxkSJubvwdCIs1UQHxfm/sWE1RsdPcmlC/4uLjJTLyNu8BkoUxBCGFwgYlTCMfWswU/h9tgwIJ3IAfZgqILdQ4KJgg1IaUwWB0PCc1VWLjYumOTE1O4VzC9+B6BLZQO5s0biJj33uPhBmvA3FA++JiOT74N35mZ2fLtuEPcbaKfUEfENeFtkVFRdF9i/EAuQRR+eTTT9hezMmhQ4aIl5eXWu4VAgqBhxSBwkNUrOIJsBs7fvw4icqe33dL586dZeTIkVKjOnzuNnL7diRdH2PHjhFPTy8ZNHCg9O7Tm8YMBgeGDL+HYcRuqsULLRk8qxn7KyQjK1asEEcHR3n9jTdo8GEcdu/aLTt27JSGDZ+lMf788y9k9+5d4u8fQNWmQ8cOXNxBpkJCQkkMoMRUq1aVio6HhweNBgJAFyxYKNOnTeMiCzIEg4vYGuxejZ054jCWLF4is+fMEVdXF2na9DnZvWuXnDt/jov5qLdHSZ06dbjgpqakyO7de2TSxIly4I8DdFu9/fY7WiyKrY2kJCfLpUuX5fiJv4gPglybN39eW6BNIt9+8y2JA7779qi3iSmDamG0bGxofA2jiz5C2fl9z+8yY/oM2bhpI0nd6DFjKNvbw6jZ2MiJ4ydlxozpsmrVKilRooQMGTqERAbBssAZ7YUr6/HHa8njtWuLp44PjMuaNWtkzJix4ujoQGkeigyUofCwMJk0cZJ8//33VH2gmrRo0ZwECs/ctWsX3RoYZ5AtYFujeo3Mrx+9DZr7AcG5cPFAOcG1uM5wI9aqVUu8vbxl8pTJcvbsOendqxcVlSpVq9Cwg3icOXtW9u/bJ6dPn2bwMoyuh6enVKlSmSpaxYoVGSeD+y74fgHjqmCA27RrIz7ePjT6e3/fK7+tX0+X5WOPVZDu3buLt48XjevZM2fp4sLzoTC0avWiREVHy4rlyxmnU7VqNSpc+/fvk1OnTkt8fBznFNSpJk0aS+UqlemKA7F56623GJuB2J33oai0epHjjfiV8+cuyN69e6lGgVRhTjg6OknlSpWkQYMGvI+7u7slpgTECn2Ge/H06TMC5Q+vqJOzE1129Rs0oFvSCDDHvAeZwne3bdtKvEFaQIYrVarM9+njjz/ifTCHQFRqP/44iQ4CgM+ePcv2HT16jOQDTAmk7amnnpJnn3lWypUvR3KmkaEUBtjv27dfdu3aKUFB1zl//Xz9GH927tw5mTtvHtcKbFIGDx5Md6/6KAQUAg8nAoWDqFjJxyAM2Mlh4fr4v/+V1WtW0d0Aeb5Bg/piZ2fPBfznn3+Wf//73+Lv7y//+te/6BqC0du6datMnzFDDuzfL127dpP33hsrZcqWtQRHYvcFIzl58hS5fPkSFzEYOyxkiItBdkpgqQBmC40b9wEX3ZIl/WXM2DHc2WsBu9ihpjDbBvIzgl9hwGAUYBzhsgAx+Oabb0gkxo0bJ23athEHe0caApADyNVbtmyWadOnyYnjJ6RD+w7ycqdOMnXqFAYAN23SlHExWKjxiY6B8VrBeAos9pDOX+nZU4KDg+XSpYvcXXp6eVH2BzlBm1zd3PS4j3SZNPEz+frrr2gwBg8eQiMRdD1IkhKTGNcC9w2CSLHggxDcvhUpS5YsZh9AOtq1aydjx74n5cqXZXAkdupRkVHy7bffyuzZs2n8+/btSyzxfBgpKCAI2IUsD6MINQGsC+P3yy+/yIQPP5QAf38ZOWKktG3XlmMQFh5OBQdqFFxMgwYMlE6dO7FvCO4FAYUL63ZkpAwYMIAktWzZsn8jKpq/QyQ6Klq2b98uc+fNpbqDNsGo2tvZS/nyj5HMYowROwFX4KtDX6XRBsZQy3788UfZsmULjadB5ECk0ccWLVqQmIGkIl7pvx//V6AEYi6+++67UqFCBbpAoPB9/vnnEnErgi6w8R+Ml2rVqxPrDRs2yIwZM0gKoOi8+eabnPsf/ecjuXjpolSpUlUQO/TnwT8lPDyC7ioYYIxz29ZtqSiVKOHHuJ8Rb42Q3377jW4xzLnnmz9PMooA6Llz58nWrVskKChIixWyt5WU5FQp6l5UnnziSXmlZw8GjEMBwVgiUHvRDz/I+g3rmX0FBcnRyZFkBNlWderWkX59+0njJo3Fzc2V8wgB1+jrpk2b5GYIAsvNJHGPlX9MHnvsMRJF3Lthw0ZUfKC+4V1CLNq8ufNIOm7eDOFzsCTgnlDy8C70G9CPrl8E2d8Kj2Dc06xZs+SPPw7wPYR65VHUgwHE+GA8oGyBPA8dMlS8vJWi8nCaKNVqhYAUEtePLv9qPhGkqKZzJ758+XLurEEuGjdpIk83aECpGztLxJ8gHgOxHCAjvn6+3AVD9v36q68ZvDdg4AD5z3/+wx2oEReA3SUM0OjRo+WPP/7grnzY8OFSDUGZ9nY0sPCrB18PlvfHjePiTqIyRicqkOzTtYwZ7e80PavmAo1AeHi4nDh5gsG8cHG0adNaXn31ValQsYKWYWNj4mJ75vRpmTN7jixfsZyLOHZ+2OGPHTuWO0soKtZEBQs/Am6nT5/OvsB9AywO/vknjQLkchcXZ+5esZNu2rQpJXp8F66Hjz/6SL777juxt3eQGtURn+JAkgN3BGR8xNcg6wUqAZQNxOfMmzufbilg1vOVnlR4QB60VHATjTAIBwwtYna6dOlKNxdcDzBmIChGKjWymSD7h0eEk5ht27Zdzp07K82bN6frp2z5slRNkIkDVeuHHxZyV45g3eefb0Yygnmwbt1vNE4wcv3792dWB9Qyy0d3XYAwIlD4yOEj8s2sWcyoQpth7ED+gM2ZM2ep3MH9g8yrIYMH06jhWchS+n7B91Qo0A/EGkHhwfwAkUR8Du738sudZNCggRIbFydzZs+WJUuWSqlSgfLhv/5FYg3DPm3qdPnq668kKTGRYw0y93Knl8XTw4sq17x583ivYcOGSZ8+vWX/vv3y4YcfyrHjx6SYT3GpVKkiVRWkc4O8ILgZZLhB/QZUpZ555mmOBVRHEBWQdxBZuD2vBwXJ0uXLSCCgxjzd4GkqKFA69u8/wPcI6d8vvPgCXajVq2t9/GHhD/LTTz9JUHCQtGndVp54ojbb+Ocff8rGTZtImFq3akUCj6Dt0NAwEkwEsoLUIebomaef4XOuBQXJgf0HmBmHjQiIB4gUCN75Cxfkh4UL6SoF2YebED8HWf7r2F+yY8cOup/wLvfq3Us8PTz5/n766ady6PBhvlNGUDzGHO89VCOQa5Aw9AlBvMr1o8ydQuDhRcBka2NrxqINib9fv345r/9QEH22ijA00ooNvz52XliMV69ew509duFe3t5URkLDwqhcNG3SRHr16iUNGzWk0oFrFi78QebNnSsnT52iT3zSpEmZMh9QW+XM6TMyfPhwGhsEnA4fPowuFgYpok5Jerpcv36di/0WnaiA2EBRgZJAFz4C+SDsm82U3bGor1+/ntdh4Yds3fDZhlQDsGMt4l5EUlPS2JaoqEhZtOhHxmFgEe7Vs6d06dqFsQd4zu49e6RJo8YWooK+Iu7l++8XyNdff01VALI7MhygUmAHGhF+S4KCrhEXEA4E08Jdg90zAlQ/+vhj+fHHRYwBwG4c8R94HtqKe6MfMOIgTCAreAbaN2vWNwxyxNyAIQSpMTJYYNCgTk2dOk1OnDgu7du1l3dHv8tYHaO2CUgNjPia1WtkzZrVcunyJbpQ8AHmcKe1erEVXQpaaIRZboXfkq3btrG9yDRiTIR7Ue6wIyOjaOy7d+/GwF8YZcZW6CRXF1KovuCzYsVKmTF9Onf7iPcZOGig1K9Xn6QIP4NiBMUErg7EM4AA+pcsSXcWFDvghefA2CE1GlMW5BCuhW3btknNGjUYDIy4lp07d8p///tfsm2Q5xYtWzA9GzE369at49yBMoEsJ1wDQgjSsnr1ahpnKCJ41vYdO2TC+PFy4uRJqiVQWRB0DDUMtUjQZiiKGMOBAzS3J0grMmkMReW999/nvUC0oTAeOniQcVcfjBtHd5WLiysDW7/84gtZtXoV44MGDhggffv2ozKJkgAgCugvyEP5x8ozngTu0S+/+JJkCeQW8xHB2/v376faBwwQvD5gwEAqS26urnLh4gXOd5BPzAeQ6A8++IDXrVi5UmZOn8HvINbrjTffpCKEdxEp41Acgc+TTz0lw4cNo2KycsVKeW/se+Lg5Cjt27aTvv36Mlge8xHuxu+//0527NxBV9brr71Od56Xp1JUCmI1mt5wAAAgAElEQVTJVvdQCDwIBEy2JhszamZgV0yicqdsRKN1d6urkI8eMKdATwnF30i3PHjwkKxcuVI2b97EeAFfX1/69cNvRXAHWaliJenU6WV56aWXaEBBVDQCMJv1JGB4Pvvss0y7bRCDEydO0ihgZw6Xy/C3hnNx5S5cD3JE1oo1UUE8DAJiEc/BdupFyUA+4JZB+i5kfOzk4D6CiwqZPggyhcFAzQjWerGxoYGbOfNz7tqfa9qUi3PlypXobgAZQNYSyMaoUXqMitnMFGbI4zAMMJ6IkWjRoiXjP1AALSwsVDZt3CSbNm+iiwKuGhi4UqVL08D89tt6+X3PHklMTJJSpUrJYxUeE/eiRalcIaUVOCPeoGuXriQ5+Pf87+bTtQMDgDgSZCEVLVKUqhCDLVNTSFSg8kD9aNe2nbw/7n2pVLmSZR4BU7QX6hhSjkE+oTrhnpUrVZbmLVtIh/btpVTpUnTHAFsoHWtWr2bsBvBEETYEUWN8b9++zbik1q1bsY9QAIxUa84h1O/QP7gX2gYXAa7t0aMHCQeeBXKDcUIKO4gWCCZ+N3DgAM4lKBATP51IlxjimKC8IY4IBhSYgcQZcRCDBw2WHj1ekeDg6yTAUNaQQdSpc2c5/tdfzNJCuxE7cvrMGalSubL85z8fUekDpogD6dq1K9PRYbwxP6A4nD9/gXVmoLqgHYipAuZffvmVTJs2lXOpe/ceMmzYmwzefeutEbJed/2899570qRpUxLozyZ/xhgmxMaMHz9eV9pA7BNl4YKF8uVXWoZV5y5dZML4CSRHiJOBaw8BrsAUYx4dEyP79u6lagSyBvLCWKLqNWTxkl9l2tRpdGGB7L457E0pFViKyhqCazdv3szYqJiYaBKYcR+Mk/LlypN0ffH5FyzcCJWpfbt2VplAZvn5519Y/wdEFcobroUbC/FfmMOffPIJ+1nE1Y0kF4HdcEVifKAaQlFBe1SMSj4WZ3WpQuABI2CyMdmYsft/0ESFO2G9hgp280ePHZO5c+bQ3w0/NWRkBBBiJ3z16hXZ8/vvcujgIQay9undR15s3Yo+aew0EYsBCRhEBQsZDLdRhAtujKNHjso777xDA4H0VhACBDKyToZeoAqGCwGJ2G0jhgMZNBpRyUgJhRGGGwfxKufPn6crCmoB/oYPHQGW2P337tWbygp2vWFh4QzmhYuqZIkSjJEB0ULaMgwdXExQekBUQDRAoNB+EJXZ337LLBzI7i1btJTx4ydwsUbwKowO3CmzZn0tv+/dK7Vq1pJ/ffih1KlXl5VW4cqBeoIsGCz6Hu7ulNqhJCCuB4QOQYhwqXz44b9oVOH6+Pabb2gcB/QfwB27haiIRlRWLF/J/pw6dVI6dujIIElkWGnKhpYKDEUH+Fy9ek2rVXPpEuu6HD58iFlJXTp3kS5dujAY+mbwTVm8ZAldCMhkQQwJFB7UwUBbkUKO9mK33KlTZ+nWrStjQRj7gwBaVLDVKxMjaBQ7dxhTqBevvvoa3QeIqYDLAC4KuCRArkBsBw0aLP0H9GdqLFw1MHZQX6ByofieFqNilpTUVGZf4Z1BbAuyod5+5232FdlhIJoNnn6abhyQ0e+++57jBNcl6srEJ8QzrgrE7NNPPyGxQSAsNgpQTdC/8RMmyIXzF6gagmiU8CthUQZnz5lNpRDzoNcrvUgKSFSGI5h2PRWJse+NZRvgVpo2dQrJLNSbIYOHMCsLH7hK12/YINOnT6OCgiwhqCLAEwom3GJ4j/BvuLBQ3fjK5csMAIYLD3MbLpuqVaoK2gQSDcUHsV1Dhw4hIQIm6elp3HQMGNCf5BDqEIgK+oSAdZAVuNeg0GDeGR/Er1y6eJHzEqQOLlTEq4F4Ym4+9VQdjhHmG0oT4M2EexAuTmTG4YMxHzRoEOfWfdpjPeAlXD1eIfCII4DakYWJqGiGX6uE+uuvi2XKlMncUcN3j0BNBD/CzYH027Vr18kXX37Bha961WpMOYbRg4thxswZNBAgMNhBIn0XaZVY+GJjYhgD8e9//4uLMFxHI0aOZPaDhaikpsv1YM31s3nLZhIVpAq3a9deS+O0MXGRB0lhYKaDPdUYqAR4DnbPqBKKhRvtw+KK9oEQIrBzypSpcvToERrglzq+xPRnXI8S+lj4QXCQydLxpY4kLJC1gQkW4M9nfi4JSQkycMAgef/990jidFbAXfGXX31FQlO2bDn58MMJ0uz551ksDW0DcUD8DdxbpFsmE2MGkKmB3fC6dWsZ/PvJp58y5RepzpD5o6OjGLg7auQoHiVgKF9w6fz800/yxRdfaOnCXbtzrKBYIHYH2VHAHEQJmSlGKvSt27dl86ZNWmzL1atSo2YN+e/Hn1BVgpFHrANcCMAHO+J6DeqLh7uHpKQkk4RNmzqVJBNqCgw8YhTgxiIZZfENLZ0bFXQ/nDBBFi5cyDgjGOqePV/R3EwIUI6Oln1798nHH39MNxDcPoh7SU5OYhtQSRUE+d3Ro6Vx40YkFjTwaWkkKtOnz2CcT+dOnRi/A/IEvBb9uEiKFClKFQaF5LZu2yovvPiitGzRQr7/7nuS2KFDXyXp+eGHRYwtGv3uaGnfsT1VExAVxKiA3MFNAqOblahMnDSR7rlePXsRcwStQs0BUQkMCJQxY8cSv9mzvyWRhIsMRBPvhDVRwUYAaf67du+S5557TiZMmECXEhS4FSuWUyFBMT5krKF/DHQ/d44B3JiXwBbxM7O+niVffzOL8x2Yg4BjU4ExAV5QYEDEkBHXqGEjKkZQSKF4gahg/CpWrMT5ZZy7xaJxUHNQ46eIG8e5UqVKJCo//H+gL/oHIla6dBmxd9DGH8HT8+d/J599NonqJ1w/iCGC21gRlUfcoKnuPZoIFBqiYqQmp2EHni63I29TDsYChh0S4mc6denE+hPwY0DBQFQ/AmWRDYHibfguDBcqjU6e/BkXe2RljBw1SurVq0sjg4BTuB0g68OPbcQlQPJHkCiJCox3mk5Uxo2jZA2iQkPSHunJWnDqtatXWe4+KTmZKZG+vsU1A2DWKshu3bJVYEyQ0VCr1uNsH5SP77/7jossMm6wUNMA2dlS7oZbCnEDcCXhu1iUERCJVGKUqF++bAXjHUBo+g8YIGPHjNF2iojRMJtp2KC4IGMGRAVkDIYO90YxOBgRGCxI9qzkq5XLYGAvFBVkeCD1FLEZiB+BCwJukcNHDrEkO1QlxAgAJ8TaBF2/TsOMWBLseOHuAPHz9PIkAYFyAhcdCCZ2yshEoqFPTWVAJO6N9G/I8jCmUHPWrFlLVwSq08IdArULxAeuNJNZGJiJ7y5e/CsVKsR6GHEVRhVWI4YGBes+/eRT7rphyBE3gV294QaAwgTDDkwR1AnjCjcO+A6M4ezZcxhvM+ptrSoxDC8MJ7LDtPgdLV7olVdeYTEzBGyuWLZCpk6bSqUFJBMKA1woffr2ZcVf1J6ZP3+e1K1bj/MPgbwNGjwtI0eOoHqG8QDuiFHJlqiYhK6NiRMnsiBfr569GWMFdYyuHxIVKCrvsZbOggXfEy/0Hy49uDyNOjkgHUjTR0YSjjlo3bo11SOQcMQ0/fHnAalWtTqDmRGD4+NTTG4EB8tPP/8sq1evYtAxXEd47xYsXCiffz6T9YlGjXqbbizMTbwvIIy/795DoojzsIALiEqZMmVl5swZfD6UJLimnn/++UyVm1FckUprerqU9MdRC2ZuAOCShJvs8y++YAYbzw0yC3EHecHPQZChSiKOB3NSfRQCCoGHDwFdQCgErh+r9GQ0CtkhMGKoaoqAURjRjh06MMUQOy8YP7gAPhj/Ac8ACvQPZNAdFnrEeSAj4Lvvv5fSpUtxh4yMFXd3D7ogzp0/zwyYHbt2MmgSu0zsfI0S+wZRAZGAhI0UYuwwkY0D1waUAhgflNlf+P0CuR0VKW+89jqL0uHMIbQf5ePhMkKbTp0+xSwTGHSQA6S7Is342nUEvpr1c4Y0NQYVeUHMYEDQHpCKZs2eZ50XZAQhyHLK5Mmyd+/v8sILL9JNBDKD1F9klACTWd/Mkp07dkqt/8+cAFGBnA6FBztXyPtIj32l5yusDgpDj7RmBEJ++ulEOXbsKANq33n7HalVuxaVFsQCQB2qVq26vD1qlJZmjQrAYmL2C3b723dsZzwOVAJkgoAYITsH6hBiZ0C04DaDoUGMEc5jQW0SKDfIBIHBg+EF4UMcC5Sy06dO0x0EFSewVCkGeAJbGMKZM2bK8pXLxcXZlUSmd+9eVCJs7bWDEY1YILiDsNOHwoa6G2gD66RUqUJyhyBijAdcjBEREWw/ArAxTnAXgcAgVgdp0PiD+YdisVATvvjiS/n5l5/Fz9dXXn/9Dab3wtWBrBi4m1A5uWSJkiSfMPLY2detX082b9osY0aPpmEFUUKf+vXvT1cJ4lBgbHfs3MnKsiQqTZrKpM8macchoIKsjYlGGnjhPUB9nrfeGs5CZ5jLIJsIln7/vffluWbPMfAUROXGTWSgtaFrB5k4IHVQH+bNRxzSNxIeEcE6Mqhbc+XKZcbr4LyssaPHMnUccU1QOzFXoNoh5ggVfKGoYI4hiHfSpM/kz4PIpOsuw958U6pVr0YFD4clgkBBuUJNG8aojBtHXBDng/GE2te3Tx8ZMXKEpWYO+nf50mWmrIO4I5UdLqgFCxfwWcWK+1DpBIkE6cc7hPizefPm0rUKcgZyNGjgIEVUHj77pFqsENCcBVpIRiEiKmhUupmKwqpVq+WzSZ/JxQsXpGHjRtKlc2fGXcD1c/16MBfGRYsW0khjh4bqoigKBXcDUma//uorkhK4E7BTw2KKnTACc5EJEhsXw0Ba1BRB6iWMAAERpA+nyZWrV+j6gRHGIo2dJoI3QWSQeaIZ90/kr+N/sV2tW7chmUAWDlQRtA+EwdnVme4dkAoYMhgfBGMiHZanE+sl1lF19Nat2wwEhhKBXWrHl17irhhBh9itw0DCMHzz/8XbIMW/2OpFyugotoZU6A3r1zNLCQs0yv3D2KByL4JZEZAJXND+5s1byIsvvsACWSBda9etIxlB+XvUEoEq4h/gL5G3IxmMieeh8m3tJ56g68TPrwSLdCFjA64x7HaRmoxYAJBDxCWANEHZAk4gUy1bvkCVBhhAbUFaLNQTqCzYRb/9jla8DunE2GUjMBkEBunniNMoVrwY63mgFscvv/7Ce0D6h9sDLgvGpeiHARruAmj9cCGhACCugwGHsUbwpbOTM92DyChDLAbUNioqgwczvXjz5i0kd3B9PMYjAvpLxYoVSIhAUoElDDoCpTE3QH7gFrxy+YpM+uwz3hfuOhjqnj17MWi2RMmSLP42fvwHvC/ipaDuICaoc+dOJEgI5sbZVjDkZ8+dlaaNm8pnkydLyZIl+NLCnQFihRgVxMqgIjKCwZ2dnGTkyFF032kl9MdJyxdeYJAzqgevXrWamT0YP5BRFCdE3AhcWEeOHpWq1aqygmvzFs15QCZwhTqBAGRkKWFsQlnkcL0sXrKYKhxiWTAfMe9RsO7TiZ/K2rVrxNvLh4QVqedwucD9tWTpEhJt1IAB+Ro/YTzfG5AyKCQ7tm/nnB80eJBUqFCR8WY4ggIZPyDETzzxJNuOuQTFCcHCUAjRBq2WTW0SFcz/VStX8ngGD08PGTJkqLz2+musRaM+CgGFwMOHQOEhKlmwYzDt0aOs7rp61SpJTE6kuoBKnyAUCLJEDAlUBCy6kHZBZnAoIHb6IDc/LvqRO14sdpCskSmincp7k7U66tWvx2JZiB9B7AjKdRtEBb5xxB7Azw+DikUaLgaUq2cJ/eRkuXjxkixa9AN3rGERYXRLwX2E3Tx2pyhVDsP17DMNacAR44CAWVTVxHd4dorVWS5p6aksWQ8XE+q7NGrSWAYPGsT+0e1hI1ohrgN/cgcMAoB2wtChb4gjAemAe+K5Zs2kR/ceVE3w3yBEUHigUCE+AjigJgeMFXb86CvuhTRUxBGAACATDO2Dywj1W1auWiUxeuYVVIbo6BieLA2FCzVGYCxQBAzxH1Bc4BZDLQ7sbKGQoX4L2orfRUVHUuEAsYAKBpfEsw2fZeouFCXEJ8EAXrx4gWOD7BF3D3f2HwG5GEMYKBT0Q8o4xifTBwodjsmxERKHXxcvliWLF8vFCxfFtYgr1QknJ2fGvODEZ5yyDTcMUpdBVFAH5uqVq/LbunVUhTDXvLy8tVOwRejyQnwLArmhaLRr25btw9yAMjN/3ny6hlBbBrE1cMm8/vpr4ujkRAMPpQbKEVycderUpQsPihywAyaoHYLYKsQqoZ4OsoYw93m2kI0w+wuKI8axS5fODDLFmCCWBi4ZKDlQA5EZBUUSJAAuQQSoo8iccer09eBgjgNqECHOBqQEqiAwg/KC2BooGcjqAfkJDQ3hXMGfa0HXSBrQVwQ8Az9kUMEthdIACFhGO5ydXXgAJeYJfg63Lcg3iAoq+EZE3GKmGsgXMqIwJxFjA8IPNy2UILhtoWiBRIOwYiPw7TezZdmypcxOAhn38fImHnBrQXXBWKOSLVx9b7z5BisQq49CQCHw8CFQqIiKdlCalnWDhsElgRRhLH6oKIpFG4sufN5Y9CD11q/fgOm/9erXZTaLi6szFzVke2Axw24MygYMBjIWEOiK63DKL9wRWDCRTUJJ3QjE5CF06SQNU6dNk507dzCL4tXXXmO8h3YWm1az5cL58zwEbs/u3TR2+BkXSwcHqjuon4I4GRQKQ9Ar+shD3ZjabBy8pqXTIuAQh/VBHj906LA8++wzNOBGpU3cF4QDu3CcQQTFAac2Q/mBAUNZe2S2oE9QU1Bwi+fZoES+yYZZP0cOH5Z1a9exxgRTqO3tNd9/yZI0lNgBs2KqkzOleNwT8jvcMKgrsmnzZmZ98KTmtDQaPJAaqBQgKSjGZWTcIM4Bpc2R+rxp00YaKaScg/wAHxgXkJQWzVtIvfr1GSyJIFaMLXbyOHwRbhIQJRgjuNwS4uItVXQRWIkigIjHMCrGWuYQ8NUzuEAqQ26GMo0aZekxL4A1UrNxnhLwAimCigXlC1lBKM4HvJH5BSUCfUDtHeOgPRDf6tWrMfOq6XNNpbhvccvZORgfqASzvv6aKgPcOUh5RnsRwwQjjziVZUuXaoXWXniBgeJQ/EBs8YH7CO4auDURzIsAV6Rog0xjPH/5+Rdm2aCuDNweqCOCGKH/fPSRrP9tvfj7l2SaO8YUcxl1afAOIa0YrjYc3Ac8oQ6VLVOGyhwyfkDQ4BIC6diyZStPBkfQMj7AGHO6Zo2adOchKBxxUB999B95Aid8m0wSHhYua9eslRUrV1AxAoYgn1DS8GfpsqXMioMyN2z4m4wxwTxBNVpUpYU7CTFmGR+zVKhYkaoV3iNkGWmHgibTbQfivWnTZhIarB14t9EPqFjrflvHQG5klPXp25tzU30UAgqBhw+BQktUNMeU0DDAzYNFCTEj2NFjocZuGOpFmdKlxdfPT7y8PGk4jaBUKBYgDTAKMBbB168zJRSLHAo/YcFF0CikYVyT9Zh7AAM3EcgR7uHo4EBpHAYdxpDqS7pZEpOTaPBBMGDU4CpByi5OAUbsQkl/f7pC4IrBB/EZPPYeHz0uh4Gf+qGD2AkePXKMBszb24s+fLh8kF0E4gCihb8RA4N2oc4GVA2QOrjEsFDD2PgHBNBAaNzLLCazlt2DLB0UIMPRAUg5hSFBLAzUgkoVKzKGBLtQjbRppJGVbRMSqJAgPgQGHbVYoNSAGJUvX47BrshygayvZWxo3cP4wYggcwuVfqEgwDAZ16KtcA0g6NI4OZfp4enpDEAFpnguUmHRZxhLfBfjgIq1cFWB9BBTvVgc/jbILvshQqOMfmMuhIaEMAAa1WwrVqpItQ0BrYhtgiFEm+CeAmHCdXB3XL12ja4EFPZDxhTGBO4hZJlR5cOxCunasQKIM8LxC3ArwfWD+8NlhMwzYMp5eeMG3SEY73Lly9O1BEXGmBt45rG//mIMiZ+fL5UHjK9GOk1y+fIVOXP2DLFEzRNk3bCS61/HNQJqayvValSjCoL3AjFPwA9ZYZcuX6ZqhUBcFGPDOVaPPVaeSgpjj8zCa6AMIT0alXARDIv5g/etVKnSrHAL1xvmDhQ/kgC9tg7mI9KJkXINlyPeVbQPrkocDYCjI/DuAhOejWVjYvvg9rx27SrnCtqHOY+6NVrw92Oc2zyCQT+ZEGQFyg9cqXhfoAziu1DagPHFS5f4viAjqFy5stq8fvjWaNVihcA/HoFCRVQMcgJpO9OHhcVwbkwSF2YsmDD4Do6O3PFDSdEUEcsapp3+qse7QF1JSEpkLQcYUexaXV1cM1Wrtaxgeq0wo54LU2zT0mggoNQYab2II7AujGeca4MgUTwHrhosqlAsYPDw5fRUrdibEUeR3exDu7FoG1krWio0XFLwY8AWZICjnbSsKTj4g7YhDRnGHM+Ba4nX2Oopuzo5AomDkcJuHMqCvZ0d25hxVhGK2el4WjUSzwPx4CnAxMOOz4I7A4YRv+fzDCKmk01gCwwxDnguDbqtLY0idvTAGM83jDCbqRMMPjM5hfVC8GwoEhgHXIt7WJ6p46KNu3HErn4f3Tohdgn3wB9ch2cyi0c/8BE/40nEuqKnYaARNfQXh0+ChKJ/6DvwwvjyaXr9H1xjnDyMs3fw0eaARoaNccU9YVgznqkdN2CcXoy2whCDw6KfmOeITdEw0oKFYfA5L0wmEmmoBzzsUj/0EmNj4GqMC66HmgKXl4GBcQaTgbnxHqIfmFdoJ8gXiDkINzAynoV7YPwNAgDlDu0Dxpib+Ns4oRlzAPfDc9An/DHwtVYXMS95UrMZip421qyRYjk5WdtWGGOfjDFNTuZcRlFAfBfuJb4TOBEcz7Kxyfy+/+OXfgWAQuDhQaDwERUrpSHHMFpX0rXKHsp0fdatVHbXGIbVuDDLNVio6brBzjHDFua8mZpwon2y29rd6573+n2WlrDQllknRzluJQyAVnU3t9tPxtzoqk8uHmf5KoWlXG55NVdPRlMz0xQoK/rt71VtOWuD9RgX3i+XbbJwpVyAAOwIuYF7btubi2c9rF+1jHVux+Nh7bBqt0JAIaDtmwpN1s/dDPi9Bivrop6dQc8JUcnuPlbPZiYJrLeVcnOvpmX6fXbkyGirYWHvdsM8EBUj5ueexyLkqiPZf9laLcjT7XKCQdYb63VgsrVdlm2+5kbM1Sc345KrG9/hy9Z9z+U4F8TjH4p75GV+PBQdU41UCCgE7obAo0lUsuvx3YhKTklSbo2dmnv/GwSyGxe16/7fYK+eohBQCCgE7jMCiqhYA5wT46bIyn2eknm8/T3UsDzeVV2mEFAIKAQUAg8YgUeDqDxgENXjHxACWcnJneKOHlDz1GMVAgoBhYBCIP8IKKKSfwzVHR4UAoqoPCjk1XMVAgoBhcD/DIHCT1SsA+gKMpgu631z6wLKzRAZBjUnrqXc3Pef/l1FVP7pM0D1XyGgEPgHIJBBVFxceXAbyqffM0Pifhrc7IJerVOOC+rZ94uo3IlM3e3nhX2iFRTmBd1PRVQKGlF1P4WAQkAhUOgQIFExicmM81RwgimJyoM0TPciKoDwXhk8d2v/HYybUSjMUjMjpxjcKbg2u+vTcfxMlholKji30L0UqkEKAYWAQkAhUHgQKLxE5V4G3JoI5CbjI6sbJh3l1XFAIAqjGRVusxR0yy3xsa7fYT3WRs0PVSej8LwBqiUKAYWAQkAhUKgRKJxEBQadhMLM0utGOW0HeweWv2eJ9vwQFe0YG8tZNCjZzQP4UKrbzp7n1WSqPJtXoqJ1geXGeehtdlVHCzLu5l5TzTgLBxqaXu2PAlWuS6/e60Hq9woBhYBCQCGgECgYBAolUWGFU7hJcIhebCwPi8PPXFxdxd29KM9YyfaTi6BVc5p24B5IkHaQYCoPTcPBZfa2djjiWIvVyc7NZPw8OwKTJfaF58ukprK5OA/HZAuSoJ0fY31439/6k+XeBrG6a+n+rBVzs1GlgKnlfBWeT6MTqKwNyKnrq2DmobqLQkAhoBBQCCgEsjfthTFGhYfmJadIQmK8REZG8cRaKCs4xh4nqCKeJrs4GnyHB8nhLB7jcwfFguXw9YPhcFIrj6N3KyKubi5ia2snZhz+pp8cbAku1m+rnfmjswAoJdaH8FkpFWhCSlKKREVH8UA3J2enjFOUba1OUc7B5MxNeXrrM3Oy/psY6S4u4/A8Cj/GoXo4NNE4JiAH7VJfUQgoBBQCCgGFwP1EoFAqKjghOSYmVqJjoiU5KYkkBSe4urq68Uh7Nzc3DROrWA8YXZxui1ONQUBo2HmAIE5P1U6mwym8PAUZJ/Dy1FsbSUxK5CnCkBbsHR3EyclRUlNwymuK2NrZ8XRaqi8m7dRl/IEhxxH0xgm0OIEXJ8HimThlFs/h9+3sJD4+XkJCQkiE0H5PTw/91F2cqCz6ycdpJDJwORknH1tIkj76Rn/wN04ShlJDPqE/hyc729hQIUGbEXeTlpbK06bRf57AnG7WTuu1tycGcEmhnzjhNi0VJx/D/WUvdrZ2YmunESlcQ6iVe+h+vofq3goBhYBCQCFwBwQKH1HRj29PSEwggYCBTEpKllu3Ihg/4lfCj8qK9YcEITVNbtwIpoEGf4FBxs9hoOEqwn1iYqNJIkB0PDw9xMXZlSQIigpcQPi5g6ODROv/DWUFBAMGHx8oOe7u7lRFUlJSJSoqksqPh4c7XUZ4XlRklMTGxYqjA0iPM4lKaEgI7+/g6CjeXl7i6+dLEhMXHy/R0dGSEB9P4gPCg2c4Ozvx3yAL1gQBShPud+vWLYmLi9diaUTYbrciRcTFxYXH2YPUxcXFSXxcPIkYyA+wS0tP47893D3E0cmRbULfcU9DicLzcL8ibkVIWgzvEeNr1EchoBBQCCgEFAL/YwQKH1HRXTWIpYBhRhJhgzsAACAASURBVAPj4xPkxo0byKOWkiVL/o2ogJQkJCTKpcuXJCU5WVx1xQUGOy01lUbaydlZ0tPSBAQIn6JFi4pvcV+qJrg3YmGKFStGRSU8PJyKDow6SI52/wQ+H9/BH5Cn4ODrbKNP8eLiXrQIScXNGzclMipSihQtIh7uniQNN2/epDIEcuDl5S3FivlIckqK3L59m4RCO5VZ6GqCMuPk6CSenp7i7OpCNw0+wCE5KVkio6JIpKCUgEgkJiYxSNfVzVV8fHwYEIzf37p1m8+2hwpkZ8d2grQ4OjhKcV9fki0QLfQV93ZzdWP74+LjxNXFVby8vMQFz7e15fMVUfkfv5nqcQoBhYBCQCFgsX+Fq44KiIomFJAgwCBHRUdL6M0QKgwl/f2laBZFBWoEiMCFixeokAQEBNJFgyDcqMhI3svHpxjJCQgHXDEgHaUCS5HAXLlymbEwAf7+VDTCwsMkKiqaygJcTfiEhYVRyfDw8JDAgEC6X65cuUIyg3uDmOATcuMmY1LwvWLFiktycjKJCtwreL63t5fY2duzXSATYCieHh58VmxsHMlLenqaFAf5cXdnn4lFWjoVELQf/XVwQHaSLRWR27cjSWhAvKDagIBER8dQXSlRogQJCJSb2wxKThc/Pz8SsLCwcImNjRFvb2+qLGhLREQESRhw8PLyFEcnJ0VU1GKhEFAIKAQUAg8MgUKlqBgpyUYwLP4brpfoyCiSC5CCEiVLZMSo6LClp5slKTGRRAXGOzAwkAQEykJISChdN/7+AVKkiBsNfVDQdcaXlC5dRtzcXOXq1WsSefs2jTrcSmHh4bzWy9tbfP2KMyYlIuKWhIaGUnGBqoPPtavXmJlEUuHhLjZiI8E3gkkeQErwc3xAVGKiY8Tbx0e8fbxJIEJuhpAUgIi4wxXj6EAFBMoOCBpUD6gqyBQyYnEY/5KSIkmJyZKMOJW0NLptYmJiSDxAQODCQfuBGwgIYmLwAXFBOxCTUsKvBIJOSL5AYvz9S9JthMkA8hQWFiouLq5sv4uLsyVL6IHNUvVghYBCQCGgEPjHIlCoiApHwUpRwb8RewJlBEQFxtyvBIiKa6YBg+sEasP58+dJZgICAmh4Y2Jj5EbwDcaTlCoVSJUAROX69ev8funSpUl6rl0LIlEx4l/CwyNIVHyK+dBYw5jDgGtkyY5EBT8Lvh5Md411JhJIENKd3UFU/HzpMgFBgOoBlw/uaWdnLzeCg+l2AbFCu0A60A/EkSCI1cfbR9w9PcROV1Twu0TElERGUR2BiwtZRCAuICtwYfmXLEk3D5SS5JRkKeZTTLx9vEi0QICABRSekv4lqdCEhoUR01KlSxE34A0lKSjoGvHz9fXj3yo85R+7PqiOKwQUAgqBB45A4SMqWSCBAYeRh7GHmgFFhenJVh8YcZCRs2fPkkgYRIXG+QaISoqUKlVKnF0Q3JpAkpBBVIrItaBrEnnLiqiEhVMVQSxKcV+NqMAlA6ICIgDlBWQCRAXZRpry4EIl5ObNEF4Ltw0UDhAZEpWIW+Lp5SXFiiMOxknCQkOp0ICoQDnBz8jT9LRnEAfEiOD3+EAhibwdJRERWkyJh4cn+wrXGFxSUHb8/EowDiY8LIxuJNSFgTKDtibGay6vFCgqJUpoRAXPB8EJ8BcHBwemZIMEob0IpkXfEcuiPgoBhYBCQCGgEHhQCBR+opKeRoUCQaowwncjKufOnmVsSkBgoLg4O1NFMOJDQFRABpAJc+PmDQtRgUG+FhQkt2/dsigqcIloRKW4+Ppq7hv8Nww9iINBVIKuBUlCYiLjTmDQjQwiBPYaRMXGFgG2cPOEM24F8SwgWshiIlGwsRUvby9xcXahCmJU4YXSg+8ZqdUgQVB1bt64YVGNoJTExMZKSMhNkhG4t9CO8PAwuX3rNjOYQIJMJmQCJVBpASEJDAxgW0NDQpmi7KUTJag5ICpwJeE6EDBgblG6HtQsVc9VCCgEFAIKgX8sAoWPqGTJgoVBvRVxizEidva24ufrJ25F9Doqeu6skfUTHBzMYFEE3LrC9RMTwzgM/B7uGsRxoNZKeEQ4s21AXhCTEhQURJeKr5+fuLq6MLAWCkrxYsWYxozMF9ZDuXmTnqkSfn4kPWgXyAY+IEgIZIV6A7UCRMXHx5s/vxWBuI8wtg0/BwGACwZKEYiJltmj137BvexsmcGDSryWrJ90s9af0DA+A8G7GDyQIhAyXAOiAhUF3wOpQRwLiBCCd6H8xERFk7wACy2gN4o4IDMKShG+g3uDzCC+Bc+gS8j43Ov8pX/sa6Q6rhBQCCgEFAL3C4GHgqhER0UztgSBokU9itLNYinwYRZJM6dJQnwCa4vAReLl7SmOjk6sT4IgUsRYQM2A0YUCEhsTw7RexIwg6DYiPJwuIaMYW2JCokTHxPAakBuoFTDgkZG3LQoElAvUULkVEcFYGLQNtVSMyq+GIgKigvuB+IBQgODApYLvo08gQHg2An7p7nF2IVFwLeJG145RRwVkC1VuUXsF90FQLMgF1BLjAxUERAsYxLKOShxJE+6bmp5GkoYBh/sJMTRwl0FBAR4aB0HROTsGAiPwGOnPljouiqTcr3dQ3VchoBBQCCgE7oJAoScqLOaWkkpVxKjCarhDjLN4jIJvDEg1I3XXgQYcdVNgtPHhz2xMeppvMskHUnxxLxAOEBEQAxh1LTg3mYGmNNQI6kWV19RUKhQw4MjEMUrp41q2SQ/+hQrCCrN6lVy0HTVQcD1quuB3cLmgrfgdT29OSxMT2oTrUE0XpeytjwLQeIR2SGNyMrOctAJvWgwLPmyDSbTjB+ITmOaM7B38jbowcF/hnj7e3lK0qDsLxqFNICxGbAyeywq8OJfIeL4iKWoRUQgoBBQCCoEHhEDhJiosB59xpg4wyq6Uu+U7WtX8TMXJjDNsaMj1M3mQzmw5zdg458bq/EGjBL/1s6zPxdGOwskoxEYQrQqzaWNpytwOOFZQpV77FfvFw5R1ImQ9/pbnGm4w47wi4yRmXf/Iei3+G8TDcP1AdUEMDi5HsTe4m+Dq8vTwZMYQ0qQz9ctonnHKs9EoRVQe0OupHqsQUAgoBBQChZqooHE40waqAYlANqcW82ybdLOFFECp0M7J0RQIg6jgb6oPVj/HlwySo/1YO2zwbwcb6uQC9zNK81vuZfU7/BPZN9r5OCZBIC3JBAhKhocm86zDV/V+cTCM0xatY3WsqvVqhyni/KIsBy9a3RUBw8gEgosIhenwQXsRQ4Py/UXcUIVWa5CBk+Vy47ZZn6/eFYWAQkAhoBBQCDwABAofUckCgtbAu58zY31AcnaHJVvIiHGfLF/KfMJw7p6XdcwoPlAF0slSAQ8qFRDj3ndQOhCXkpqWph1KCNeX3l8QMLjAkJJsBOlayF8Bt1PdTiGgEFAIKAQUAjlCIAeqfeEqoZ+jXv3Dv2R1anS2SFgNusUtpn+RnAUjntWt9A+HVHVfIaAQUAgoBB4QAoqoPCDgH/RjrVWjrG6crJNCHYz8oEdLPV8hoBBQCPxzEbgHUYEnQSkqj/L0sFZf7qXEPMo4qL4pBBQCCgGFQOFE4F5ERUs+MZlRBXXmjJnSr18/LeBUfR5+BLKSFKNHOZDZHv7Oqx4oBBQCCgGFwEOBwJ1sks5FkKmriMpDMZKqkQoBhYBCQCGgEHgEEbgnUUEdNaWoPIIjr7qkEFAIKAQUAgqBhwCBexCVQp+e/BBArJqoEFAIKAQUAgoBhUBeEchCVLTsVP1mehV4pajkFVx1nUJAIaAQUAgoBBQC+UPgDkQlLT2NR7zgGB1FVPIHsbpaIaAQUAgoBBQCCoG8ImBd+8uknWmH8+9wHExkZCQP7lVEJa/gqusUAgoBhYBCQCGgEMgfAlZEBcfgxMXFSUREOA/STU1N0w8IVsG0+QNZXa0QUAgoBBQCCgGFQL4RwLEv168Hy7VrV8XV1U1Kliwprq4uSlHJN7LqBgoBhYBCQCGgEFAI5A0BPWAW8ShxcbESfD1Y7B3sxcfHR9zcihjHvqiCb3lDV12lEFAIKAQUAgoBhUC+ENCJCtSUoKAgiYuLlxIlSoi7h7vY2thIWpqqo5IvfNXFCgGFgEJAIaAQUAjkAwESFZGUlGQ5f/682NnaiX9AgLi4uoiYteBak0lszPABzZgxU/qrEvr5QFtdqhBQCCgEFAIKAYVAbhFIT0uX2LhYuXjxkri5uUlAgL84OTlpRCUdRMVkY3Z1AVGZIf379Vdn/eQWYfV9hYBCQCGgEFAIKATyjADcO7GxMVRUPDw8SVQcHR2tiYrJ7OqiDiXMM8LqQoWAQkAhoBBQCCgE8owAyuQnJCTIqVOnxNPTi0TFwcHhLkQlz4/K5YXqlOZcAqa+rhBQCCgEFAIKgUcPgfT0dBKVM2fOiJeXl5T0LykO9g5iTjdLuhnBtCaT2dXZVWbOnCn9EKPyv/ooovK/Qlo9RyGgEFAIKAQUAoUWARCShMQEOX3qtEZUArIhKi46UWEw7f/qo4jK/wpp9RyFgEJAIaAQUAgUTgTMInD9JCYlycmTJ8XL21P8/f2pqKRDUUlPF5ONycbsgmDa6TOkX/9+LK5i+dzp+GV8wfja3b5zN1gUUSmck0a1SiGgEFAIKAQUAv8rBEBUxCxJSUly4sRJ8fbOxvVDouLsIjNm3iXrh+cu6602iIkiGv+rYVTPUQgoBBQCCgGFwKOJAImKSDKJygnx8vaWkv4lMisqiFEBUZk5Y+bfFRXAYk1MslNP8kpY8qrEPJpDpXqlEFAIKAQUAgqBfyQCcP0kJf9dUdFcP6yjohEV1FHp168/KsBleH5yQCasv58bhM05uPed7mfNjdDBTI3OTSN0oQhNwX20vuSeeWWITfmTm4z74ATJvLbFugcaNnnrk3EVJDkN4tzjUtBtwf00bPLWFuv25AfjTONNtTFv7Snw8c60q8jli2B5F4zxztu8sWBTAHNP2ycVzPwrqPEukHfBst7kb94AGw55PuZfQa19xljlZf00ZirQKKjxLoi1r+DXm/yPd0HMv/y8C5nW9NwvMXe8gkQlKVF3/XgzPdnOzp7xKWYj6wdEZfr0GdK3X18x6bbWmMDWd8b7YBAM492A0dAMR84GQZuMwgbgkpxd9ff+mUw2JBfoROY25uaOWttxD05syxtjylW7+G2T3ierxuTWoBZMnzRSoWGT9z6hQ9lhk/s+oS2YN/kZp4zXI3/3QZ+0OZzpPpjDuXjptPE2MW3O8kLQXuTmLnfuE48KzXV7ssy/XN7jTuOd27ZovdLnn4U4acY0N30y2oPdVN7fb+NdyN94s08FuN5w7csHNpb5l29sCmINNbDJ3xqaMd75xIYvODY01uuN9t7n5lMw463NPxAD63Uiz+9CPtcbbT3P/1rM95tkO/Oanht8Ld/VuTYGjTEqJ0+KjzeISqDY29vxnB80moqKM4jKtOnSp09vjUBkWGwrZqKxXWO5IZvXjVnGHLg38wARyiymkEPnso/aZDRWPpIfyw4uF7cy6y3Xm81WWJhYPu6Tp3vohssKQg2VPGKjb7QKrk96W3L5wouOsbFQWNqTl/tkDJc+TIZilMOxMsa7oLGx7Gxz2A7ja2iPdZ+M+ZcXbDKmTwZBzc197vQu5OYe7Jf2bhbIeGfqU/7nX57fBT5aG6u/K0a5GPM7zb/cYpx1rApqvcnLffTxvm9rcR6xscy/vPSJE6UAxtsKG2ODrsnTuZgzxtzL77tg9MlKgLNsZHPVnr/b3lz25m9f5xDR9ZMsp04hmNZHAgMDxd7OjuXz2XUSFScoKtOkZ8+ePABI++i7T+vb6rK7xso0wKml6LMiJ8qKcZ0NWZkm6+bWGGcoBSakLWktzKMvSXP5aDtkjRPklhjoWOi7LgKSh7ZYL6ImGxu9T/lpj6505bM9GdjkHhdtWLTrLH3K41hZ7mMZq7y3p+DGW583Bdan/Iy3trPN7/yzYFNQfSqo++ThnbLMP4vqm793s8CxeYDrjYFNQfWJ9iIfa7Gx/hXMu1kwa1+mdaswzb/8tMV6LS6o+ZdXpmLZ0GgKLGJUUEfF29tbSgUGih2JSrrY2HA8TWYnJ2eZPm2a9O7dR9ItRAXGJXuqRaOhKxrWcjcXyhx+NMOTN2OTw0eorykEFAIKAYWAQkAhUMgQyKRu6m2jonLylPj4QFEJsMSocG+K9GQSlenTtGBaK3JyN0XIoBjWG/bc+AHzSAoLGdyqOQoBhYBCQCGgEFAI5A4BPeRDJxLgA8nJKPh2ipVpAwL9xZ7BtNr3NKLiDEVlugwY0F9sbHOuirBhBmOxihnJXYPVtxUCCgGFgEJAIaAQ+KchkBH6YWLWz/HjJ1jwzT/AX+zt7SU9TUuYIVFxBlGZPkP69+9Pf5D6KAQUAgoBhYBCQCGgELifCFjHJiUlGgXfMirT/q2OiqXg271Cki1h7/lsvuJD+QRQXa4QUAgoBBQCCoGHHAHdK6OV0Edl2jsQFZyePGPmTMnRoYSKqDzks0I1XyGgEFAIKAQUAoUEAT03Ryv4BtcPSuhrpydnOpTQ1QVEZYb065uD05MVUSkko6uaoRBQCCgEFAIKgYccAb3cSUJSIk9PBlHxz46ouLi4ykyW0M8FUXnIsVHNVwgoBBQCCgGFgELgwSNgTjdLQmKCnDx16m5ERT+UUBGVBz9iqgUKAYWAQkAhoBD4ByGgiMo/aLBVVxUCCgGFgEJAIfCwIaCIysM2Yqq9CgGFgEJAIaAQ+AchkCOi4urqKjOMGJV7VbVXacX/oOmjuqoQUAgoBBQCCoH7i4AiKvcXX3V3hYBCQCGgEFAIKATygYAiKvkAT12qEFAIKAQUAgoBhcD9RUARlfuLr7q7QkAhoBBQCCgEFAL5QEARlXyApy5VCCgEFAIKAYWAQuD+IqCIyv3FV91dIaAQUAgoBBQCCoF8IKCISj7AU5cqBBQCCgGFgEJAIXB/EVBE5f7iq+6uEFAIKAQUAgoBhUA+EFBEJR/gqUsVAgoBhYBCQCGgELi/CCiicn/xVXdXCCgEFAIKAYWAQiAfCCiikg/w1KUKAYWAQkAhoBBQCNxfBBRRub/4qrsrBBQCCgGFgEJAIZAPBBRRyQ48nFd0rzONcgJ6Qd0nJ8/K63cehjbmtW/qOoWAQqDwIqDWnsI7NoWsZY82Ucnri5DX67IObkHd535NGpAxmwIiZfltI9qiDrTML4r353o1NvcH13/6XQv7+vhPH59C1P97EhWTmMw4PXnmjJnSr3+/QtR0iB5mSU83i5jNYrKx4d8wdiaTiYqIyUb7O+vHbDZrXzW+C1utXar9T25eIMO4Zn2O1c/xvPT0dK09vL1Ja2MuP2hjWlqq2NjYiI3Jhu3EvXnPLPcDNhhcPBN/4/m8DjgZH4Oo4L8LQkEyboPxyEH/8EgzcDGZ9PEALrkDheMvZvbL6DMwwX/npA3WWNAe68/Hfc3mdLG1teUcs54ruWth7r5tPW68Uh+XXPUld4+857eNOWbMY2Krz6tM8+med1JfeBQQSDena/PSZBKb3L6w1gCYsJ6lcX2ysdXXtEcBINWHAkcgd0SlX79Ct+tNh6HWiYAx4WFcdEbwNwNsLLp4ySxcIqthzQFRoSGjgdRJh2HorQwtnpWWmkYjbGNLemJ5uQ2DxIX+Ts/LxmiT8OhEB31PT02j0bD0WZ8iaelpYjLh5TdJamoqjbZhYLjIGO3VeQvaqrVPv0F2xCWbPlqMKTlhFgJo/f0s9+PzSFA0hpiels5bZSIYd2uLjpnG07SbW5NBErl7fbLDHdOJLFe7LbBNTdHJoTXJu9e98/J7vb+Yx/hg7nABv9/PvUdb09IxNjoZ1MfNGDtjU5CX7j501+RgXbhjn/Jz7f0A6m7vVpbn4X1ITcF6ImJrp6+tfE+0jRLXFjL5HG54jO9hzeCGQNtQZazI96PD6p4PMwIPH1GxGCizwFDb2tjQEMNIGR+oK3hx8ALAgFvvRmkE8E7ZmMjmU1PTRKA4SDpVCryI2ot39x05dhUwYPEJCWJnZyfOTk4aWbAmKulmtg2f5ORksbWx5f2Nl9vWzo5Ex2Lss84k41cgJDDkJpHkpGQaLztbuwzFKJudDb6PBSYpKcli6NA+tDW73bmBoaY2aUYJzzEWEgNLNNEaU+P7+LnRVw3bdLFjXzXyYWsLxcvoqtYfQwVJSU7J2FXpRtkgIHdqr6EmwZiToJCYmCU1LU0cHOwtSgieacH4Dm9qBmnS+oB5Ye9gp88pTeXB2OVY1bgTocvBSgGCGRcXL/Fx8cTHw8NdHBwctCvvZghy6J6xEHWS3Rw0SCeA+CbmPNqWEB9PLLy8vMTe3j5nN7nHtwyFM9t+WvctJ9gaZDMbpTFTM7Iaa2s8jOdYPy+nhji7vubn2rwgfAcSblmf7kRUsl6nY8nNjo1J8K4mJCRISkoK/2At8PDwFCcnx4z16A5z0TLGVgRF22foirPJxPVJfRQCWRF4OIiK9Uuluztg6EBU8Kvr169L0LUgCQsLk6SUJClaxF0CAvwlMDBQihQpkklt0HbwJklPT6MxuHnzply4cEFiYmJo/Iv7Fpfy5cuLl5c3DV52HxjGqKgoXhcaGkZjUqFCBfHxKaYt/lYEA0ToelCQXLh4USJv36YBL1LEjW0LCAiQou7umiHNTsHQ7wNCFBERIUHXr/NvkLPixYvzHu7u7haXkoUImM0SHR0t165dk8uXLktcQpw4OTqLr6+vlClTWooVK5axM4KKazZLbFycnDt3Vm7rbUQ/QFRwT4OMODk7SdkyZcXP10/s7O34OxgvXh8bK5cvX5bg4GAuZDBk6F+p0qXFy8tT7O0ysASBolpgYyOJSUkSER4h165dlbCwcBI6Jycn8fP1lXLlyxNbQy3KasyAxYXzFyU0NEQSEhLF0dFBihf3lVKlAsWnmI/lmfciGIZrB2OdmJgkoWGhcunSRS7KLi4uHFvMBzt7Ww0PY4j1f1i3S/fEZbgRc7nmRNy6Jbt37ZKjR49x7rZt20bKlCmj4W18jAZkZ0yzI7tWcwtzl0QURNwgyXdqoz6+mi0xS2RkpBw48Ifs2L6dY/tiqxelTOkyfyPomW6HZ2cXB2XgqL/PBjn+m6Jn/V5YG1HrDYG129aYr3oj7kpS70XU9L2PxSVoPD+rIc767mZ3XysF0LJGZPfO35FMZ7gl7zml7kBC/kYGObBZ7paFqFgUz3QzCerJkyfl4MGDcuXyFUlOSRZ/f39p2bKlVKpUSeyxXmoCdwYJNtqirzPGnMNmAOvE5StX5FZEhHh6eEpAYCDf93u9r/fsv/rCI4fAw0FUrGHXXyQwfJCLQwcPyY6dO/gChYWGSWpaKhd4GMh6detK06ZNudBbxy1gsb4efF327t0nv+/ZI2fPnpWYmFgazuLFi0mNGjWkZYuWUq16NUF8jmGoYTCxizh75qxs375d/vjjD4mMipSyZctKly5dpF69epp6oS++t2/dlqNHj8qmTZvk1OlTgv/G9W5F3KR8ufLy1FNPSZMmTSWwVCANh8U9ZPRXf8lBAtDWJYsXy82QELG3s5N69epLu3btpGLFChZihBccpCYkJES2b9suO3ftJHmIjo4RRydH8S/pL08++YQ899xzUrVqVX1hMVF5uXD+vMydO09OnTxJ8qGRQM1dhNUH9wYp6t69uzR8tiH7ABxBvEBOtm3bJnv3/i5Xr16VmNhYkj6QxTp16kjjxo25kDm7OFuwxLUgU0cOH5UD+/fLsb+O8T4gLi7OzlK6dBlp0KAB/1StWsWyW8NCl5iYKOfPnecz9+3bR/KWlJxMFa1UqVIkFs2aNZNq1atLEVe3jNlzB8NkkFf8fT3oumzctFFWrVxJdcW9qLv06PmKPPvMM+Lh4aHFRJk0Q28wFmAA4mv42S0uNCzaJt2lRkUCcUPpEhsbJ1evXqHaBcIJ4ujo6EisQWinT5smGzdulKJFi8qnn34qzz77LMfPIAyW+Cv8gOECVm477la1LhuKiRZborkpSVSgiiHOxHD1GeQ/3UxydvHiBUmIT2C7vH28xdnZmfe7ePGizJs3T2bPni21atWS9957X55++mlxcHTg/CC82e3k76EmWKt4WYkKlVK6Tg0fpVXQte4ypBvKEl6mzedMxtJwC6KN+h/DAFvcDXobjc2Php82YQzyiXG3uLqyqC+W+B1DibXarBj3MUgi22C4Ou6ibBAXuka08TKwNVycFoNu9SzGpen31xqfDb+1cnVbcNDj+ow5Zo0P/o119dzZc7JgwQLOzaCgIKofDRo8LSNHjpA6detwDnPzwtg4LRbPuA/DWszpFpUWyiHW6x9//FEOHDggTzzxhLTv0EEqVaz4wF2dj5yVfwQ69NASlZjoGNm3f598+eWXNFZ4H7HTd3RwkNuRt6kMlCzpLwMHDJDefXpzZ4wXC8YgNDRUfvvtNy66IBtubkVohLHAYdeIm3Xt0kX69OkjNWvVpLydkpoit29HypnTp2Xdut9k5cqVcuXKZS4eNarXkDFjxkjHjh0Z1IsXEuRi585dMnfOXNm1eyd3nT7exWgsQG6wmyhbtpz079dfXnr5JfHy9OQCk8mtAndKSopcvnJZvv9+gXz91Vc07s7OLtKxQwcZ/tZwebz245bFCLEEITdvyto1a+WHRT/IsaNHxdXNjYYGRhFtgqrSqVMn6fFKDypHDg6aAdy5Y4eMGTtWDv75pxR1L0oDbWNjuKk0942Xt7e88cYb0qZVa3H3dOcCeiM4WNasWSOzZ8+hIgMZ2NnZicpIWHiY+Pr6SedOnaR7jx5SrWpV3gfGICEhXvbt3UdytH//PomPj+cY2Ds4SGxMjMTHJ4ifn6/06NFD+vXvL54eHhaXHEjfokU/yrJlS6milSxZUjy9vKhYgbSARHTo2EH69usntWrWzFBzshIVY4HX/eTY5e3bt18mT54sa9euv4RUKAAAIABJREFUIWFzcnSS119/XQYPHizlHysP5sExN4IIaaCwkOsyuGFQDQNoLX5gXsDXDyVu4cKFEhJyUxo3aSLPN2smfn5+xObqtauy4PuFsnv3Lo7b6NGj5Yknn9RcdgYR0GN5OHD6TpUxV7ot1wLMM1xeMGxQIA23o3UguaGIob34HvD7+uuv5cqVK9Ks2fPSrNlzxBe/Awn95ZdfZMmSJVKlShUZOnSoPPnUU8TXsHNaqIJBFjQr+bfgcSvDar0DJ+EyiATIFkmXpgBljcGyNtoaMdHImvX3GGukG2qMrSVOi4oqyKVG3qzjxAwixzaTTGgfwxWJewCzrMHsRsC6xUWoK6s02jrpyURU9JgOow0aSpk/BvnBT43YLfwMxNjSbqtL+DsGzWuEzEgQMOKJNDeLRmwxf7W+aO3LIJgaY9PcqRoGeB7UlBUrVsqUKZO5+cHmD5ud+vXrk2D4+5fMaKNOlrTxy2BKjCG0s+FcxP1BdsaPHy+rVq2S559/XkaOHMmNyYOOyXoE7Poj14WHi6hYuX3On78gU6dOkZ9+/omyYfPmzaVhw4Zc3KGubN2yVQ4eOiiP164tn02axB0gfgdXzNatW2TmzJmye/duugoaNW4kVatU5eDu3btX9uzeTam9f//+0qdPXylbtgxVgq1btsisWbPkzJkzJC9Y1EFgqlSpKmPHjJEOHTrwHsnJKXyZJ06cKIuX/EqC0qJFc6lduzYXUig4UAPOnj0jjRo1pjGqW68eV0M7O8RXaLun9DSzhIWFysYNG+Xb2d+yPxgwPLt9h/by1vC35PFaj2sZGCBZt6Nk166d8u///FtuBN+gawgqD5QUkCMQur+O/0W5HsrIK6+8Ij4+PmJjayvr1q6TCRPGc9cMxaRO3bp0pUAB0gKPTeLm5iZNmzaRxyo8RvcM4mVWr14tM2bMkBMnT0qZ0qWladPn6F6Ca2zz5s1y4vgJ8SvhJ/37D5DevXuJl7cXF8BLly7LzOkzZN5386R4seLyzDPPUGHCM86dOy87d+6Q4yeOc+EaOWKU1KtfT5wcHSUpMUkWLFzAcYDb7YnateXFVq2kZIkScuvWLVm/YYPs2LGd93nrrbekZ89eUszHR3tx76CowIhh4YyLi5M1a9bKxImfyunTp9lH9B/zCmPUsFFDcdSJnbFr521pFDQZA5gwxsXe3uIe0wyDFvMEgrp//3555513OA9Ahl977XVdGdPUotCbIXLq1CmSTKh7RYsWkZTUVBptxDVphNvKXai7aIw4LetsN4OcGMbBiFHR4oZsqRrhD+6ZnJLCXTPI6J9/HpChQ1+VwUMGS+VKlUkEQHbhTjx27JgE+AdI5SqV6bokSdFjmwyigXtCncFzgIWFgFtIipbxkZaayl02s6v0gOqMfmixTQYpyLT6MpJTU6xIANIyMv4MY87YIj1GzTpYU8sW1Mgb/sZ3rDcIaJdhZHEvIw7HCIA3rgFhASHHu4H1giSJbo+MiWYhKvo7qhEk7dmIq8I9oT5qRCSjhwb5MlQVEi0EzdvYWgy55TlWsV9UPxhnpREW9k2PiyPhs9Hi6AwSxDmQos0BKjcYCzvbjO/pRCM8PFwmTZwkP/zwA9VUrI09uvcQvxIltHiuNLOkpCSLnb29UKszVCP0W4+xM+Yefof+QL0cP0ERlUeOVdyHDj0cRMXqBcZLDmPw11/H5YMPxsnOnTulZcsXZNiwYfLEk7X5Et+8cVMWL14in3zyCXflQ4YM4c68uK8v1ZRvZs2S+d/N58vYoUNH6duvL90UWGR2797DHfWJE8elZs2aMnzYcGnVupVERUfLsqXL5Ntvv6ESAQMC9w8MCggBDBnuhcUGRAWGbtKkiSQ1zZu3kM6dO3FHjpcVJGLhwh/kyy+/4LVvvTVCunbtKm5urpl2E0lJyVR88D3Io56enlQQoIy0atWahhiuHHywkzp75ozMmTNH5sydK9WrVZMhg4dI3Xp1SUawoG7ZskWWLl1Ktalu3bry6quvSWBgABfAX37+RSZ+OlHi4uPl1aFD6cpydnGxpA+DzGARgzKFxU1zF12Qr776iosXFAEQn44vvSTe3l5cjLdv28HfHzp0UFq0aCEjR4yUp+o8xUX9r2PHuXPft28vXRvoP1w1VLxCQqhaYfdWpGgR9gPECsGbISGhMnXqVFm4cIEEBATKgP79pVPnziQmyclJsnHjJhKNS5cusT0wugYJvRNRMXbeUDrmzJ4j8+bP4zhVrlJFzpw+I0Xc3GTkqJHEBFgaRgx9BC4gM9FR0RIeHsb5hXgZqEre3t6MW/L09KCbDQbh/Pnzsm37dpk5YwZdXa1at6bCVa1aNSmBRd/eToKvB8v168Hi4uIsjz2mkULEUmHs8W/Eh7AdVh/sTvEH+GFOASvDMISGhUlYaCjJthZ340zCCLcT3KQgAiBIwOyPP/6UadOmkkSBeLdv315q1qzFHTMMNuPBgq4zzgrvAdxThlKRkJggMGi3Im7RLQtSBrWyWDEfvnvAkXPHjFigRLlx4waJONqA2DDMa7gDMD+xqfD09BK/Er6c94aBtXRZN84kNSD16ekSeTtSQm6GkCTHJ8STfLm6uNJ9Vax4Mbpx0VcQLmAJF6nm7i3OP/i+4ZLE7+CqLVK0qJQvX45uDaoPJmE70Uf0Fc9C/4FDseLFxbd4cbo4KV6kQ/3QlBxcExIaynvGxcVKSkoq46jw3iAeyyA5hqsEcwrEG+MOtZGB/2lpJN0gB+5Fi2YKZAbRQFvQbrwjUPicnJ35vmKuYAzw3xq5gQKYKtExMXL79i32BUotPsAdymkJPz8qnMAKv8N69s2sb2TDxg3i5eklL7/8Mt/pgMAACQwsRYX0zJmzXCPwPPQLz8OzsLkID49gLBn6gfmLMce7MmHCBKWo3AfD/qjd8uEjKmnpjGM4fPiwjBk9Ro4cOSzdunWT4cOHS9VqVbWdX2KS/Pbbehk8eJC4e7jT0PXu3YcLw5EjR2Ta1Gl03Tzz7DMyevS73M3b2tjRSGDxnDJlCiVu3GvEiBEyaNAgvrCIEzl8+JC89NLLXLg++ugjqjMIKHv33XelXdt23PEmpyTJ1SvX5Ny5c6x7ghiWcuXKiaubqyTEJ3LnvnTJEvlg/Afi7uEhQ4cMkSFDhvL3+jpCWRqLCEjAv//9H6o6MJRbtm6Vv479JXXr1JHRY0ZTetX8wumyddtWee+990iOYNg//PBDLtCG3AsjA3KBeBwECkPhgRHA4gXfM/qN+8CN1eOVVzQ3jZ6dA2y4yOm+fBg8EJ+p06ZSqUHcy1sjRjCWQ8uasZdbt24Tox8XLaIhGDhwoPTu3Vs8PD0k5EaIHDp8SGJjYqVGzZpSKjCQCzxcZ4iP2Lhhg4wYNZILX98+fenGweIZdD1IpkyeQtcW1KRRo96W55s309wPNiY5fOgwycnp02ekTZvW/DdUpbt9tLgTYRDrxImTZM/ve0j0ECS46IdFEhYeTtIzZPBgxr/YIqgWXhc9syo0JJTE+ZdffpajR44yMNnV1YX9gtLXqGFDqkqRkVHy+czPZcOG9VSgoJDAwIGgQDnq1r27lC5dSn795VeqfZhLIHeIFVm6dAkVKigZvXr3khYtW1p4F/CeN3++/PzzT+Lm6iZ9eveRF1u/SKN88cJFWb5iBQNgESQMAgECUL16dWnTto00btyIc+DyxcuyePFivhdQsmLjYhlAjGc/3aCB9OrVW6pUqSzLl6+QRT8uktKBpWTY8GHy5FNP6oqSmfMSMj7aDiOUmJAovn5+JFvdunWlaohgSaia165ek2XLlsmG9eulQsUK8txzzeTwoUOy/8B+zlEYS8yltu3aSp2n6hAnzYeij2QWogJsEesEN+TBg4ckJjqaxh+7/7bt2jHmrFLlijTEICnLly2nOxUEbNCgwdK0SRMSaKwtcGfO/nY2CSXwgdsP5E9TS5PlwB9/yJrVa+TwkcMk1ba2dsQJ7yL6iXWI7gu45UwIQk2QPb//LsuXLeP8hLqZlJzE96/588057iAefN/0sgcgvSD6y5cvk4uXLkm6TlSefPJJad2qNZ9VooSfhr2YJTwsXPbs2SO/rf+NAc9op52tLQlD48ZN+C5UrlzFktUI1/n58+fo/gbBiIgIZ/88PD25QWvTuo0817SpREVHUZ3+8acfqTbDnQt3KOYQ3MjNn3+ea++ly5dl6pQpnPt4FtzgcBliboJAYu7O/+47bsaw1tWp+xRJm3L9PGqU4v705+EjKtilpKZy9/fJJ5/K6tWrpEaNmozXaFC/AReb69eD5Jeff6USgZ3qmLFjpFGjRuLo6CTr1q6Vr778ivEtMPww5nihjLRk7B42bdwsH3/8kZy/cIFGctiwNxnciV0RfLXYaWCxG/fBONmxYwevf+fdd6V9u/aa20Zf0JBBApZgSMdYoLE7QiAlgshADtB2BKO9+OKLlqBEZMRgV75u3Vr5/PPPKbd37dqNLz9Umr379krjho1l1KhR8lSdOnxeVFQkF36oSDBGw94cxkX+6rVrEnTtGnewRYoUZbAp/Ms+3t7i4uZCYwZCNvmzyTLrm1kkdt26dpPKlSvLjZs3Sao83D2kdu3HpWy5sgwoBfFB3xb/+qtMmzFNYKhBFkeMHCH+JQMs/vO4+DiZP28+lRPE/kDVwqLmH+CvpXbrO0WMC0gGlDLIx9ixg8h9O3s2d7Nvvvkmd2+eXp4SFRXNe86bO5dj3blLZ7YX7YKStXLlCpk+fTp37SBFIBggefciKhj3xYt/JVlDuzt36syAXChfGOOqVarQXdO4SWOqGvggwPDypSs0JitWrJCbITe5iCOdGAs0MAcJeOHFFyiT+xb3lRkzZ8r69evlxIkTkvh/7J0HfFVFt8V3QoBA6Am9C9iVYhcURH1iF8QKFkBUihUFETuKXaqCoAIqgoqfCti72Gg2kKKi9B56GmnP/zrnXG5iQi4YMMG57/c9Nffcc2b2zJm9Zu2196SlSNNTp7YnOr7k0ku02xw1cpS9/977es6TTz1lhx12qL3yykQbP36cHFCXLl2km2Fe4aRg6B566CGbMnWKNW/ewm6++SaF777//nt74YWxYrQAlgB1WAN23YwrGils1KFDezk6nBFzCNaH72FlaA/sG+9KkyYH2tgXXrBhw4dLn/DAA/eLDSP7Y9bMWTbhlVcUNuW/mTO0j7mImLtJk8Z29dVdZAv0WGSNMC/Gjh+rTLJDDj7Efv3tVz0XJpH5zO9x5F27dbXjTzhB6e65lRyEXwACbCx4nwDjaLhw4oTLeNfQWuFQu3XrZkcceYQA9Lix48Sc1qlb2/rf0V/sEfooxm3hX2G3xx9/3KZOmSrtxP0P3G8HNDpAcxbGDtYSxokP7BTv0Lbt2wQ02PQAyAGCsIHYmvvQPjYubHBgE/gw52ACWZsIpfAbgPqypUvtjTf+Z6+9/pptWL9eoIDfAL62Jyfp3YXRYD2oX7++QtAANHRPvy/+3SpVrGz169UT2ISRAcychh27dpUwnUWf8OPwEcO1DjJWVatWU/s3JG7QGLRo3kL6vkZNGmsziL1gd/me8GfVhKpWs1ZNhXp79uwpZrlv39v120suvkRjpiSGLMLX623yG5O1ltGWBx54QEkOMEC5gQribKdR2TvOvjjftdgBlSDeyeIHm/HMyJFKwSWrhMUex8BOASHr9u3bxCygAahWvaoWmokTJ2mBXLhwgZiSB+5/wMrGlQ1lFUBXs+uBIZk9e7ZddNHFAhLNmzUPUemwDiyI/QfcaV98/oXVql3L+sGonHeeXzPEC41kpmdqV7cjI93m/vyztBekKpPhQoofLA3tYwGpV79eSDQIUJkxY6bCTB999LF2aDfDGB16mA0YcKfCXeySaNdRRx2tTSY7nYkTJ2qBpZ9XdbnaUlNS7Jdf5tvqNattR1qaFkl2tzBC5513rhZJ4uQ43Dv69ZP2g/bWq1tPzpadH86fXTohNBbzs885R05gy+YtNnbsOHtm5DOifdnFI4Yj3ME9FQJL36FQ05DBQyQgxdnddvttYpdC2QjZ3nU4R7RFaHtghBgDqPUL2reXfZoc2FhtYsfJuIwbO1a7NMYbZ4JTZewAFTyLxR/HdPzxJ6jGw64+0OY8n/6MGz9Ou+yBDwyUrXAyo559VjH82267zTpe1FH0O3ZCtD1lylQbM3q0srtw6O3bd1D//lzyp73/3ntqK84EZo4wyoIFC8VEPffcGM2htqe2tQvOv0BOioUdQAfQQhBN6G3EiBF29NFHKXOMeQvAuejii+2eu+9W32EPYSEAKux4r+l+jfXq2csSqlZV2wmfwTbxHIAXNly4YKG9NOElhbUY0969b5DuCHE4AudHH3tM6dm0i+8JnUHxExYc9cxItYnQ56CHBymjizEjEwhnhNM+66yzBCzRK8yeNUusIDt4wpDMEd5THCjaJpwXY8ff2rRpo7nHLv6ViRMl7IYRuOaa7tajx/ViR3IX8oOZoD8ATMDi4YcfYVdccYXYClgC2L7Jf83BShUrCiSzIQBAIuIeNOghZdzdfffdcvw4YNYXmCH6xv3+7/T/U+ZV/Yb1FVJmXnz8ycd6d8499zw7seWJYsaYd7BJ6G3OPftchQoB5B9/9LGNGPG0ff31V8r0Y42AsaD+0ocffqBQSomoEtb/zv7WseNFmquvT55so0aOlI1gTphTAEYEzlOnTVWmIsDuhhtv0NwnLDN48GDNEcJPPXv0UBgVUfpnn36mZwB2YARh0QB2gE02S2wMevToIcCJVmbGzJn25ptv2rZtW2UTQDHs6MwZMwWEmLuEdjq07yBtX81atax2zVpiuNksUmfn8ssuk7YpeM/Xrl9rkya+akOGDJZ9sSftJlyaW6PigEpxhhN7r+3FA6gE/ffDDl6mRZYcGY4cOh1hKgs7IQ126hXKV5BmBCoWIS07UQAGL9uzzz4rRoYFGnQPCxKENVj42R3cemsfhQJYWHCuxx93fJ5A5fPPPrPatesohBQCKlRvlMDRi2knbthoE/4KVaCaxxmw64CFadeunbQZgCwcMOJVdrwAi7HPj7Wx48dpV8kODY0LAKTPbbcpDfiUNm216LdAo5KdbWvWrFXfnnjicS3EMCL0GecHeCCkNW/ePIGP4449zrp1u0ZghdooiHDvv/8+CZPTUnfYAQ0b2kEHHySWgtot38+Zox3jUS2Oln6F+hkpqan23JgxclAAHbKXYFQUSsqOMtIP0c28h9bkqSe1+F9w/vlit7i3Fzvx/sHO7/XXXrdJr77qp4pv1WJ43nnn27nnnivtEZQ9u2l2vCyGOEBAxaeffuoJElUoSipBOT0AIIuvasYgIOQThA34p5/Wyx/5PaACtmPOnNkKYwGucOq0+84BXjiNsWJRxwnwnKVLl9ngIU8pCwYwgMPDScP8UKPnow8/spcnTNDOUdlLXa4W4Jk+/Svr37+/asd07txZGqoDDzxQ4AcxM04HUS/6AkABizfz5ulnnrGJr7wiQHTPPfdas2ZNtSt/+eUJ9sILz8vBP3D/QO20gzDmz3PnCmgicCYLDkeKBgY2BPak9cmt5WBatmqluQp4oY+z58xWyKP7NV64i/uR0j8SoDI8DKi0aW0ffPCBPf7Y42Jw2p3Rzm6+5WZr2qypDO6xhxNtwksvi+Ho35/suA7aRDzzzEh79tlRcsKwLZdffpnmatL2JHt98uv2/PPPC3QShiSECJOQe7cN2AcMPvLoIwIFjF3fvv2sZcsTBazQ5gCk+DQ58ECrVrWqGJXx48eHgAq7+gvOb+8VLYuKklh40KCcQCW+arx98/W3NuCuOxXKAFR0vqKzQoTMH34z8ZWJ2oCgnWIusIFBME6YEs0Jfbz6qqukD0LsOmvWTBv/4nj7+ae5mludLr9cISGE/pMmTdI85j6wV2hlJFD/6CMbPnyEWNauXbvonswZ2KHZs2eJQUbEf2TTppaetsNWrV7tpxKXEHAgzAh7Bhv8zjvviNFjDUTsz3wDHP3xx5+WkZGusWBeMo5bt23VJogwLmsXcxYQS19gQgk7AQT/BlSiTKzSpFcm2eAhgzUOAiqnnibdHwL+8KwfB1T2nrMvznculkAFg7Pz/PyLL+QkoJ1ZZIkjwxrglBM3JtoBDQ8QGGjfob3VrFEzpMUgY4SXu3ev3vbAwIEq5BXUlMDJz583327t00cvHy/j7bfdJucQXkURrcSAAXfZZ599Ko0KYlp2zEFF11DxNTPFYqdNm2qffPKpLVu+VKESwkCEJFhYcW4IbXFUsCnvf/C+PTfmeZs//xftPNjJs6PdsD5RAloEqNRfYdd2VIujQvT/2LEvSGjqAZVDBER48XHWCPNIyX7zrTcVtsEud9zRz+rXqy9AQT2auXPn2ubNm9Qf2ATEh+ga3pn6jk16dZLCMx0u6GC9b+gtQDJ27FiBPoBKt67dxBqgP2FS0b+s7EyFMGgT2qBzzjlXjBAMUSgt1UzCx/ff/0ChLnaNiCkJs9GOk1u3to4XXijGqWyZsrovDnHKlLeVOcUiGNQi4Tc4YRgyMnUQqZLaWy4uLufxAH6tEQkXKVaXnCQ6/5mnn1Y9lksvvsT69usn54zW4u677pb+B/BHHxHA8rsffvhRIUI0C82bNrP77r/PWrQ4SjtQ0j8RxC5atFC7ZzQ4hxx6qKXv2CGtU9/bb7fFfyxW6KVX794KjZA4BIBGzApQwf4jRgwX4MJGhLyGDRsuPQMsE2n3GxITxa589fVXdtihhyk81fLElhZTKkZzCecG+5i0fbsYIMA9acaEFnCU2PeWm28RFQ9gJ+vn2uuus5mzZoiJRD8lZxUVJYdPijwMAYzKw4MGWetTWmsOsFlA+3Rt9+52fY/rxehgA9UA+uZbAdQ//vzDul/TXW0HWALCRo8eI+eKw0IThO0QmgJAn3ziCfv662/skksuFsNB6Cx3mjLAj5DKE08+qXAh4a22p7QVo8a8x6nC2MCASEwbHW1r162VLQEjdevVU/iBd5fq0vkBFdoFIHz++efUBkKsZ7TzwlgAYGyMHgiWjJAd4Tr6wQYGFoK5gyPnOUG2zqbNm8UGISgGrAEImVNkM37y6SfaUBB6JhzLhoX3Gr0KGqbFi3/XRowQIHW1nx7xtE175x0B+gs7dLCmRza1+g3qC2wQqmbTgQ1YwxAcjxkzWqEyQOEpbU/RPIDxQXTLu831iGHRufCeEF5Cv4UOC7BDOPYiX8SOiPqr6V8poQGgctlll0oXSLgM2wRA5akhg7VXAKiQ+g7IdkClOMOHfdf2YgVUgpQ9diczvpthQ4cOs48+/siaNW1q55xzjnYR7IKXLlmixYGdHuCF3Q+7WQR5hH7YxSG2RGyLULVsnLdb9xacrfbTjz/LiUODEm+9/fbbJNwMPjAzy1cs/ztQOe98i1YJfk9oGez+YDbIyABAIfrDGUEVUz+EhYRddY+ePeS8cSLsqImFs3Cx8EPXEoJZvXqVdoszZ85QSAOnidAR0eWqVSulRxg+fJgWNJgIRLGwNYA3FnRo/WHDh4kKPvSQw+yhQQ/ZscccK+EnjA4hHMInXM+irrBV+g779pvv5JChd3FQLOw4L6hjwhGpaalaUBHTJiTEh8ru0w4c7rBhQxXyoPbL7X1v99Jdw5Ac7Av2YZFHjMcuePr06TZ12jTtgDt06KDdK0JSdDNk5hDmIl0ZzciJJ7ZUOIqx++brbyQIJdW2ffsLlF5++OGH7cwa8SulglEQKLKzZTxwDmg00AK0PrmN0rBhSbgnAsVZs2dZmdgyWqBxtNiHmitknpFq3a7dGWLhEJwGRylIGOkf7aDHUok3JdW++/ZbMSoLFi3U2N9044124EEHyiGoLU8+pb7DhODMW53USgs88xlAALvT5pQ2NmDAABUABHAT5gD0XH311crG4XmIQhlzGAcyf7iGuYiNCXUhBG176qnW59Y+qpfCxF382+/WtVs36VoQPV7f4zqFGfiOcNDIZ0YpXHNkEPpp09oGPfSwHB8OGiDd7ZpuVqqkV/af+bNo4a92ww29FdpjLAEy1OmBwSKT5JhjjhYLgKAYrRjvF6HbRx5+WO/JxRdfIvaDMFB4lWIvXThLjNzbb02xl196yebOm6fnAgwBzQg+Ad0Iqkl/h0FAS4TW5rHHHrc6dWrZXXffI31ZmbKxeg8WLJhvDw96WFl+hLAefuRhtYn1ZsrUt8XW8q4dd9yx0kmhgQG4eim/sHsl9B4tX7HCbrrpRgE1wlowV6e0OcVLp/aPqVCKdiZVmr2sOkKJAFVCVgAthPg8T6ntqSm6L+8JrCwC5N69e+kdJy2fcCjlB8h0CvRFrC9oi0444Xitj57WZZt0JwhpCV3DTgM+EN4nxCdYgwYNFTo7/vjjtAkAJKEzAdjB9LCBuOmmm8XyAoxoEwJqgBjvC3o6QnXMQ9rNZmcijMrgpzR+AwcOlGaG8FLurB/HqOw751+cnlTsgAovOfqIF198STFuhLNkuhB6qFWnlpw9uzhSh0HuLPyNGzeRs8S5ssMnPosw7MorrrB777tP1Wh5gaDFYR4+/vgTLZxz5/5sXbt0066IBSP44NygXnFSnxL6qeVl/VxwwfkCDVQphQ4NKpHyMuOkgoUMih66c/iwYQIm7JgBJ6RyfvTRhwqVEH46+qijlTXCrhCgws7knWnT5GTqNahv55x9thgZwAOLHTsk2AvSdHv16q2FI546KX6BBmh0gAULFKJaQFqbNq21eEGhA2aUhhzNmUBevQbaHIQjYGNY0AY9NEiVJAkd4LRIKSVzoW+/vqpnQltwOIQ/WNBHjvIK1V1+mZcuTEo0/VHqJg7cP3gvqMERLHwPP/KI/f7bb7L9Y489piwaFkSytgB5Z555lvrI7hUnydyYN3eeMpHQEUDBw4ax8yP+HipqRUKGf+o24wTYxf6AI+7Drjw4eoF4PuPFnKNVsK2tAAAgAElEQVR9hJToA85v9uw5CmVQBpyQx219+iilOXfZ9gCUZWZkSRMAeACoLFy00K66+ioJn5W6npUtAffQIUN8oAKj8rSACuOBFgGQ9sbkN6xBwwYCrTBQAwc+YPHxCWL1KLkPIEdEDYOG4Jm5ipNn7HDc7Kxh977/YY6YuQCo0D/mCBk+aKqu79HDrrv+WrEBAHneJeYPrI4YFTQqbVrbw4MeEdPA7wHPFIIjEwYACpAAyF1//XVyou3Pby+gAmBg7sDG4PBhKNBjBIfe4UDR3XzxxZcSGeMkyfraCVR8q/oH2tHH2bNmC5QtXvyHJW7YoBAqDFLp2Fg9o1vXa+SwA5E37zgbmQF33aWwJAwC7f3xp5/skYcfEWsnjcqjj6pODqn2r73+uhgt3jVYVlhGVZX2T+8O8DeAcMmSpQrPok+BscI26DqC4z8AJqr5ksH74hX0I6uKcOKc2XM0x44++hgBcr4Map1IVBwVJc3a6aefJkAAgEe7Mmv2bGVUbdyYqPR31jPmMkANwTvsCe834I5noIUDgHItYR/WGPrQtFkzu/DCDnb22Wdr3vD+AjAIL2MzgAqFKtnk8I7w7sDAsdkBfF8rRqWh2gmD88qEV2zI0CFizO679z7ZlXCyAyrFCS78e20tHkAlLCURZ7R69Rob8fQI0bdbt27RrjOgITElDhBxI86N8ECFChVt1KiRKhr2y9xf7Iknn7Bp70yTEPD22/vaicefYKViS1tMdAnttliMYQugsnFK0KvUwsgNVO695x775LNP9SKTKk01VDABu51ly5bLsdBeMmaCsJTXviwxPo8+8ohi2iz6gwcPkRN5cfx41XiBZidrgGJ2AlFkFiRtt7SUVC20MEdcTwiHOjDEn0m5BJyxg7m2+7Wqz1K9RjVfuBqlnSKVfF997TVrWL+BnAM2YeH8/i8x3KaNG1XvAkAHeFNbMzJt4a+LVPfjnXffUagIp0H8HDCIloNCdAg1vSqqaGaidBwA4kNqs5DOio0IKVx26WWqwYEzQRjKQsYxAGhpSE8OStPjLMhwwlHheIcOHSLHwEL+zDNPew618xXWr/8dql3Bgs/ulkWaGP9rr70mFoBxQWvBsQMhoOIXvOJ7KG20NoR+2DWiN6IODNcCbhg/QlsstjBi6J2orfN/7c5QdgjxfUJR7NbvufseFRgkZMSH++Gkk5M9TdIBBzRSujq75X797lBYCLEiLA00OeNAv2Aapk2dKkABqCaMhfaKWhQco8AY4ggvv7yT/bF4sb095W1r07qN2CpKmSPO5FgJgPyX06eL/UBgioiTtF+cKiLyiRNfsZNOPtkDKm3bUm5XqcEU5vv5p5/F8qFFYMeOQxZQeWaU7HvkkUdoruF4CTvwzrBBQKBOfR7Od+KD5oJ70UcAL6JrGBvqzKC1gN3Eie4SqFziMSrMoRyhH79+ipcllyJtGu9eYiL1R1aLeWJsPvv8M71z1NyhynF8lSrSVg0c+KA1bNDAbrr5Zrviys4WG+sBFUSpsFqff/G5GBXmsEI/EyaovbBFiHdJESesyAf2kE0HDh+2DeDJ+kGIj7AhWTSwTYh5g5RiMtgYP+YgoV2ExNRLYrOB4weII3JHR6YDU0uWCFWJZYLCXsK6APRTk1MtdUeaMoNgz8gWIgVe4GXWLLEmV15xpTIFYU4oC0Cb2TAAZtBLseYwNxHrk62Fbok1jkQCgE2eQKVsWbGEhMkRcrPhIQGhZ88eYgn5/PnHnwoTozlCB3P//fcLqFDHxYV+/j3nX5yeXOyACrs0xKlkTbDDQc/AroU01AYNG+pMDBYAXrbHH39MmTaABFKVYQFA8SOGP60dIM4e4SGOrFbt2rYjNU0UP4sQokqlPd9EwbezvV2N/wkYlfvuu1eAgwJMZP2oMm2USazGQjN69GjtRIhLtzvzTGlSiM0j5oMZYTfJTpCFmkwP6FpCJWQDULQpYDWColFoHRANs8iwSyI0BFCBTmf3RcrhkCFD7f0P3rNWLVvZDTfcqIJwLJy0gywZ2BQAAtlCOIeDDz5Imhl2O/wempgY94ktW2q3hIiO3feI4cO1EJ980snW945+ygRhJ4YgEoFd9RrVVQUW0MTijXP/4P0P7FkyYn78UQ7xxhtuEL0PqCCM8fTTz0gTw4J81llnqiw7Z9qg6Zn+5XQ5bJ5B3xBrHn7E4WIJ2NGTOXXG6f9nPXv1lC6EBZBdLztqwBPOCSAH08XcCDEqjGGYKJtQAePNeOAsiPuj+wmElXJCaWkSxrLDZnHv0qWrnpuclCRWgMwmUmJxKuiNEnAE27fpN9QmIbuhw4UXKiRCuElApW8/nf+EjqZHz54SZeIMSduF3aHiL2OMDU5q1UpzlSrIX3/1tT01eLDCR9iLuYSTARwQpmGuA64+eP9DhSw4u+niiy62AXcNEFNEmvJvv/9mDw58SKn9gHVCVgBNwAg6C0Jbs+fMEoV//XXXW7NmzZQ6v2LFchs5cpQNHTJURxMgYKVaLzVFAC2ALOqVkJoKqIRJpII09V1wVHzoNztxtAwAHm0gjjteQCQI/XBdDkYlP6AiILRD6ffMaRiB2nXqKEuqfLny0ud88eWX9uDAgXLCpLITJmM+kfVzzz13650795xzrVfvXmIf0fJMmDDBJk2cpFRfdDOPPPKo6r8AzKn6jJiWd+6KK6+UHeB2qMBMWASWjfeyT59bBfphH//35v8UPgEsdu7USfMSdoT3DYYC9pQUewoXpqamyC4IkJs3ayaWknWLMCBgg3olsF2Ev9ngHHjQQWKP2PAALgiP8veycXEqLPfaa68LhCPGZh1CVwczxTlgrFPUbuIYDkAggI+QGxsB1i9EvNQsgulCI5UfUAHsAAgJ9yC+50gRQl6AdzYDaAhZbwEzbLwGPjhQTDHvBbquQEyrULZLTy5O+GGftbVYARXvgK5sxWrJJmGns+jXRdrlAhJU9r1UaS2o1KqAnlVRotNP10JN6XicFALckU+PtJ9+/kkgA7Ee9Sd4cXCEH3/8kRafzp062zXdu6v2QPgH4LB82Qq9ZJ98/LHu0efWW9UGHC1AgkUIapmaJ00aN1FMFtDA4s3OlMqrlIlnp00aICp8anBAVQNSPHDisUNBrZONmzZJK0KsH+dBETscDXFkdqgACTQ4CDABdKe1PU1pqbAEhIuotYAjr1WrpirIXnXllUqhTE1JE1CCyUHsCRjBZnyHaPjdd9/V/+rVra/aCp06e4stzgbmAl0MGhMWtksvu1SiR3a46EhYQClqh7MkzMHJxixsxO05fO+L6V8odMYOq9VJJ0kIS4Vd0irZiVKx9Lxzz7dbbrnZataspfOLYNBw5LADADX0IRQWo8YNYAytCbtUMlpgxCQU9UuHaxy95CDLzsxSuifM2/xf5kscyc4fRxeEIMgOYr5xEBsOBFEwu+zbbr/dGjdqZJNfn2wjR42UfakpAV2Oo8IxEqKZ/tVXYot69eqpsBHzCuEyoR/upcPYzj9fzgAHikgcIEK9H4AK40JoEKAiDcuSJaohM/rZ0aHqqzBOiMKphxJXlpRzC4U+sT9zDz0W4R/sAsv41ttvS6wNW8MRBQAV+gxQQhSJmJNCa6SUAyDIGlJ68qhRNvipp1StlqMpKJrI2BMqobAcLBCgk9RdQiTffPuNCn0RokX3cNddd9mJJ5xoK1etUugT2yEaJQypwotk4EVH6VBNQj84TkIWgx5+SHNOgDPsA3AE+I0a9awcIXo1AAFF5AD2AF7S/HknyWa6qstVqvVD8TXWBEIdpI9TNwftBadXU/aAsWHDA1Bhw8N3nNBOOi1MC8JuwAXaEwAEIUnWFeY9AnitNw0a2NSp01Q8jkw9GIaOF3aU3o12oxUjFRiBOCD38s6Xa/0CKLGJYS5gkws7drQmjRsLlALwOYeK+QCgBFjDzA0bOszmL5gv/VeXrl30LEIykye/oTo/tAvWmY0X6wkg9rPPPhcrgw4PJo6wJ4Xpxo0bp5Ar4w5L2LxFCwFvxiM89HNhxwt1gCgbN+rK3HXXANkBoEwGJGsULxvsNnOOInYIdQcNelghKzZPMJK8ywiglX3WsqWro7LP3H/xeVDxACrh9vSFqjh7wjPsZgnXEEMnxoweA0eIToNQAC8ABYmgvdllsJmGxUBfwa4FhoJ4OgCD73R2R1SUfkctEtIcVaAp7BRSwAMaAGoqsKixG4HKP//887yDvrKyRaeSlohTYaeHk6GwGbt+nsGH3cUpbdtKKHr8ccf5J8ByTsbOE3GDk3F5+Tnbhvj/nO9nq3033nSTwI8yjaKi5UhwuBQu4+WHbWJhD87WSM/MEO199tnnCDRwUikLHqnG7LwJKbBrZCfK32kvmgraiw1gC4hDH3zQQTv1K3/+oQWasSA0QgYR7BPPZDGGzWHHyqGERzY9QswHIQ50LW9PmaKdNoyAKmnqDBtPTInOh4UTkMGunsMh+S1iZIDkyy+9rBRaFnlAGmckYVuKhTH27CqvuvpqO7NdO+88I+84V32C0vLQ1BRUY4zY4ZLqiTgR5iG8sBjfEUagvggAAuYOQAPwAJAQgmQe4lgIMTHv+E1wOjI1J2CaVADLTAW9YE0Af8wThKUABmpPkC0DSwMbRbgRwSdzUGcM+WFFnBu7W4ApwBcxMenlMEtemn220oyxLU6PtGB20QBaxoTdPWOF2BM2jxo9OFcYnc0bN6tt414cJ9ElRQLRMZHO3qBhfXt21GiF4Zo2babQJaFDsltwxIAFHBVZKGVKl1F7sQFjS2iSzDCcG+NB9grzjbAb7WaXTSVaiUxLRItRgaUhlbtTp8vlJEn7RuCce9MA+AJA4WBxfgA3QA2C6jXMycxMheQI2Z10UiuJxXlPKCj41ltvKmUfm8CKISYl7ZtTrKkyfNppp2rDgU6KMQXsAyJI9ScMVbJkKYWLCHHxHtIX2BQAKNk669dtsJdffkmAntAX/VOqPSedZ2SKqfLYz97WvEVzVchmTSLDiDlF35j3vLeE1gjB0B8AOmsBodblS5drU0ZROQqyIaBl8wTjBxDjepgKMq5gNukH7+zoZ5+1Rb8tUp/jq8SrbdRj4jmA5ksuvVQZPPFVEmxjYqLGgxICbGCYM7CEOlogM1MbLGwDi8xGir9jH9pOyJP1A/DHOwpQYb4BntBXTXl7ig7nhIVxQKX4gId92dLiB1T8MzTSqGC6fLmyAtg14khYpHBUOC6qbrLg4OgOO/wwLfQ4QhwFtCmZQezWOMSP3xJPRgTJAsfijTq/afOmKiMenDQaDAwvNKwHO+yfYWWq11CqKCmRnif0mJCly5ZKY/HNN9+I5meHg+MHBLAQELeGOiddl8VVJ7QGR5zmmgUs9pwVQg0LqGJ2K5d3ukz0v2qBZGXpmcTpoduxC+EvYvUSyUaXkIC2VauWaie6A2Ly7GCD801IH+UARLJZWOCwEzbjHCR+g/AStoA0zuCDI2JR/+jjD3VOEvFo/kY/cczsyshOIPOGU5l1Sq8OKcuUhgPmibZSmI702cz0DAEUalDAkJ1w/PFiu8qVjxMrAlNE2yiTjjODFQC8wHqQSsmOjTTdU087VanJxPBLBrtwHwAGpe8JMUGLA86wP2EYdEZoEMIP9mO8EdQCjliMcTLsGGGPcJy//vqbmDPsTfFB6HvGGDEv9qYtpMrDNvBhgWbRpqAYDBe7feYAWTuky7LbZwcK3U9aL6ALR4ojJPzz/fc/2Phx4zy2qmJFa9fuTOvY8UJpHAIwBlVPDRg0PT/99KMAEc4DVgUnQZgG7QJ6JACXV/kVgJWu4l607ccffxJoPeLww3XaNinv/J2aQAhsYatgM5lbOFD6Qp2POd9/r7ACFaQ5Zwc7kCp/7LHH6ewe1QpatVqMG/VzDjnsUN0LLZd3inO2hLcvPP9C6JwopTz7hfaCd4x/MkcBx4A/QpSE/EhRp+ov4JS5RAiCirhoLUi7xYHSXvRqCMRpL464Ro2a1qJFc6NMPcXzAEmIbxGm8w4w7oB/BKgcfEk6v3deUAmlKVP1luxD1o9AbwXbQl8JpcCGLFy0SMUXeVcBP82aNVf4uXHjRh6A8Ss0w1DQHyr9shFjzvJe1albV+saLBn/ZCOADXjvPvzoQx0dAmhgDWQ9ob9s0lgHYQqZLzAgMFy8dzDIXI+2h/uULRuncDDpw8HxCgBvwl0U7uN6wrzoUFqffLLmdKDjWrNqjXRssJpodbAz60XLlq3072+/9ZZCwtSvOvbYY7RWATBpB+sEIlzmuqtMuy8hQPF4VrEDKjiN4Mh1fDp0PwCFegCIs5j8FE4DYLADg6LFaSDu9JgF7/hykD0OgpcU8RlhH4AKu85aNWvJqXr1MKI98JDrZFOyRRCLZpl3IikLQgWYlzD9A6mZvPwsiokbEpUJBEOC02GHgXOk2ib/TZG0HGeZ+PMnCHcFqn8cAGAMDQVOuRTshY9vgiPVYSMQ3FLIjZg7O32uY6GvXKWSn3ocI3DD7tWzh3eAGrspMlwQbhLjZkfErhpxLXH/8FNmgynO4sPv6CNgirRDnlc1PkGLmmxJuXcd0sYJwF7WAqAEGwESGUOEgNgL8SALINka7CS5FsYrYEVYGFm0WVzZ9SOepK3sbqkDQVoq9hWbxCnBnLvCJ4xRwRkCltixJienyHmiQ0DArLEIu55/VYHB9Rt0sB/t4P6VKlfUXCRchg02bdqsuitkOzE+6B9w1FwrB5yZpfomiI3TM3bofsw7foud0TQgxAVAAUyZV7A72Cs47Zi5CCjjIDnaDdBknpMxJkAWNk+xEWPCLhnAAWNAm6jSit2xH46col0AeY0NhyxmpNv2rdt0xhGgS22rVk1zlfauX79B48n5RXFogyzb0ndwAm+63kPCJ8w5ABk2ZQ7AGunoAaZ5VJSup0w+84bxhl3EIQaF+zjnatuWbWoL9sOOMJ85DsAORNGMT1a2no3mCTABCKaNMFT0l37r3oT8Ano0yjRmejd3pCn9vHKVKtJmYRtsRtvYvABI+R1FF9H5sNYAUqjXBEDm3SJMGRzyyJLhgUv66h1ayTvJ/3i/6BdpxwBpbIvdc6Qt8w4nJWsusEbxTgFkuJ73HrazdKxXIJK5RbtYZzzQkazrAVAVK1bwbFCpYujkb+Yz4I7K1WjQ6D/vX8CAkHzAnED0zpzl3lElonVP5h3jhz2DAymxPf3k0MSUpGTbsm2rquLCGPF8rsXkiZsSVVCS0DMhXvrLWDFupUqVVhuZa0GdmeLhQl0r94UFih1Q8ah7b7EJHC2l6lkYcCbs4pjonNuBg1LohCPHFZKhFGoAWDLkOFn5CBXhtPh3FiReGoBMkHqY10DACiA+Cz+ePfdx9LTHO9gPB50hNoB/x7mwKAsg+MeoB7U3gv/2iRmvs77TJL01/HmhfvnXhC/iXi0zjl4nDThDCxrhESzH77wD0IBZ3v2D0uRyIhnpWlx3HkHv1XgILSACbl6IKvgEizgOlkWQ/rCAB1kaXrs9QIShlcLs3xMHSbu8kI8HnnDS2E+n7fraJO/kXU+nFDAejIFXBRctD1S8Fz7yxt1ziqEwjt9eFlaBO5+98rrj9Ud9DMJ84ad2cwChKg1780cslupmZAoMwbrRdsIs/C1IWaXNarfmq/d7Hk67vd9798UJe056Z//4Lmg7/Q3+PUhz5z7MW82lnC5c9g1sCaOmFFjGBFDsh7880G4h8BmEGZkzOFn+GdwjCCF6759XGZqOBCm2nm2idW+eLTvQNs27mNDxEMF8CdLDZbtorzqwwj5sDPx7eP3z5kTAKOV+F4MijF4mjXc98x0gxr1gxwTGo71xDZ7Dv/Ns2ouDpc3h89V7/7zxwbah2ji6v/feAzBx4thB866EV5Fa/cnO1vdBqCqYO/zTe0cy1Sdsw1zXvPYnXrAuMD7eBiLDa18MB6d6zFoQvgz6rWnrH2iIDRg72sXcYB0M3vlgV6N++e+j5gfrn3lzwdtIeOMQjCc2JMTHPNe7HNhT7WY+Z2hjF35itBfG89YOTRfZE1DjvS/hU5b5lONd3Rfezz2j2FigWAKV8MUuWBS8l8pbrOSMcy3cwcITXOcttCxWrIa+g/IXJ90HL4asIdxx5RrWMAyR46ULOW8Wb79NHuvhOyEfLIUWTb+WiH7nl5UPFq3AmQaLV+AoQ+2TMtQnfUKMQRiAYEHynZwiS/6CgIfyipGFOWj/Zx6g88FLWGp4iLoJVrDc9vAbEnKoodHw7BD+dyZeQPGGL7o5bhlQRT4Izb3TCti1cPAW2jH7v/3b7swX0gZARcPrM2bhwMufRqHmqI1aW3faW4urX8gtT3AT2NE/qDJc5+T9lnnmz9cAUHkYyHu8D2Jl7r81zgMMgaZD9w7TUQXzWzb2/x4AEe+J3lwI7h0AqCBsiWMKzW+1Lezj21aAL0RWhV2R4+KdDjQ4A0pjFABOrMA7mPvjt5l+qI++s/37hTn/4jlrDyzodRI4DHu/fUZW3/rgVIAk02MFvA2N/xsfcITPVW4ecqphYxIOgIKaKkHRx7/NWw2AD1r9wQgI1dDa4QNbNdMHVOqPv6bk3CT4RC5TNC9TBhuZsNPPg3ecHwiuhbFTQXvDwVUAqlXzyB90b6Pj2TbYNMo+bDaYd56RQ8A4RGTlNd4FDaz7/j9tgWINVHKHZMIX6jxHNczx5Vh5wxZ4bw3x3vi8XvqdnivXE/JcIPJeOPJsZ+CgfKCSY8ESaAjb6Qdt1Frg/z28b7uY0kEUy3NU7GCjBMhy9CvcHrmBSl73Dm4atCH37/P6eySvXV59CmtPiPjIw/Y5QFUeTjbf+RH+Ra55keOrMICRX1cC9kjreu57hdskvP3hfQ4BDN+b+aAyEtPluCa4T7hzDC7I69ny9AU8JQ/WKS+wlu9dvNML9MnzPcvL9nmNs+cLd4Ixj24V+AmArF4t30mH/haAl3DQ5f8tByjN3YFgru/2IOzmD8Lfu7CfipHIxUbkO9d3tQ74YFGALoI+eeAtbE0MwGYYKCyohwHwDgHT/N6Bgm7kvv/PWeC/BVRyO6ydaCDnuh4AlWARzM8553e/XU2j/JxfPguT5w/Ddl/+vf+2mEYIVHL6YZ95CkBS4A/3FKjkY88QKNyF48/TZAUAldBv8nNgu/s6577Prtqbl6POz6ntamx25STCgUrA6OSHniO6Tx5MY34gqSCbRtL/guwfDsojsX0EQOVv7GIQbgsDNHltRMQehJgFD/zk+bgInHpB3Y7o+3zWg0hARej+uxojPwwWYowLGO+AXcmxfkQA1nd5vQMqEU0Fd5HHyqLNm79ggbLaOOGesK60hgpjWlQ2ynLy9KmimffbW0RMGYkjzOuFjOR3BXWxoIU9AAG7us9ugI1CXS/D257Xzr+gvufloHf3N5Fen7ut+Tm4wJaRjEt+gLQgoBLpvSPt2y7smCM8trvPjZSdyG/+7eqdyf2bSNsWtCn3RC7oXYzk/nndM5J5Ew4OInnOno5rpL/bjfUgz1vmt0jktRGJtE05dzq75w8KA9zuSTvdb4q9BfYvoBIpGNgbjjWSha2gRXhfT6d/sovdVVv3Vj/3xMaR/GZXQCW/ne2+GKswO3rKizCtSKT92tN2/pv9zu0Mg//e233eU1u53zkLOAvsVQvsf0Blb5krfHcS6Q51bwCivdW/4njfSNix3XVuuXfVewt07Y69C2pDXozY7vZ7V+0piFHZnb7kB0L29B7ud84CzgL7vQUcUIl0iPcEqBTkYCJ9trtuzy2wpw67IEahOI7tntpiz63vfuks4CzgLPCPLVA8gUqhCjQitOHeBCrhseiCHGSEzXWX+RbYW87ZARU3xZwFnAWcBfaJBYonUCnINHlR4QX9pqDvdwVUduUMI3FoAVDhn+GgJb/fRgJmItGfFNTn/eH7vQVU9gfbuD44CzgLOAsUAwvsF0AlVLwoVGE0LLcwEqBQwEAFVUWDFL3dOouigOcL/wTOdFcAZFfZOLur4t9TjQ12isSeRQkkOaBSDJYh10RnAWcBZ4H8LVC8gEqu9DavbHumpaWmeqfvlozReSLeKbwFVayKfFpwb84k8c6hKWPly5WL/P67YkV89kSX+LVSlN2RnUexufC+55XmV1A4LIyp8Q4/zFWbJVKH7oBK5BPHXeks4CzgLOAs8I8tULyAil9WHAaFszw4NRcQkZGervM6OKeCmi8VKpTfebhVmIP2Sn7nVVx/13ZMTuEQOA4u26HD8ig4E5xho1+Gh2ty3yoCoMKZHhyuSL849l2HKIYDrTzuEZxhFHpcQUAlrF2hCpHhxcMcUPnHL5O7gbOAs4CzgLNA4VugeACVsJCIDtzKSNfJrKtXr5Zz5+RXDutKSk7WmRNV4uMtPr6KnH7ok+WdGBqc5xE6JyUC5gWAwomkAKLSpUvrFNlwIKHQE2dm+Id8BWeT6Nm5QEaIDPH1KFzLiaKcFsvpypy+Wq5Cee9E5aDxeYR9cpxhkuczPOQSuke4DcPO/sjr+5DNcoGX4CCzAqGeC/0U/pvq7ugs4CzgLPAftUCxAyqc8glwSE1N1RHhnHRcrlyc/rl+/TqxLLAeOoI+ruxOwiEr2zglNC0tLXTyaHBqb3AqKRdzQmhw2jDMBt/xzJTkFP2W0E+ZMrEKA3E/DlrjlFhOQwUVcGAXYKZ0bGnjVOdt27bpebSJ00UBGNwnNTVFJ+Zyr+3bvOPZ+TvHnFesVNHKlS+vEsEcHMfpzunpO3SiMQCJ+3DMO6ecCgv5p6Wm7UjTKbmUxeb06DKxsTo5VifVhp0i7Z3ImqXnBafsQq7wm1I6nbWEAJ2Yq7QdYq84sp1ncxKqmB+uhfmh/9nevWifwEx0lGwQzgwVCG4CZuo/+iK6bjsLOAs4CzgL5G2B4gVUOJI9I9N2pKXJeXuhmDiBApiL9evXy+HjxGvWqqnvQqREpne8+uo1qwVGOJYdoMHfSpYsJftiXRcAACAASURBVFBDOCcZQJKaaqVKl7YKFSpYhYoVxNIkJm607du2ia2BUQEkbdu6zUqXBkyY7gPTU7pUKYuPT7BKlStaakqaLV26REClTu06Vr5CeTlyfktbAVfVq1WzzVs22/p163WP0rGxVrFiBYWXysbFWWpKiq5PTUk1gAhtRIdTtWpViy0Tq+4lbU+yrVu2CrwBoAAKACOuASwEYmOFvaKifOCVaomJiZaR4YELwEyZMmWsUuVKsgWgJDkpxTZu3GjJyUmyVdmycQIwqWlpVrFCBatcubLak5aaZlu2brHkpGQPsJmJGapUqZIAC8fY53X6b44pGWnoyb3JzgLOAs4CzgL/KQsUL6DiHyEOWPEPIhILABuQkZ5hK1eutC2bt8jZVq9e3XPkvnaDkFFKSqr9+eefYifQsuBkce4pqakWCwtSOpbD1QVUYCa4pnqN6gIUACAEtVXiq1i5uDhbtWqVbdy4SU6d72E+cNg4aoBKrVo1xTIsXbpUByrVqVvHKpSvIC3Nxk0bLXHDBrUdoJKUlBQCKnHlygkEwKrAbPDcDRvWq22xPiBLTk4W6ElISFD/1O8tWwSgAAbYB3DF9wAtD6BEC2TQL/q8detWgS8YHUDJ9u1JAoBVq1UTwMGmgCnCa4TWADGAHvqEZgcQUrVqgpiZzZs3i3UBa8BASTeUmWlxZctaQnzCTr3Qrl4tB1T+UwuP66yzgLOAs0CkFigeQEWBC//4dl8HEnSQnTo7/K1bttj69Ruk7ahWrZqVL1/OC434QAUHja5l2bJl+ilgAtaBv61ft86iSkRbxQoV5VR37EizDes3WFZ2ttWoUV2AZd369QrRoH0pX76CwkyAiMqVq1ilShXloHH+MBBcX7dePTn1ZUuXypnXrVtXTAnt4JoNiYligurUri22gnsRJqpYsZJVqVxZ+hrAB38HSFSpUsXKxtG2HbZm9RpLz8iwWjVrWkyJGF0DUKhQoaKExIRZAD/cA1YIOwQnwxLqSU1N88BYZqYAEKGrrdu22po1a8WS1KxZQ+1ct26ddD/VqlVVP7OyMtXuzZsAaHGyISEsj8UqLfDC3wFCq1evUb9q1qwpm9HOXX4cUIn0nXXXOQs4CzgL/KcsUHyASna2QihoLkLhHGkvTMzAmrVrLTMjQ0wKLEVUiagQSOEaHC9MxPJly6UlwYHiWJOSk2zlipViaAA4MBCWZQI0MAcAlXLlytv6Dets27btlhAfL0CwcWOigBHsA8wCoCBxQ6LYDZiaenXr6Z7Lli+3jMx0q1evnlWqWEmgBaCSmLhBIZx69epbVLRZ4oaNuieABNYmyqLFZqxcuUL3i09IUFjJy3LKsOQUAEQ1sRzcD5ADoCHkAtgh7BVoSUJABUNEmcEu7UhPF4MCUCN0BNDhn5WrVLYqlauo72Q6wcbUqlVboSzux7PWrlknQJeQEK+QD3bAltg9AFNLlyxVuIpQWULVBIstVdoBlf/U0uI66yzgLOAsUDgWKB5AhZAPQMWyrQRZOmCQrGw5W0IoaDhgNOKrxFvFihUlNvUIGL9WCKGhjAxLSfIYFeqtAFRw6oAXwAWhigb168vxo/PA0cKI1KpdS8yL2IWkJAGGCuXL29p162zTxo1WvXoNARWYHNoBuEBgSsgItgeWAh1IrVq1rGKlSmIvuC5gIQAw6EMIs6BVoQ/xCfFiQNauXaO/x8SUVBgLISt6mIB8gAGKKxdnaWk7xOYkJyUJyABYYkqWlC34X+nYUj6jgkA205K2J9uWLZvFrNBGhc4yMsQYVapc2aomJAgIrV27TnYF/MUnVBEDg5Zm3br1CnlVrVrNkpK36288B1shAKYNy5evsJSUZNkYMFe2zE5hc55T1zEqhfNGu7s4CzgLOAvsZxYoHkDFPKCCl8YJw6wQXtiyZascOdoLjw2paCVjYjzhJg44FB/yRLgpSckCKgAZgAoABAHoylUr5agbNWqkEAWi1SVLlsrh1s4FVNB9oAVZu2atbdq02WrUAKhUlTiX/16zZo3ag3PHyaNlAQxxHeETMooQscJMIE5t0KC+D1TIWNpsVarEi6ngQ/gpcWOiNDBVqlQWW0Hfd6R52T9oVgBWsCGIi+kxQAQAQmgqCM+UKRurfmEX+sQ9N23cJEaHUA/3oO38BvaoevVqAmsAFWxOBhWaGbJ6NiRuULu4d7Vq1aXbWbNmtYBKnTp1FAIC4P355xJpgbAXwmB0Li70s5+tHq47zgLOAs4C+8ACxQaoYAsYEsIPiFYJdQBSYDnYteMMYTX4nn+WKeuJP8M1KmT0LF++XKACoIKzFVBZuVKOucmBTRRmwZkvWbJEDr927drSfcAiJCVtF6OC/mXd2nWWuHGj1axRU4wKoARnDwsCiACY0A6ACwCEZwECCMMQYtm2dashnIXFoc0AAABMmdgy6gvtp70wL4Rn+Fv5CuUUwkK7QqYSAlfQWFAsDuAjMWtamq3fsN7KlCkrAMd1sDFcS582KDsqUX+n7ehUeA7sFAxNDbQvMTHqI/VdAIAIY/nw+82bN4UADQBp7bq16gMhIzQx27Zvs7Vr1yo9GpDD36KtgErBjlHZB6+7e4SzgLOAs0Dxs0CxAio4WpgPHP2mzZttU+JGTxAa64VFCLlwTcAUwJgAGtBZ4OABOMuWL5OTR3uCzoL6KCsI/WSkW5PGHlDhGWQHpaSlWu1ataRbWb/Oy/qB7eC+cuyJiQIkZLYAQAAksBC0BSDEvWBOABY4cv6bZ9NmxKxk7sBCQBZx3bp1a6VhQZyLVoUwCiJXQkX8BjaF2iuwJmhCaAcsCbVjtm/fJkxG0bngg+iX9sJy8Fs+3Id2Eq7h3wkpEVpKS0tV5g/3pO0Apc0+y8JPuS8p29xn69YtEhRXq+5pZABdXqpzhu7lPStbbYSxYTwKrKPigErxWz1ci50FnAWcBfaBBYodUFGhslQKpqXqf16UJ8ovvhZlURREi4kRCImNLeMBFV9ASqYMTjYQnUqPsiNdYCBgBPguIzNDzhxHDpgg9CL9R3q67ouoFSYHpgPHzt/4He3B2fM8/q7057SdGTbhFWtVUbd0rNgaPlS+hbHhmTwPZoP2IRAmdMSzaCvaE9gO7k/oh77DCm2n1kl6hvoRU6KEfhsUpwNEeWXzo+CkZD/uCXMEusFmfABAsEAwVKROU8OFftImfotdU1K9ui70GbaGdgBQAGPck/FRwbvSpDTHqh1B2Ck0n/M6csABlX3wurtHOAs4CzgLFD8LFC+gorP0vOyfAguIBXt43wHS0aCEvjdMUdKS8AnYhuDvOGbuH15uH8Fr6L8JQmWKZhAACK4N7hVenp/vct4/5yQJvg/uH3y7s488I8tLz/bb7YGz6JAGh2upDht8vFRkr7ib6BoRTV4WlCTJ2A89i8+yBL9TNdrsLH3HV4AjWCQACqwVH0JBFLpDL0M2DyEtDlHEZuhveFIM6dB+v4P6LX97NXZ1GnTxe49ci50FnAWcBZwF9pIFiiFQ8U/+9UFGvnbJfdKyxLiwB54TFkTJ50waHHjA1Mi/c32uQ/8CIKFrw0/VCU5E5u8FtTGs8QI84dd7zfU+4YACDJKr4UGNmTCkErpG7Qzum/vgwnCwEJw9BPPiAxoyidDYwOAQhuKxsCaADy+sU8nTAYUByNwAMF9A6YDKXnql3W2dBZwFnAX2LwsUO6Cyf5n/X+xNfqEWL7lKLA5hHkJghHYQGwN6CAlRmRcmhfCOl968i7hNfidLO6DyLw6+e7SzgLOAs0DxsYADKsVhrCI5jTiSa4K+7koP4ulgpXXJzM4SYPHOAiK0FCWhMHVoEC4rpMVBjLlPoN4VcxNiiXIZ3mlUisNMdG10FnAWcBbY5xZwQGWfm7wIPTAvcOAzHUyMUMG88CbnDj0F98jNkOTVzV1d44BKEZoYrinOAs4CzgJFxwIOqBSdsfh3W5IbcOTS+OyycfmFd8J/VBCQcUDl3x1/93RnAWcBZ4EiagEHVIrowOxXzSoIpNBZB1T2qyF3nXEWcBZwFigsCzigUliWdPfJ3wIOqLjZ4SzgLOAs4CywhxZwQGUPDed+tpsWcPqU3TSYu9xZwFnAWcBZAAs4oOLmgbOAs4CzgLOAs4CzQJG1gAMqRXZoXMOcBZwFnAWcBZwFnAUcUHFzwFnAWcBZwFnAWcBZoMhawAGVIjs0rmHOAs4CzgLOAs4CzgIOqLg54CzgLOAs4CzgLOAsUGQt4IBKkR0a1zBnAWcBZwFnAWcBZwEHVNwccBZwFnAWcBZwFnAWKLIWcEClyA6Na5izgLOAs4CzgLOAs4ADKm4OOAs4CzgLOAs4CzgLFFkLOKBSZIfGNcxZwFnAWcBZwFnAWcABFTcHnAWcBZwFnAWcBZwFiqwFQkBl/gKLj4+32nVqWamSpSwrK9uys7MsKsqisuPi4mzY0GHWpUsXd8ptkR1K1zBnAWcBZwFnAWeB/c8COYFKFatdp7aACn/PckBl/xtw1yNnAWcBZwFnAWeB4mSBnUBlvsVXibfadX2gkm2WlZXpGJXiNJiurc4CzgLOAs4CzgL7mwUCoPLLfIBKFatTp46VKlXKLNssM8uFfva38Xb9cRZwFnAWcBZwFihWFsgXqFguoDJ0yFDr0rWLRUVFFasOusY6CzgLOAs4CzgLOAsUXws4oFJ8x8613FnAWcBZwFnAWWC/t0CBoZ/oqOjsMmXK2tChQ6xL164WnZtRyU2wZOdhs4JImD35DY/Z09/t7rDu6XP29He7277Cuj6v9hbWvYvSfQqaj5G0dV+O7b58ViR935Nr9tc+5LbFnsyt/cE2kcyJ3P3cE1vtyXMi+U1Ru6awbLO35tY+vC+PysrMspSUZFuwYIElJCT8PevHAyplbMiQodYVoBKdy4IOqOQ/xffWYO6tl8oBlcgtuy/Hdl8+K3IL7N6V+2sfHFCJfB7sqzmwP6xjDqjsnFfZcBLZlpqaavPnz7cqVbz05JIxJXemJwdAZfCQIXb1VVebZYfNAhkzD6QSPlHyvCb33FZLdn4i+o1PqezR7yJ/t7wri3r7drc/+V2fq5+Fdduidp/C0lkV+C4UVsf3dP4V1vML4z77YR/yBCl74GHC55GW1D24R2EM0d6+x9/6mZf/KIxGFPN1LGL/F4mt9tZ7t/fuiw52pxaWf/dgRkpKqi2YP98qV/ayfmJiSohp4bsogEpsbKwNHjzErrzyCsvOPdks/KbgmKy/W48H/w3QhAGmvH6T675/gzZqx9+hc1RUdCSjt1vX5NmnItS+3epMPheDWHOA0MK4aRG9h/cS/DNn4L0Hf+eyC1tsnvdz8GWFP8/35nDl9Q4VxjjszTaH3zu/cchjsduthIO837uca+q+6uPefM6+nMeRj9Xe7PE/vfc/nwN7y+Z77b4hHxQF8JABg//PM1NSUmzBgvmWkFDV6tatazElSlhmZqZFRUd7QKV06dI2ePBgu+rKqywzKzPXCLjYT/5Tcl9xnf/0pQh+vz9wppHY4p+BlDCIXcC7EElbIrmmuM2jvPq0v/Yhd1/3ZG7tD7YpSvN4f1jH9mQe7cv3bm/N2Wwxivo/NpTZgvKWlYVGJcUWLlxg1apV94BKjAdUoqNL5AIqV11t2Vl5MCaRzFF3jbOAs4CzgLOAs4CzgLPAriyg0A9sSpRACmwK/0tNhVFZYFWrVsuHUVHoZ7B1ufrqXYZwnPWdBZwFnAWcBZwFnAWcBfbYAr5GJ5BqEWVX6AegMt/L+gmFflQ+X6EiNCpk/QxW1k+JEiX2+Pnuh84CzgLOAs4CzgLOAs4CEVvAByrJPlCJj69itWvXtpIlS3qnJ1u2B1S89OQhXnpyieIl4ovYGO5CZwFnAWcBZwFnAWeBImcBGJW01DSb/8t8q6z05Fo6PTl01k8AVIYOHWZdKaGfu45KeJcIKBWGBqgo3SfQDP3TfhWlPjFmhdGewrhHYbWlsO5TWONdWK96YbVnfx2rwngvGat/ep+iNv/21/EujLEqSrZx73f+K2WYbahMmwpQmf9LqI5KDqASZVHZZcuWtWFDh7mzfgrL+bj7OAs4CzgLOAs4CzgLRGSBID15/vwFAip16tQu4PTkiG7rLnIWcBZwFnAWcBZwFnAW+OcWCMS0v8yfb/ECKnVyApVoi8qOi4uzocOGWZeru/zzJ7o7OAs4CzgLOAs4CzgLOAtEaIGCgUpUtAdUhg61Ll265H0QYIQPc5c5CzgLOAs4CzgLOAs4C+yOBQKgotBPvB/6KVlKxdQpBqesHwdUdsek7lpnAWcBZwFnAWcBZ4HCskA4UFF6MhoVgEpWtmVlO6BSWHZ293EWcBZwFnAWcBZwFtgDC+QHVFRHxQGVPbCo+4mzgLOAs4CzgLOAs0ChWSAnUIkP1VEBqOwM/ZRFTOs0KoVmdXcjZwFnAWcBZwFnAWeBiCwQAioLFlh8fLzVru0VfAsBFeqooFFRHRXEtIVRGCmSphW1AzD3Vb8jsY27xlnAWcBZwFnAWeA/YgG0KJz1M98BlQJG3AGV/8gr4brpLOAs4CzgLFCULOCASqSj4YBKpJZy1zkLOAs4CzgLOAsUmgUcUInUlA6oRGopd52zgLOAs4CzgLNAoVnAAZVITemASqSWctc5CzgLOAs4CzgLFJoFHFCJ1JQOqERqKXeds4CzgLOAs4CzQKFZwAGVSE3pgEqklnLXOQs4CzgLOAs4CxSaBRxQidSUDqhEail3nbOAs4CzgLOAs0ChWaD4A5XdBRB7Wp9ld59TaEPkbuQs4CzgLOAs4Czw37VA8QYqewIeHFD5785213NnAWcBZwFngWJnAQdUIh2yPQFFkd7bXecs4CzgLOAs4CzgLJCnBfYboMJZAHyiogpAFJEyKvndJvh9YQAX7hFpe9Q5fwwj/Y1//5BtuEF4u3P3oaD7hn+fV/+z6U62NwaR9o175mfLvPqb+775PMfrc5QVNB12e13YVXt3+2ZF4AeFOZ+LQHdcE5wFnAX2PwuEgMp8zvqpYrXr1NZZP/w9i9OTi+xZP7mcm05QpLV4pl051Ly+y+2go8MARPhzuA5nnJ1tUdEFIJVwB5qf0w53xAWBkNztiGQu+s/l4CYPxOUCcnkBlV04LvU7QBV5dJ/veVZ0dJRnn/yAD7/N8gHK3gQq2VbwOEVixwAfBmB4V33bjfv965cWBDz/9Qa6BjgLOAs4C5gAic76KVZAJcxJ4hizs7PkheUgIzg1MWAY5Llxvrm23TtPZOSe0f5lOa+DOcjMyBQbUCK6RM575MNU8Bv9wHd44RMwB/DJ5eBpb2ZWlsXElLCszDBAFn6DPH+TaSVKlBCw4kNf+Hjt8EHL335H80ARwccDf+qSmu6DlTyBCtfsBDOAR/7Hc4Nnew/eCQR1v3D7+/cVUua3Jbw2qwW++TIzM2XCEsF3AYPjdU6/C/0maHsOY+/61ffGP1PP9voepedlZmQI+PC38OcXq4XEt31GRoaaXaJEzM43pjBYwn9gDM1Lf/yimDOFToftbJxANYOYDbD2xtl9nAWcBYqmBcKBSkJCvNUKPz25KDMq2VE7d+8sOhnpvhOxaB885LH4+GsR1+KMSsREC2QEixZAx/Pkf6dAwgEQC6roJn+JD8Id0VHes3N/8Ps4/4zMDIuyaDnYEPuzEw+EraI576DnZfpOO4zxYPDkkH1nGvpVwKRoAKMMp4TzjomJsRIxJWSrHenpViY2dmeYhm4HACoI4YSzJwIJfo8DFiSXmbBpZmaGB0xKRHt2BVhFY2cPcPgIQo6eNuH8cZY4pSyFjcJYH89vWUZ6usXElAw5rsysTN3Ge4ZZFsDFsi0mOsazv9q1C8hagE/imQAVOfNss5IlS4bsCFAB/PF3PSE301VE/V3Qp2COhsAr74sm0b+7QDEXduzYYSVLebbmv/+2AdhVE/Ni5vJhMjMyvPnCe4gdeI8YUwdW/t054J7uLJCfBQKgssA/PTkHUFE0xaKy4+LibNjQYdalS5d9t6DlpqX9/2aBCfwpzoTFJSUlxbZt22bbtydZWlqqHEtCQoJVrlxZi1BoV+7vmmAnxCtkZ1tqcqolbky01NRUOdS4smWtbNmyVq58Od2H3/NoQEywy+efgI6k5CQ5/RIxMVYurpzFxpbOaeconGiWJSUlq41btmy21NQ0iy0Ta1WqVLEKFSqIJQkWSPoV8hehsE2WZWZmWVpamm3dtkX3YxEvG1fWypcvrzhdaIENAzE42S1bttjWbdssNSXFYkrEWIWKFaxipYrqF/eJKRmj9makZ1pySrKuEwjw7xPc1wNVHitCm0uVLOmBlmiPkpOTSU+3lGSvn9u3bxcQrFy5klWqXNlKly6dy5/7AAaHlJ1tO9J22ObNm/U7AB3tYwwqVapkpUp7cUieLYaFh/rPTduRZlu3bLXNm7dY+o4dVqZMGauSUMXKlSun/v7NLnmBwvARCwu/eSyWx9xs27pVTpQ28S54LJUXSgv/5PW3orL0YDtsHIABbFS6lD9fi4Duhvm6adNmgcOSJWOsfIXyVqpUqbwZ0jzCk96aEMbO5RNKZVxTUlItKSlJoJo5w5gC4t3HWcBZoAhaADKd0E9Kii1YsFAalXCggs8oOkDFW4e0E/Ko/ShLTU2x5cuX27fffmfz58+3rVu3yOmVKVvGDjjgADvyyKZ29NFHWcUKFX3K3gvjwIZs2rjJfpk/33784Uf744/FAjo4tmpVq9mhhx1mxx57jNWrX09OVrvn6Cg5dxZSnOPs2bNtxowZtj1pu9WqXdtOO+00O/yww/ywgNfG1LQ0W7F8uX399de2cOFC27p1q6Wlpql9jRo1tiOOPMKOPPJIq1o1wXN+XgQrh2gWRw6AWLhokX304Ye2Zs1aPaNFixZ28sknWZ26dXdS5L5+hgH9buYMmzljhi1dulQgB+dfs0ZNa968uTVv0dxq1KypxZnnZaZn2tJly2zatKm2ZMnSncSH74k9oGIWF1dO/WzRormcNjYh/LV502b75ZdfbMasmbZkyRI5Q4BDgwYNrFmzZnb00Udb7dq1QyETgYDMTMvMyrA///xTY8Dv16/fIPYEcFKrVi076qijrGnTplazVk2P7ckyi46J1v1Xr1ptP/74o/3400+2ZvVqTWKcDs856KCD1Me6detabOnYv2tl8mIPcjEjvBjpGem2YsUKe+vNtywxMdGOPe5YO+GEE6xatWp5vs2As8BWRe11B4i/+eabsnNC1ap2atu2dsghh2gOFAiwdqFbKqx+rlmzxia8PME2btpojRs1tv9rd4bVrlUrFxLMGTYMR7/hG4ocDFGu0GZGZqbNmT3HPvzoQ83Rk1qdZC1btdR8dh9nAWeBImgBH6gkJyXbgoULLTz08++LaXPbK2BUCPlkZokBWfTrr/baq6/ax598Ykv+XCJGg503ThC24aADD7Irr7pSzjWuXDmf3jXbtGmTTf9yur0+ebKc+caNm/QbMRVly1jjxo3tjDPOsAsuuMAOOvggLeZ8t33bdlu5cqVNn/6VTZ06xWbOnKl2ADb63HabnXPOORbja0JwnD//PNemTHnbPvzoI1u6ZIl2iNwH6hlG5fDDD7eLL77Izmh3hlWqWGmnQw1zmjjo1atX2yuvvGJjxoyxVatXK2Rz/vnnW48ePQQEpP/wQRy75m+/+dZenjDBvv76K4EjwBXOqGLFCnrmueeea+eee57VqlVTbBChk1kzZ9mAAQNs9pzZ+luIdvejGzAq8fHx1qfPrda+fQerVKminHJi4kYBscmTXxdwo62AO9gO+nTooYdZhw7t7cwzz7K6det47YwyS/PHb+Irr+j3S5cuE6DiA1NWNi5OfbuwQwfr0KGDAAftii4RZb/99ru9/9579s6778rxEj4KNDC0CYBy3nnnafyaNGmivuxEX/m/iIFGwt+cW3JKkn0/5we7664B9tvvv1mnTp3smmuusYMPOtgDTv4LJH1UVJTmEIxPVAlPTxPKtgoXXnuyiJxsjH8frlc/fC1QVoYX7gtCTCI+QjIn7ybZ0J67EPd6eppssVW39+1r77/3vtWvX0/z9Yz/O8NK+aGWHPbJLYIODwX6UiHpmHwAH+iHAg2WWM9AVB2uH/I3G9po+PqwoM+//DLfunbtqvnTunVr69v3djv8iCO8SJ7YzJ2MSYh59OVeOyM8+TMqvAPYFuaPd+mxRx619IwMu/766zSmsK/u4yzgLFAELZALqMQnxFttX6MSSAj+PUYll7085+EtRCx0y5evsBdfetFGP/usHAQMAwsbYGDZ0mX2448/2LLly61tm1PstttusyObHqmQCwvjzBkz7bkxz9l777+n/z7qqKOtQf36lpqWavPmzbNff/3V6tSpa92vucY6XtTRatSsoR37Tz/+bK+/9pp98eUXotE3btyo3f1hhx1mffv2lWOEGUlPzzB2iKNHP2svvvii2AyuOfDAA+V0YDl+njfXEjdsECC67TYW5cPlhAg/BSEF+ro9Kcm+/uorGzxkiH366acKQcWWLmPnnnuO3XTTTWIrgg/szuxZs2348OFifAgPHXHEkVaxQgUBlsWLF9uKlSsEHujbWWedFdpJfvTRR3bPPffY77//bocccqgdcEBD2dKjxD3kBPg777xz7ZhjjrHY2DKWnr7DvvrqKxszeoxsQqjm8MMO146d736eO9dWrVxpTZocaFdddZXAVcWKAByzVatX2UsvvmTPPvusxvOQQw+xJo2bWJkyZW3VqlUav8Bp3XnnnWoTIFLMwFtv2pjRz9miRQvFvBx99DFWo0Z1S9qeZLNmz7b58+dZvXr1rVevXta+fXurXCnMCeWjxQjmVyDOjo4uYcnJSfbTjz9Z3359be68edbl6qsFDg/ygYrYOT/bzANYWR4zRggCAS5TNitLcwxtUJCRFmiaxAKEiYkDptBDI17YUNqJQN8TloIfsFL8RiHKsO+CJhBT+wAAIABJREFULC9pMHzQAFC5+eZb7IMPPrB69eraHf3725lnnhnSZkgj5IMewpl8eDbOPQi1ynS+/TyhNGHV8Owuj3kLnhkSxIb9JtCEBODKY6HMfvzxJ+t+bXdbtWqltT6ptTHmvLN6pA/0AiF3YLPw0B4sKc+NjgKUell5gX6JPvBOYg/mz8svv2yPP/64pe3YYT2uv96uv/56bRzcx1nAWaAIWiAs9EPkhA0zzDn+iUUWKUfRACphojhl26Rn2ty5c+2OO/vb9C+/tGOPPc5uv/02O+WUU6S7WLhgoY0f/6IYCDqEc7n00ku0GKWmpNrzL7xgzz47yjas32AnnHiCHD5hBvQjb0yebM+MHCkH2+aUNnbDDTfYSSefZFs2b7HJk9+w+++7T6GIIw4/wn7++WdbtmyZNWjYwO64o7+YA9qXvD3ZFv26yAYOfNBmzZ5pp512ul3RubMdf9zx2iHDArzwwlib8MoEO6BBQ+s/4E6BHLrphWOkKJXjwBmPGzvOJr/xhhwnO/b09HRr166d3XzzzR5Q8Qfyjz/+sJdeesnGPDdGOo2LL7pYbETDhg1tQ+IGmzJlqhgowlxnnNHO+vTpIy1PTMkS9vZbb9v9998vQNO9+7XWoX37kE7Ac7ieQ2FyBDoNgMTo0WMENkqXLiXW5JprulnDhgeoja++OsnGjh0rYHb22efYjTfeoFAOjoPxe+yxx2z6V9Pt2GOPta5dulqrVq0UXvrtt1/t5Zde1n2rVqtmvXv3sksuvcQS4hPEKI0YPtzGjx9vlSpXsk6XdxbTAcLGGU+ePNmeHvG0LVm6xK688krr3bu3mLU8GZUAtGSZGCA0Ttu2b1NIoHy58mJ+fl30q+bW/AXs+LtZz549PEbFFzJnZmfquVu2bA1lBZWMKWnly1eQnWAesAVjumXrVo1pXFxZjY9Ad2aW9EHJySlithAWB9ol5jJAmDFh3gLi+A6nvHXLFoHnsmXjpD3avn2bgJpE0yVLSmsVVy4u9DJzD+bL++97QKX/nXfaWWee5QMRL0sK3ca2rdsEjmk37efecWXjjD4JgIRljAFoPL3Hdv2T72BopPEqV076KQENn9WB1aA/vGfMZf6b+VS6dKwtWrRI4wxIPfnkk23AnQM0V4LnKZSamqr2saHgnjB3aFnKxJZRv0OZWD7DhYZs+9btlpyarPemDOGdbNM7/uRTT6otrA3XX3e9VYl3QKUIuijXJGeBkH9LTk5WejKhn6IJVILB8inx9B3p0ifAYsyZM0fO+NZbb7UjjjhCDh49wRtvvGF39u8vSve6666zK668Uh1cvPgPe/yxx+31119TyKZHz5529tlnW7m4OD3lt99+s0ceeUQ7T357ww03WufOnUQTf/zhRzbtnXfstNNOtXr16tmwYcNt5swZVqdOHbv99r7WvkN7gQ0W1JUrV9n//veGbdiwwVq1OsmOO/5Yq5qAtiHb1q9fL0f82BOPWxU94wbr0rWLJzolWwU9TFaWrV27VuBi1LOjtDNHH0G/CZOcemrbHEAFp4FW5/EnHrMvv/jSzmx3pt1y6y0KfQB+YJ1gimBAVq5aaQ3qN7SOHS+0atU9vcXYF8ba4088Icd1y80324UXXqgdNUJeNCO0TZk7AkVeeIbQ19ChQ+29d9+z5i1aWL9+fa1NmzYWG+vpQnDuTz01WGEy2tGjR087//zz5AB//+13e/e9d8U8HXPsMdayZStLiI/XMwFSU96eYgPuGqDnAjig56vXqGHr162zRx99zMa/OE5g8aabblborEzpWEN/8PnnnwlwoT+6/LLLZNtDDzk0b6DiZzrhxAGP3//wgzQzaIKqV69uBx98sJzuwIEDfaDS1Xr27Cnggz0RSaPJgb0CXNFudvuAq8MOPUzzsQ6FiUqVkpbqzTffkgC7adMjBcqqVK4ie86cOcu++PwL40VkXjEf4xOqCLT8sXixffzxxwptortp2/ZUibI//PBDzS3a2OTAA+2H77+XTot7xFeJF0OFHqlxk8Yaf3RVt9xySy6gcqa+C7RUsBo//vCDJSUnCzQRfiMMiiaJfwJ8EF7D+AAyAKDzf5mvebVm9Rq9I4CwBg0a2lFHtRCLCGABJGRkZVpyUpIBpr/32wowio9PkLaLcb7nvns050866WS7e8BdHqMSFSVQw7N+mfeLofqHyeQDg4eNmzZrpoWrdKlSXhaPZfs6sjn2y7x59vvi3wVsYNkOP/wwmzt3nt4p9FA9e/ay66+7zgEV5xCdBYqqBXy/n5Kcar/8Mk+MPfq1oseo5AIqO3aka1G+/7777bPPPhNwwCkf1eIoLfzr1q6z/735P7vv3vus/l8hnTvuuMPandlOO6/PPv1MYZTPv/jMOl7Y0R544AEJbz3K3hSOeeN//7MRI4bbqhWrrFu3btb7ht4CLQgr2Q0e0OgA275tm5iY6dOnq0pev779BJiUSZNtRhvZ5Xq6l7IejV4i2tLSdtiqFSvFpjzzzDPWoH4DOb/LOl0W0oXgPHB6X3/1tT3//PP27XffikG56KKLbNSoUTZ79hxr06b1TqBipl331KlTBbJgOqCzr732WsXk169fJxEvu29YCDQupPuWL19ObaONQ4YMsRFPjxATAB0OcNi8eZOymgjXJFSratWqVRUIQWPDIv/G5Df0uz/+/EOMEKEj7B1oClJSktXekaNGijno0qWr2sR9cHQ4RFiACmR4lPZoPBzNunXrJPyEnscZseu96OKLBerIYho6ZIi98MILAohkovFsBNOwIh9+8KE9NGiQANAVV1xh3btfI5CU3wc249uvv7VJr06yL6dPlx3LlikjB97ogEZ26GGH2rvvvqux79qtmxf6OfBAjQ/gZuLEifbBBx8q44nQ4o70Hepb7Vq1xTAB+Hg+zvmOO/oJsLRt21ZMz8GHHKwQ0bhx423Y8GECYS3+msP33XuvQoHYmpDcU089pfkOc9Srd29bvPh3e3DggwJJhNq4zzfffGvLli8VSIbt4ZkXX3yx7Fa9WjVDiHazgMr7OxmVs87StQCN115/TYATDRaiZEBpSmqqwEnrk1vb5ZdfZscdd5zCTGRDLVr4q73yygR7++0pAhKEAvmOf4dJaXVSK413s2ZN1Q9YJXQobBAIuSKGBpwwJxs3amS169SxTz75WJlqaFTuGnCXNWveTL9DQPfqpFdt2rRptn7DOitbpqzsBlNSr249hbAuvLCjHXII2iE0aBsFomEXP//ic4u2aM0v3uHDDz9CjAzvLe9kr5697Lprr3VApag6KdcuZwG/9lcAVKpWreZn/ZQsYqEff+erNGE/pRVH9OrESfbc889pcWIXetrpp4ny/uGHH7SAzps3104/7XR7YOBAq1O3tpzupEmTFFLAyeDkHnzwQWkvgng3ND5ZAf3v7C/2gsWenSi7d3bRfAAcUNSAk88+/0y7uX797rD27S/wsiiUmeRVaMX5BunTW7duk6OaNWumHAaZQO0IwdzWRxkYSqP2nTU7e5w8zEvDAw6wG2+6UeJSKPHvvvvOTjmlTQ5GBXDCwkwaOc/v2aOn1ahR07777luxCzjSypWrKMSF0JSQETQ9zySs8MADAxVOgepv1rSpxAh//vmHsqiICbLTR5iMFohdMuGBcS+MtREjRghwXHXVldICVa5SWeOhrJn0HQIcgJnffv/dLurYUdewO8+t4UjctFHhtY0bEwXE3pk2zb7/4XuF83r36i2nBagCyEydNs3GPDvafv3tNzEK5553rkTC69astclvTLZPPv1U4Zlu13SzM9u1y1t/4KN0mB3mAyGjbdu3K2MIGwGKmCOAsD8W/2k70tOs+zXdfY3KQfoOjc3/3nxTzrlVy1ZiABh3WKu5c3+WY7z88sute/fuYj/QDr319lvKhnrowUHKIgIY8XfaALBFi3Nbnz72f/93hto9cuQzmgfJf6W3w3QB9Bj/u+++2376+ScJltE+1a1bT8CTkBfzFlsed9zxAkRt254iu+UI/fS/084660yFLl9//XWNPW3kXojPAaeIo3kWYAEBNuAXAAXoYa7Bwq1Zu0agFrYP4PHNN99o80CKMQDirrvusqpVq+re9PGNN/5nGzasF6DFzjAqK1eusJ9++kmACfBw+umnS6NC6AeAOJH3/LnnLG1HqrVo3kLP4jraBwuE9uT663vYlVdcobk55/s5Auxkk6HbOvGEE+3QQw/VJmbhwkUK2bJ+AJh5T9DGOI2K84fOAkXMArmSSgKgQtZlTRgVymQUKY1KWDEyxfWzs+Rcf1+82CZOeMU++eQTaQsSEqpKR7Fx0yZykOX8cRSEBqCJEM+NGztW2hUoaJiMBx98SLVMgg+ggjgYDpVF94ILzrdbb+1jxx17bOgaGAjCJ/3795fAFaACaxOIaYMMHH5AejHsC6GM9z/4wJYs+VO7xlKlStsRZP1ccrGdeOKJXtZPNCGVbDkZwiW0E3bhoosutssuu9QqVKiodpHN0+aUU+S4Ao3KyhUrbdy4cXJ67OihzxMTN4TEnjAAiRs3aqfMb7t17SZ6vnRsaduyeasNHjzYJk2aKL0F/YHJIAtn27btug+OgbBOp8s72fEnHK9wwfPPPSfnw/MAfbBaql3jqy9xcNOmTrMnn3xSjAChsb639xMjEV5cC5u/8+472jEj+N2YuFH3OOTQQyXeVWhONWMoBhYtG37y8Sdy+tyXEEr5ChXEJmxYv16TGHshVMaB4zT18bNXBDj9GjfvvfeeDR02TKETRMKIfnGg9JcwAw75yy+na35d2/1aZYmQVQR7RQgKpwtDQsYKfweo4tzHjh2nsCDjc8vNt1ijxo0EYADGMBb9+98psAnghTGZOmWqQGPFSpUE6AhJ8EIyr95++y0BRYBGhw4X2pfTvxR7heAY5gbW76STThKgRGQ+duwLul/denXFAl126aViNfrc2kdzUBqV/v3ttNNPty+/+MJGPjPSvpsxwxo0qG99+tymkBFMCuGm0aNHC1TXqFHDrr22u0KozKEvvvjSvpvxnWVlZNopbdvagQcdqE0EfeQ3MBoA65EjR+o7QMO9995nX375pTVt1tQ6d+psrVufbKVjYxXemjbtHZvw8st6t0899VQBckDRhx9+ZMOHDxOQwc6AJezM+MHKDBs2TO8/LAxhPsJNU6ZM0SYCe7Zu3cauvvpqa3JgE2WaEWZ77bVX1U7mKgwZoWEHVIqYk3LNcRYIs4C0n0loVOZrXaxZ0wMqIeH+v1bwLXyYwtIlaRjF1kgVnvfLL/bqpElaSKkvwkKNN6IWA+K/Zs2aazfb4cL2ipOz8x8/bpzCKdDmLGxQ6OHl6wFAMB2kb7KY4SgRnSKEDT4hoHLnnSGg0v+O/spq8dJkvdRR4vwAD3bcZMZMeu1VpSmzO0YTg2PEwcP6IArkvjj3WbNm29MjRtiXX02XA2KHzWKPkPDWPn3ULpiGEFAxE1ODQHf4iOEa0CZNGktkzK45EKHCbnz44QdalMn4gSkifEJ70DzgYNEy8Fv0Owg3VyxfoYUfuh6gpHDKtdeI3h8z5jkbM2a02h0OVAI7BUDliSefkJYhP6ACOCKdevz4cUo5R4/Ds2EXECgDAHEqhNUAOOiM3pn2jr366qty1ogxyQgC3KDRQF9yRecr7KKLL1L4RpVk/U9QyC1IZwZEjRw1Sk5MoZVevSSWZh4AKHkGu3lCIsyl6669TszOc88/b0OGDrFaNWvajTeiY+os5w5TtHbtOjnoF154Xmnx13W/Vn1P3JBo1/e4XuAEYHPppZeKRXhq8FPKVAN0IBY++OCD7OFBDytMByOCc4XR6NGzhx191FEKX8JUzF84XwzX008/bQc0bCSGjLDG0CFDBTwpWnj1VVer3YAjAFM4UEHvMmHCy/boo49KWHpB+wsUCqV4ITYD2L/00ov2zNPP2B9//KlU+vvvf0BMBHZm3KijA0jkejQnn3/+uT3//HP27bffCpyNHzdegAPACkgjqw6t0k033Wj16zdQ1hB1eAD8ffv2s23btmrOE/qB3SE8SkiS8QdEXn55J+mj+FDUj+8Bk2S49e59g5162qlihx4eNEjM3aCHBtkpbU8R8AagonXh/X/h+RcE3rpfe61CnU5M6/yis0DRtUCwtv8NqKBJU+bkv1WZNhxNhSqlesXaCEfAiLCbZ8fFAo04kR0ciw+78s+/+ML+XPyHdm840ZNbt1YlTlITn3tujBwENDqMCiK8AKywAJORgjh25qyZquNxyy23ykHkBirUHWE3R8E3gArsS1DzwkuP9OpJ4ATIRKIWB6wGO9UZM77T4o+wEtbn/AvO18ILgwLVT60H6HfaeMkll2qnTnin3x397Ltvv1VG0s033WJHH3OUnhnspIcPHyFmgd0q9DnpyThx+oXegd0uu1uo8AcHPWQtmjdX2fJ1a9ervgzaE8I38QkJ0hygIfnss0/tiSeelCix5Yknqt4KAAdb0laYF2x8a59b5VCUZpttAl1Tpk4VY7Bw4QLr0L6Dankc1MRjVJRNlO2FiBgz6qOsXbvGlixdKoYDwIhw9ZJLLrF2Z55pVapUVhsJVZCBRZiIDCPGvmbNmhKZzpgxU7v26tWrWceOHe3CDhfaAY0ahc4q0lkyVI7zjwS4o18/pZAD3ggfdOvWVXMIHQY2Q7+COBedBBlNjAcOj8wiHCJizrvuvkssAKEPHDe/5TtAI4UFaQdglzEEHE4HaLY5RaG0H77/QQANe8LkfPzRxxKl3nvvvcqkgjlZtmy5ABRt4zqcOozDn38xSzh1xoasp6B673PPPW+PP/G4Kq9edeVVYgxgFG+//XbpaZSefMcddvwJJ9gLzz8vUEN4Bv0LrElwrAT9pAbQ4KeeUpiFOkG0C/0LYcwff/rRfkNIu3atmCyA3YoVKyVIX7durTVq1Ei2hdmkTQC+ZX8VIITN6dmrp0AccUKeM2vWLDFWZKe1bNlSQAwWibAhWXjsnpizaLqCStO8W8xJ5gn36t2rl5gVQCIhXsKBrBE8X2caRZmys8aNG6s+s3kh7AOr4hiVouukXMucBSAo8Gvz5s4zaVRq1fLLMvjnuhUFoBIKpfgxK8IY77zzrnZNaB9IL2S31ajRAXIGVDh99913tMht2brFTj6ptQ18cKDVqV1bVUZHjxlts+fMEUB46MGHVOpdZ8XElFSqJQXTcD4SMF7eWTvmQw855G9AhV3fx598LKACKDj3r4WcxTPY+Sv04x+Qxz9xYIAs2kfogBRpyvef2e4se+TRh1XUjOJnTzzxhPQZJxx3gnW8+CJr0qixBondNrt09BEswpdeepmcNBQ/GpQXX3xJu3xCKV27dLG777lbIaXgIL3Fvy/WDpQQUcMGDe2+++4T4IEJCMAFHp0FXCDLr/FB6uhjjz5m739AsbD62oGz+AMY2G3jXDp16mz9+vVTZhW8vNJyMzJswoQJNnzYMGkCAFyELyj85jkOL7vJO1TSI6IQKwNW0DnQVn53wvEnKJ2WDJbv58yxEcNHSCTJ33E0xx9/ghzN9qRtNuO7mQp/ff/9HOlNeN55555n0apH4h+G6Id98Fxki8EaIMokFNipc2fvDKToKLF26GXuvfcegVfAGEAF0e7wYcNt4isTxYrhvE9seaIAn6oXZ2bYK69MVDupC3LBBe1VNA4gM3ToMIXYPP1KJ40lws527c6Q1gMHi8YKFgQAR60gROCEMgCzZOJ88fnnAiqwgq3/yrJCj4GgW4LwzCwbO26cgArZS4wLoKBMmVi7rQ9Axa+jcscdajui5GF/aWRq1qghMNWpcycBZj4AbMJeTzzxuMKgABVYDwrGkeaMYH3RwkUKH2Kz/2fvTsDkOus73/+rqhf1ol60y9osW2ATg5fMsIUJIclALtnmZuEGyATcSsISyHZnyCUJJLm5F0hIMrg1wzJPEshKnoFcwjKsGWCAJAMkscHGC9iWLWtXqyW1el+q6ub3f8+prm71dqzW6be7vs1jbMun67zn875V51fvdrT8V8M/mleisKJl8X/6Z3/qq67+yzvf6fOtFGC0lP/Vr36V9/KE4dGK3f3Pd9srX3mnr+h53vO+w37t13/N9ly31/r7FVTe5cfdcPAGX06vAJ2WT0uxZ2amrWtzl0+OVy+MemA+8pGPeK+ggsoh3/QvbASp8Pmnf/Zn9vu/93v+WeG9ZAz9cCdEIHoBLQi5/4H7fa6lgoq+fIVpBpH0qEgwfZaHAoV6Hd71rnfbH/3hH/q3OAUSfetWV7duFDr2nnvu9m+jGitXt6++/avHRRui6duUttDW3JVf+9Vf8w80fRvVplxaMaTufn046kPz517zc97lvnPHziWDyhv/rzf6Jmy6+YYN307b6dNn/ENUq4o0HOE701b1IL6Kfe5zn7W3/c7bfDXIbbfebn/yp3/iPT7qileQeOL4Ez4Wrw97/Z6+qetDVt8eNbTV09PrE3xf+G//rU8m1et/4AMf9JuWVuu86tWv8m+uWg2ThoBHjx71b5sa/lKZ5KN5J6psbdGvuTR6HX1r16Ta8NRgrQp52HtFPvqxj/gE3Xf8p3f45FYNI2nyriYta6db3YBu0lwF3wm2agPnBzzIvO9P3udDRdqH5PDhPg9Pp8+cseMnjnt9Hbj+gO+Sq2M0p0dDP1//+r32tre91Vfi7Nq5y97xjv9kt99xh0+yVYBReFJQ0x4n+/bv9x2BFQSfOHbc5y186EMf8pUeb/iPb/CN2vxhd8nk5tqusv/ynCHV/3vf917fFO5nfuZnra/vTtPOh6pH9Yaox+53f/d3fCM83dRe9epXe7BSj4qGD9R2fuWNv+IrfPzZNIWCB4Q//uP32rve9U67PHzZ5/VobpGCim6gHqCHhnz7dg1FaCWTlmD/m3/zPF/d8t4/eZ9973d/j6/Y+spXv2x33H6Hzx1Rb5Z6E2SioKJeKNWf6mb37l2hJ8TMey7e/nu/6z1dOreW2Hd2dviGb+mqH9WVzqe29vt/8AfWtXmz9yhpLxMFbd/FdWrKPvHxT/ieI9oGQIHrV9/4Rm8TWrKt95bGitV7p94OLRvU0vuPfuQj9olPfNIOHrzeX1+9ehpuec973u2Td9Wzo1ConjuVWcFPXw5++qd/xldTqZdIbVc9KpqsrTarYTANrT7/O7/TQ6fal7/Xk3elXkfnU/D1Ybf3vdfnq6j9aaWPgpr+m7Yu8CHS/3zENrW12atUpz/Lqp/o71IUsHEFkofTTv3L55lGJbTCUD3I6TYYgoli6Ke+hrRXhibR6SagTd3U3a9u4p96xU/Zjh07/RudPqC1XFPfBLXHhfbt+LM//3NfXqkloOodeP9f/ZXdcPCgTw7UZnC6OWnZ7b1f/7pPkvziF7/gqU3fuHVD1PDQ/KGf+h6VX3nDG8LwTVOTTwbVPBLdlLSqQ9/o1XOh4QlNBr00dMm3gFcY0sRdrbLRUIFu1H/5/vfbZz79aTt56lR4QGCys6h+T2PzuhGEjb7avXxatqz5Eeo9+OznPmtvfevb7L5777Mf/MEf8JVL+haqb+TjE+O+9b+GfjQZU3tXvOUtb/GJk+fPD/rww33fuM+edvPTfPKqQl2LtsIfn/C5K/qGru31b7/tdvut3/q/7Y47bvfJplrq/eEP/43fTNWF/uLvf7HPcVDg+Id/+Hvv3VDviG5W6prXBFd9I9Zchr/+4F/bxUsXfVLni170Qu/V0E1IvUMawtH8kX+++59s75599gd/8PteVvVEKagoWP3I//4j9ku/9Iu+j8gmDbske8Vozonm42gFmHb9VQio3ypeZfNnHM2UfX7HO9/1Tq8zDRO9/hde7zvPKvg8evRRf/6MVpZp1crPvfZ1PsdEN/33/tF7fW6JvuErgCnE+K67RfP5JgoymnejuQ+vfe1r7BU/9Qpvh1pR9pu/9Vv2wIP3+yRghWGtXNJ8Ke2wq0nUv/Gbv+nBSSFXm8T9xP/xE/4aT73pJs+cGtrS8Nsjj1wZVHSAgsrvvj0NKv/efv4Xfj4ElV+sW578q7/qk6o/9P99yIOI5s9oNZgCiB61oKCi0KCAoTajCeovf9nLfdM+9eRoab7mpPTd2Wc/9pKwBFu7wn7pS1/0oKieG4VsBRWt3lFw+R0F83vuTl7nF+0Zz3i6By/1mn36U5/27QbUTl/wgu/2tquhI/XCKHiobu/su9N+/udf7z0xCoSqPwVWfXHRyj0FbPXI/cVf/Lm99W1vtV07d9ob/uOv2A//u3/nQ4F6P2kvFs2t0iMftJHdq1/zau8lC/Pb+EEAgegEkkUQ6d5N2vpDCz7UMaH7fTIldI2enryAlnojtOGUJtxpOeld/f326COP+I1VPSq6wagb+qw++D79Gd/jQh9wz33uc+w3fvM3/IagzeJ0A3nPu/Xt7rjfcDWOf9PNN3uPxRe+8D99Z1ftaPmjP/aj9prXvtb+1bd/e+15OulwjiZXKiClQz/afE6bmWlIQxNSv/CFL9hv+9yGB33iq24Cms+gbnXNr9HkVQ1f6Ef/Tb0b+kaupaXqNtcuqSEphuERzTfQkJFWxmjirL49Pv/53+VzI7R6R5uh6eGKmrSr7nyt0tA3UA0N7Ni+3c6dG7BPfeqT9tGPfdQD2fe/+MU+VKPjdJN6R/9d9ld/9X4PGdoP5kUvfJFt2brVb6QKVdr3RSHizle+0voOH/ZhNC391BJdbfqm8KTyaMKlHj+gPVQ+/JGP2Mc+qn02xnyZ96tf8xq78V96clSPn/vs5+3tb/9d/1auCaGav/Kvn/mv/SakyagaDtEwiG68L/iuF/gzhnTjUmh697vf4/M0tH/IS3/ipfasZz/Te820/FxDFBqSuve+e709/OIv/KL3dCkc1VYapc/SKVd89YpCkOpLk3e1SZx2K1a40xylD3/4w766Rdfw2te81oOKero++fFP2tt/7/fs2LHHvfzazVerZmRNlWRhAAAgAElEQVT0d1/6kv3FX/ylPfTNh3wuyv/5y7/sm7VpaO/EyZMeBj741x/wCbsarnnZy17uwy6aO6JJqBpG/Oa/7IirYUjVz5ve9GYP0+pVUG/G5z/7eR+anBNUrgs9KvoJQeXtHti1ukZDl+0dbVcEFe2YrB49TYj+2Mf+e1hZ9Mu/5CFWk9E1/0M7Cyt0a/hGPYtqbxoSfd3rX+flf4UejfDDP+z7GpwfGPRN/N7/l+/3HZVVX1r9pHlQGqJ961vfap/85Cf8mtQeXvR93+dzTzTBVkNJek+ot0qTfDVUdvPTnmZ/96W/854YbQOgZcave93r7YB60JqbfL6SNnZUG9LE8Z/8yZd7T6FWhKlHRj2PGqJUgNZ7X8FKQ1l6/pbOqV5DDRurJykMWfKDAAIxCuhzL2yCes6/mOgJyppXV3tocBRzVBI5Pc1W36L0LUyTav7wj/7I/vYzf+s3SX1Aaf6E9lTQDV0TDS9euODfwl/28pf76hd/8FjVvCdAcyd0E9KNWB/Q2nBK3+SPPnrUe0G0s6f24dDqmC1btobJmEk/s8B0w3nzm97kvRhaDhvmqPyQD1voG7vChMbHP/7x/+7dzTt37go3smLRzp4568ubFaKe85zn2E/91Cvsf3uxPrRbfMMwzWNJ54hoGEv7sWhiqnak1W6tmn+hLn/tAaEboJY66wNfH8S60elGpXkOCiSa16Fu/UtDQ14mbQ+vuRCa06N5FelunloNopBzz9fu8Z4IWWrlzaVLQ34z1hyZZz372b6Lp35P3W7qeteNTsNq+gatejh4w0FfZaSbiL55qwdMNxjdRLQ1ulY3KTA8dvQxn2ipFUVqfD3d3bZ3/z6f66DgpGEhDX0899nPsZe+7KW+mkNhRL1pujl94IMf9GEE7cKqeQnaEVV2mpCrlUrqvXrJS37cQ5d6lfxZO3UPB0yfMaPJn+//y7+0//bfPuCPTVDPmnoCNDyluTeqa30L1xCOlgEruGp5tVYeqSdJw4TqEVB40Td69UJpua3maWi/FM2D+vGXvCQ8xNEK3jZ13ZpHod499bi8/nU/71vzK6RpUzQN36Wbn6lnS3OJXvR9L/KwJXOt+lGvyyOPPOy9ItoYTzs1pqubfOinLqgofOgNrV4QBQK1Qy2PVpu7ePGSffpTn/K2qh4kXbd6v1QWDXcde+JxX+314z/2Y95m5Ko9ftSrpj165K+nD6tnSe8lDWVp4rEmzaqXRaFZm9hpjxi95zR3R+VWD4ieIC4XBSq9R1R36kXScuc3/fqv+740Gj7V4x0UmDR5WiujfDi0tcV3sdW8K9Xry172suRRCns9JGnI53Of/5ydPnPanyGl97jee1rhpjZ09LFHfc8VhRQFUIJKjLcnyoTArIDuiVppqE4CfWboM0f3BH2pimroRwFAYUE3bt049c1ONwo9RVc3f12IblZaT9Ld02u33Xpr2GPi+c/3B/NpkqMuym8+99/vN1gNz+gDTyFIP5qUp2EU7b2gkKI12/503PQJtVo14vuonLL/57d/277wxS/6N0R9I9ZkWp9j4Q+lM19ZpM2qFIj0ED5NntEEU/3oA149NXce7rPnfcfzrLunKzxVN+lFSasnnbOhXgjdgN/05jfbV778ZQ8q2lNCQcVvUNr4RvNYxsft+PEnfEKuVvloLoR+NEF2+47tPvlWk1r1+7rx+dN5C+Y9Bv/jbz/rvVAaslHQ0A1AvRTbtm+z7/7u77F//5M/ac9+zrP9JpP++FOiv36v34TUi3Xu7Fn/vcnJCR+Ku+22230lyfd+z/f6w/UUJBUa1LOlm5punOrJUV0qjOk6NXymOTgaEtM3di0R9+2Skx/dnLT/iXoBtOmZboKqe83xUYDSRGGttNGSYM1/0SKf8Pyk5AXqnh2l7kTVk3phVE+6CeuGpqE1bSym3i7dxBVgtdxZk3e1Pb4yqzYq++M//GMPWwpWGrZQ29C8IPXO6Pgf/qEf8lnqzS1hgqqWmGvo5i1veavPMdGurNrMTzurqhLVFjUMqL+0mZrO/x9++T94Pad7v6hX4C1v+X/999Vb9+Y3/4aP2aaTTBWENCyl98jLXvoy31lZ7V5tVNvxa9mu9gbSviTqmdBeMNp3Rct8FZQ0N0U/2n9GXaw/8qM/6nux6H2hB4BpkrGstHpGoV/BWsMqB66/3p71zGf6BHYN92nTPQ39aT6T6ufY48e8ff3Nhz/sYUXnUVt61jOf7fsUKezqmrWvkMqquSX6OXHiuP3Nh/7Gd89VT9PExLj/uepaXwB+4Ae+34f3tAxaFaPArsnP//U9/9X+9rP/w5+LpPekhkr1aAnV78c//nFva6/6WT09+ad5ejJ3RARiFkg6CfTlXnP6dO/QClX1iiYPuo1n6Mc7NcIWJX5D0PCIPmT1zV1j1Zr8qA8ffQPUygR9o9UwhC5GN8j0sfT6Nu3P4zlxwn/v6GOP+bfb8DyQ/T4/Q7+rVQzqqWjWJMm6HhV96Gln1q98+Su+J4bG/zVHQ7/jz8LxpyCbTYxN2LmBAR/q0bdTzXPQjVFzAHSsnomiZ8EIOt3Cf87DfZMbatrtpTChm5xeU0MomiwYKqkQfl9LPWfKvl+MKtKfwXLmjE1NTSYf6jvt0I2H7MDBA75VvsJXOhwiTy05feKJY/bggw95b4VmWW/u7PSbvbrQ1dUWHpjXNOcpunqg3onjx/3moFnZ6dN3Dx16it36jGfY9QcP+q6pukHor/RZRtrvRXNu1FOkXXAVqrRqqtTcZNu36RkwT/fVLD3qCUse3KuGqp4WBSn1yqjnTE+yHh0Z8TCmIQjvXbv+gPfsqLep/qm/89+LMtPmdepN0XwhlUOBSedUz4m+vWsfk8uXh3z4QH+pPakcGvpQL4KWmT/wwP1eDv3o5qlenkOHbvS5D+nkVP031b96Vb76la/4tcvzjju+3VesqSyaWKrXU4+hhjg1vCUH7w1MhqxOHD/pw1Ka/KwJrC/4ru/yHpD0acZaCn/PPV/zOU3qTbj19lu97WvTNIUbTSLVUmj1mvny8Kkpt9dQkp6loesI7bTHnnLokD315qf6JGufvGYhEKsHRCFFIVVzWfT4ANWzQqKG/dT2VCbtMtulNqprL894b9mDDzzoD+3Ugwy1A7D2W9m1e7cv1db7Uvu0aEWSrq08M+Mm6uXUCiPtKqtj9KNeIrUx1YkmY3uPk55g3VTyutHngp7ro5VXen9cd90e36NGvXwqu177qU+9ybcISK8t5s9qyoZAQwrU76OmzoipKb//atGIvjTpnh9Vj8pCNxmFBhVcNz31VuiDVzcsffDomS3ev5Ess9WHld8ky/XLYSe8N0FdSbqJ6sNVXcK6ufhxphCgda2zS1v1ev6smtGxsKy5VPIPzdAFlXxzT0KGEHXjGx8b996eSjlsra+Zy9rfxMuUTAiqfeOfd6EeVLSE10LPh1YVafKo5uOEG7h6fJIHBurYcsU/sHUj0HXphqXz6Hi5yEcPG9S3/Nq5fSvisAeIfkc3A72O5j3o99TD4CFDZU1/kklO6vXR5nbqXVE9eI9SoWBt7brG9hBskp90nxnnrFTDOWfKvlGZJknpz9TLoyEp/b5eR89qMe/RCu5p2FGvjG5i+rP08Qaqh/Qa/XdVZsHOSYBzgcMcoLJvcKaN3/TvKoOeKaObnrZu1jVt2tTqdrVgmKw8UY/C+OSEv4Yc1Puj+k2fhF1qKtb2JvHl2MmeAOm1aO6K5i6pjnXe6clpt6wWqtbW2uavl+4dopJ7e5qYqF239pfx+k/2hlEwTW/mGk7UMImMVa96r6hty6i5OQngSVvVf1M7Ve+i2pzKr/eD/u5lK4Sgqbaj3Zz9A2NktPaaas96TRmoPjWfTEE37ZFMl+2PjY57r4fOoXas8ql96po0R0X1pQ3ctF1AOt7qIc6fujzm160KVRnURrThn5Yfh/dJ6M1UOXWcrkfXrSdhq22oXfnGijPToX2XSj7JOd0AsCFvBFw0AjEL1AUVFTNsaRFGT/z9PTUZd1AJhU6GWpJHu/sNMNnCPd1uv3aTTFYKpDcaXbB/A0t6I0LI0GqCGb8xhA20glI6uziMzYRzpAEo7EFS8GNq8yD8KcNhApBeU3NXNPShc9RGIHyibFiBstjNtDZXRd9Ip2d8mW16s9INxHtFkleslTXZbE7HF5tK4dw6bxIywmZrCkzJzS0JYfozfYCnf66y+40ncVIgq5/nMZtXgoU++MPqpIo1NZe8XLp5e2CoD3shXYXfSRpdWgfKYyGIJNnQbzxJ0NCwm6fnsGxav+uvrX1f6p4DFTzS1p3oLBFU0rCrI/3hiMmbQTfkdN5HmBsVgo+HYd+BONRx2oPm1+tlCkNNtXaoK0jsw5bP4enT/lo+TKh2U/R68nec2qCHnhAI5txE69qVTNP2q1Cg9jffWa+fcsyeK0zQ9nadXEfKpWvRDV5lUbDw3/ceQrVh/7dam1MZ3Sfp4Qyz7/W+Ce3L267eP4mFwkR4P4ShSA/fPpQblhvX3lPpuVT3yXChv5eqITi7sYfz8DiN+rbt5h7YQs9PWn8Kdwqdaf3VNQ8vCz8IIBCpQH1QSUYswodv+EwI95gIdqZdii+9GfitPrkZpcNDC/1eenNLbyTpTaf+d/yYdFgkeUjgnJ6E+pteevNMEsz8YYa0fGmo8Xt0Xa9E+O91N9P6e2xt/5jkpj7vxqAy1n/I1ge09GY7p7cmKXft/POSqn4nDRYeJDQMo7056kLZQkEl5JzkppTcJOp3D/WckfYa1VLj7LN3anWgm5rf13QnSw5coIxpGE1vvPVB1J2X6UFZqF2kPTL12+17z0pyI69vN0u3x3CTXCIX1YJQfTuoBZmk9y8EsdD7NqftzQvi6YlCSKw7dt6be36Z056HWn0m9ebtZiZ8Y6nvxZn/fqm1ryQoe2BIA1l68XXvnbT917fR+iBXC/9J4Lyizc17rfR95K+Rtq/QEGs/9fWnnjsPUcmOyMnGTFfYRvpRTbEQQGCeQHrPDp8tkQeVBWuv7kP3Sddu3YftFa+x2H9b5uZQe52lyjcvqNT/zpyXX+5OmH5ozz9uobKvxGuRwHDFHTl9rXlhbtF6mH/cSsrypCuVX0QAAQQQ2EgC6zeoxF4LT+ZmPD8orDSo+FfPJUBmR0iWVltpUFnofPXnWCzMpX/+ZGxir2/KhwACCCCwOgJXjDqs1x6VhTgW66lYHbpr+yoLhYQsQWWpsDI/qCwWXFYaVBYq10JBZf5xBJVr24Z4dQQQQGAjCMwPKjE962cj+K7ra1hpWFpJgFoIYrEgtK7RKDwCCCCAwKoKLNDpsD7nqKyqSoQvtpKb+koCw1K9TMudY7G5L0+Wa7nzPdnX5fcQQAABBDaOAEFlndTlk5mv8mSGw9L5IivpTVlJMFqKl6CyThofxUQAAQTWUGDDBJX6lScruQGudLVOlrpZbFJo3bnCP2qviHRd9QInWOh1VjIBdiVzcla6MifLdS917Eom9a7WuXgdBBBAAIGNJxB9UKkv4GreiFcSVFZy7vpjVtAL4XtTJbuRJpklNKo0t+iA+ufULLS0uL4ZLjWRdbHmulxPSH1QWiw0LdXzUnc9K1p9tPHeVlwRAggggMBqCcQeVGqbpiUF1SZT2uhKW69rjzBt1qW/0i3W59z8Q+fF7M9iq0705/MCgTaO0nbh6cPatD26HthW24hrPtz88ywSWrShV3g2SdjmXU871o//e7KbZ9ipNSnQQkElOXf9rp6ze9/Oaxnzfj9s4hk2FbvCKvnVsMlv2BK/PkSlx9fvnOs789btdhb+W3g2U21DvsWC0Up6vlarofM6CCCAAALrUyD2oFLb5jt5wJmeK6Mnqeq5JtpFVVvK6+FoenZHS2tr7UGE9TfhcN9Nbrx1N+6ww2XdLb7uhqpdS/Xwo0tDl3xLbz3srq1t09K7WtYP8SRb+s95fe0AqqCVPERN1+bPd9FTYVV2bX2f7H6+YGuaN7wVNjdPskT983gW+uXk0KV29az/NT/VQiEpKcPs7sBhq/X0p3bZ9SGxPgjOP8n6fNtQagQQQACBvASiDippz0HyIDuFk7Nnz/kD2ryrxB+qF56N0tPT43/pIWS1XgAfZglDLfXb2YfcUn+TL/pD1Xx7+uRJvwpBeoianpSrnoUdO3b4g+LCs4HqnvdSv5W3yhsepzLn9dM7frKbXniWiplNjOsJsUP+z52bN/vD4GoPQ0yeKePPxdG29smDDMNzXGbDVbqNfQgW4c/9/+c/ykQHpGFFD9bzBx4mx6fbsNcFobTXpLa9fX2DTM6THpNuNR86VpKHJc5vwE9miCqvNwHnQQABBBCIVyDaoFJ3Y9NQj54erEfJK6jopt3Z2eEPUBu+POxPDG7btMm2bN1qXV1dIRekQ0UaainrCcG6Mc9OrKgNs1h4to2GeBRS9ABAPdVWv69gdHnosj8vpHdLTxiqKZdD6ElCkv5Z4UI9O/pL/67hHPXI6PXCsFR4erM/a8VDQXhq8aWLQzY4OOjHKGR1d3fVglZ4nRkPZcpUegJsSU+0TZ9JVHuIXtnPp8DSXGqqPdCt9tyiWldHeJijP/hOTy8ua8hJT4kuebn18LjQCRJCjMKRX2sSkvwBjUkoS8OaHgCnc6cP2wvXVvQhsiueTEtQifdDgJIhgAACMQtEG1SElk6j0E1zesaf8qteDt1YOzo7raWl2c4PnLfz58/7g/oUVLZt3Tpnvolu7CMjIzY6NlbXqxIeYqcHsKUPpNOcl5mZaQ8KCjubNm2ysfFxu3Bh0F97+/btfnO/ePGi/12/p7/rRq3yqDeka/Nm75VRcBoevmya19LZ2en/fXpqyss+U57xYxVE1FtzYfCCl6O7u8e2bNniAUyhRiFpfGLCh7n0pFn15vgj61tb/boVYEZGRm1qctJDjwJFs45pabF2HwZrnh2mSnpSFPYuDw3ZxOSEBz8PZs0qe7t1dLRbc1OzG4+MjtrkxKRNT09ZqdRkLc3NXm79s46Tjf798tCwTU5OpM968wCm8m3u3BwCV304IajE/DFA2RBAAIF4BaIOKvVsySTQ+p4GBYVLly55ENHNf+vWrbZZYaH2SOXQc3HmzFkbHDzv3/Z1k9Xv6UavG3Vbe1ttEuvwZfWeFGzXrl3+WnrdkydP+nHXX3+997ocP37Ch5J0I1ZZ9Fr6u4JEGB5q9d87e/aMdXd327Zt2/zPNBfl3LmzHlZ27tzpQefixUs2dCnMgdm8udO2bNnqQWViYtIuDA56aNDr67UnJyetubnZw4yucXh4xAYGBmrhSqlAPUdt7e22desWn7fjvRp1c1MUoE6fPu2hSdep/67Q0trSajt27vDXHR1Vr9VZL6+OaW9v979riEqBa/fu3X5dusZz5865icoVnvyrYbgmt9Mxac9UrRrnhxUm08b7wUDJEEAAgVgE1lNQSR8LPzU5ZYMXBu3y5cu++kc38i1bt1hvT48P49QPO2jI5+TJE3bhwkXvDdANVDfUy8PDNqEho7ZN3uuh11DvhnoxNAyzfds2m5ictBMnTvjQzcGDB216atqeOH7c58Topt7c3OJBYnR0xCYnpzyUdHd1+WvrJq5/VgBQqNEk4DNnz9jY2Jjt2bPHA5OGldSrouvq7e21nu4eKzU3efgaPD9o7e1t1tXV7T0o586es/GJcdu8ucvLNzoyYgPnBzxkbNsewtDIyLD36KhHQ69f76BeGp37wsUL/jttHe02Mz1tJ06eNA3h7N61y7p7erwnSMFO4UPnkZl+T3+mwHLddbs9vAxeuOC9M/rnNBwqCA0NXfIemp07d7jrnB+CSixve8qBAAIIrB+BeUElnqcnz09QYe6s92ZoGOjy8GUbHtb8lPDNv6u727Zu2eKhoH6pruZbqFdEN38PINu3+/EKLufPD3hAUXDQ72n+i3oOOjs3e1CZ9B6U4x5UbrjhBu+Fefzxxz0E6HU0/FSembGBgfM+RKQQpF4V9XYoqGgIadeunda6qdVGR0bt1KnTXt59+/bZ5q5OGxsZs9NnzvjMkF27dltX12b/7+rRuDQ05ENJeg0FDl3rkIJBW7v3+Khs586e9Z4ZBYww0VfLmkOvkf49DSpyq8yUbWp6OhmqCfNPNLxz8eIFH7rZvn2br5y6dGnILl26aFu3bvOQpbkpKtPJEyd9uGf79h3WVCrZuYEBK/u/b/deHjWc4ZERO3XylJfjuuuu8/BFUFk/nwWUFAEEEIhSINoelXnLiMPQgvboqHiviQJIOmckXZmjm6Z6Nep/1Hui4Q4FFfVO7Nyxw4cntOz45MlT1traYnv37fOgcurUKRsZHvbj1EsxPjZeCyo33nijD3McO3bMg4CCRefmTr9ZD5wb8HP09PZ6iNDvaZhHvQ262et4LXU+feq0jY2PhZv4ll4f4jlx/Ljf5Pfs2evBRGFE5RgdG/XhLJVV16CUNj0z4z0cGjrSxFzNz9EcEQ1pyUW9KhrK6unu9t+tBZVqtTYZWZN3FVA0UVcBRsNAmpS8c9cun5A8OHjBxsZGPXCllpovo6CioBbCS9F7cxT4dIyuRXWja1TZ9aMemp7eHoJKlO96CoUAAgisI4F1EVQsTKYdGxv3YKAbv4KFz7GYmPAeDQ1ZqMdkz949tSXCqgbd5E+dPuVBRXNANCShsZZLFy/6n2uYZNfu3d7rcfyJ4z5nRD0BuiErcDxx/Ak/zw033uBl0FCQwoMCyeauzT5s4kFFc1K6ujxEaEhneGTYNrW1+Y1cE1zVI3Lm7Fmf/Lp3717r6u6yqYkpO37iuAcuvZ56ZDSHRcMs42NjfqNXmRUIdN0a5tIKo/b2Dv+7wobCk4ao9Lry0b/rGhUeNDlWPxr+0tCT5r2oJ0pDMpq8q4CkuTsKIFt6t/gkXM3T0YRh/b6CX1Nzs7/m6ZOnfJ6Mhth0/Rc1t8bMj5O7nLWKyXt5mkq166FHZR19GFBUBBBAIDaBBUKKihjH05PrCqcbqm6mmvuhIKFhjXReiSZ1qhdAN22Fgut2757DPDtH5YIPZ2goRkMdCi6nT58KvSw7d9omBZXjJ3woxIdwdu60yYmJpEel6EM/fsM+fdqDi8KN5mZo7sfAwDn/cw2BKOBoNczg+fM+92Trtm0+XKMeEs2B0byQ6/Zc58cqeJw8ccInzfocFb/hV30Vk+Z/KKh0d3X7vBMNJ3lIa2vzIZqJ8XFfyaSN4hTcFBQ0xKUwkU4GlpOHtWrFRoZHvZwKNVu3bLWenm5fnSQDhb10CEfnOXPmtPcGqUx6bQ39nDl9xluGekpaN23yMKOeFwVGTZ5V2NK8FYU7/a7CknwIKrG96ykPAgggsI4Eog0qybCPbtrpVu4KBJo8q3keurHrBq2daDV0oQChm6OCiIY96n90Az977qxPWvWekh07PAyo5+DcgOaRdPuS5pbWFg8bOoeCgHainZqe8qEMBZP9+/f78MnpM6d9zxFfJdO5OQkWAz6vROffum2r927o3zVnQ0t7NXlV5dCkVPWOqEdFZZmplO3smbN+TgUlzTXRkM3o8IhPFk4fDaC/6xrVk6FjNER0UXNsLgxaS3OLBzc5+XwdK3jI0p4s6dJrKSpAKKhobo6sdD5NAFbPjYaRFCwUVtQrc+bMmdpqJk2q1ZyUwYsXrLmpyfbu2WvdPd02NHTZzmvVUXnG59FombYm0irY9PZusd7eus330gphMu06+nSgqAgggEAEAtEGFe/XCcM2YUM1bS1f9bkVuqlr/xD1LmhZryZ76lu9elgUMHQzr/3o+X7Vis/78ADS2eE9GZqcocmtFy9d9G/9+ku/pzCj19ZKIPWqqJfG92gpFsO8kErVlx2rPL1btviqHJVLvTMXBy/6sIh2mNUJtBGdzqueIL/Zp5u1FYreU6Kyal6JJq+GTeUK/mdanqx/1hCQwoV6YvT7+lGIUbnUo6GAod4PvX7YFE5zVLSPigJP9+yk4mTzO61Y0vFaGaTAlT4nKWwAV7UtW3o9PCkQyUZhUEFG16eAot4S1cmunTvdsFyueNhTGKuqnnyIqezlU5Cqn8xbqw+CSgTveoqAAAIIrCOBhYKKbz5qhapumkf6j1hfX9/cjbvyuj5tU+8PuNMD9IqmHd9DcAkPC/Sbsx7mVwy7wqZzVmqbz6qcyd4rGmKZmgr7kOgbv370+xry0O/pzzW8osmtuqFrEzTdaHXjVThSL4UmqepHAUJBQmFBx+lHwy1hqbMeXBg2WtOqGt+MbaZct7FcENfGaU3NJT9Ovzs1GR4JoOuoDzX+uhMTVtT2+Wbee9Lc2uxBST1Mem0FCgUPuYTdcZt9d11/6GA17IIbQl/VVyile8ho+CuEJ+1SW/EelnS/FoUs3622STvMFrwnSCui9M87tu+wni09Pv9Fr6XrVs+T6iisOGrzybkL7e92xR+yj0pe7ybOgwACCKxPgdiDSn3PiG6sCiq1p/7Wkdc2eAvPHpx9mF7dMbVn/cxbTZRuB++H+nOB5j412J8J5K+pG3/YYt6PKSoEpFvnzg1V9a0hfaZQemwIX2bFUng9P23y3KGwrX/4s9pLz3km0YK3/3nPLQqvEYobHhkw53mFyTXOO0nydAH15Iz4cJR2y1UYaWppCs8kSvZM2bZ9u29OVxtWqitfKHdSxoWLOveNQlBZnx8clBoBBBDISyDqoOJ3vUSi9nBB9a4scwdMH+ezEGLd683pean/8/rfqwfSP4fn+M2GoXm/p23s658kvFg9zglD16Ky5zzhuGCF+gcULhYOkn1qNIFYS5j1+ADvzSkWwjBOoeirnDThN52ku2TRCSrXomZ5TQQQQKCxBKIPKnO6JuqCy2pX0yKTdZY9zZP9vWVf+CoPmH32YtI9s8LXS8KK5v9oiEsrqvSjnhVNNtawjv7uDyhc7mcFh6Q9Ssu9FP8dAQQQQKBBBdZVUGnQOsr1sut6iAOU+t0AACAASURBVDQ/Ryt5wjOBCt6j4rOX0qGk5UIaQSXXquNkCCCAwIYUIKhsyGp98he12BBY/SsuF1DSYwkqT74e+E0EEEAAgdkRgflTFqJZ9UMlrY3AckFkuf9OUFmbeuOsCCCAwEYUoEdlI9ZqJNdEj0okFUExEEAAgXUsQFBZx5UXe9EJKrHXEOVDAAEE4hcgqMRfR+u2hASVdVt1FBwBBBCIRoCgEk1VbLyCEFQ2Xp1yRQgggEDeAgSVvMUb6HwElQaqbC4VAQQQuEYCBJVrBMvLruz5UGyhT0tBAAEEEFhKgKBC+0AAAQQQQACBaAUIKtFWDQVDAAEEEEAAAYIKbQABBBBAAAEEohUgqERbNRQMAQQQQAABBAgqtAEEEEAAAQQQiFaAoBJt1VAwBBBAAAEEECCo0AYQQAABBBBAIFoBgkq0VUPBEEAAAQQQQICgQhtAAAEEEEAAgWgFCCrRVg0FQwABBBBAAAGCCm0AAQQQQAABBKIVIKhEWzUUDAEEEEAAAQQIKrQBBBBAAAEEEIhWgKASbdVQMAQQQAABBBAgqNAGEEAAAQQQQCBaAYJKtFVDwRBAAAEEEECAoEIbQAABBBBAAIFoBQgq0VYNBUMAAQQQQAABggptAAEEEEAAAQSiFSCoRFs1FAwBBBBAAAEECCq0AQQQQAABBBCIVoCgEm3VUDAEEEAAAQQQIKjQBhBAAAEEEEAgWgGCSrRVQ8EQQAABBBBAgKBCG0AAAQQQQACBaAUIKtFWDQVDAAEEEEAAAYIKbQABBBBAAAEEohUgqERbNRQMAQQQQAABBAgqtAEEEEAAAQQQiFaAoBJt1VAwBBBAAAEEECCo0AYQQAABBBBAIFoBgkq0VUPBEEAAAQQQQICgQhtAAAEEEEAAgWgFCCrRVg0FQwABBBBAAAGCCm0AAQQQQAABBKIVIKhEWzUUDAEEEEAAAQQIKrQBBBBAAAEEEIhWgKASbdVQMAQQQAABBBAgqNAGEEAAAQQQQCBaAYJKtFVDwRBAAAEEEECAoEIbQAABBBBAAIFoBQgq0VYNBUMAAQQQQAABggptAAEEEEAAAQSiFSCoRFs1FAwBBBBAAAEECCq0AQQQQAABBBCIVoCgEm3VUDAEEEAAAQQQIKjQBhBAAAEEEEAgWgGCSrRVQ8EQQAABBBBAgKBCG0AAAQQQQACBaAUIKtFWDQVDAAEEEEAAAYIKbQABBBBAAAEEohUgqERbNRQMAQQQQAABBAgqtAEEEEAAAQQQiFaAoBJt1VAwBBBAAAEEECCo0AYQQAABBBBAIFoBgkq0VUPBEEAAAQQQQICgQhtAAAEEEEAAgWgFCCrRVg0FQwABBBBAAAGCCm0AAQQQQAABBKIVIKhEWzUUDAEEEEAAAQQIKrQBBBBAAAEEEIhWgKASbdVQMAQQQAABBBAgqNAGEEAAAQQQQCBaAYJKtFVDwRBAAAEEEECAoEIbQAABBBBAAIFoBQgq0VYNBUMAAQQQQAABggptAAEEEEAAAQSiFSCoRFs1FAwBBBBAAAEECCq0AQQQQAABBBCIVoCgEm3VUDAEEEAAAQQQIKjQBhBAAAEEEEAgWgGCSrRVQ8EQQAABBBBAgKBCG0AAAQQQQACBaAUIKtFWDQVDAAEEEEAAAYIKbQABBBBAAAEEohUgqERbNRQMAQQQQAABBAgqtAEEEEAAAQQQiFaAoBJt1VAwBBBAAAEEECCo0AYQQAABBBBAIFoBgkq0VUPBEEAAAQQQQICgQhtAAAEEEEAAgWgFCCrRVg0FQwABBBBAAAGCCm0AAQQQQAABBKIVIKhEWzUUDAEEEEAAAQQIKrQBBBBAAAEEEIhWgKASbdVQMAQQQAABBBAgqNAGEEAAAQQQQCBaAYJKtFVDwRBAAAEEEECAoEIbQAABBBBAAIFoBQgq0VYNBUMAAQQQQAABggptAAEEEEAAAQSiFSCoRFs1FAwBBBBAAAEECCq0AQQQQAABBBCIVoCgEm3VUDAEEEAAAQQQIKjQBhBAAAEEEEAgWgGCSrRVQ8EQQAABBBBAgKBCG0AAAQQQQACBaAUIKtFWDQVDAAEEEEAAAYIKbQABBBBAAAEEohUgqERbNRQMAQQQQAABBAgqtAEEEEAAAQQQiFaAoBJt1VAwBBBAAAEEECCo0AYQQAABBBBAIFoBgkq0VUPBEEAAAQQQQICgQhtAAAEEEEAAgWgFCCrRVg0FQwABBBBAAAGCCm0AAQQQQAABBKIVIKhEWzUUDAEEEEAAAQQIKrQBBBBAAAEEEIhWgKASbdVQMAQQQAABBBAgqNAGEEAAAQQQQCBaAYJKtFVDwRBAAAEEEECAoEIbQAABBBBAAIFoBQgq0VYNBUMAAQQQQAABggptAAEEEEAAAQSiFSCoRFs1FAwBBBBAAAEECCq0AQQQQAABBBCIVoCgEm3VUDAEEEAAAQQQIKjQBhBAAAEEEEAgWgGCSrRVQ8EQQAABBBBAgKBCG0AAAQQQQACBaAUIKtFWDQVDAAEEEEAAAYIKbQABBBBAAAEEohUgqERbNRQMAQQQQAABBAgqtAEEEEAAAQQQiFaAoBJt1VAwBBBAAAEEECCo0AYQQAABBBBAIFoBgkq0VUPBEEAAAQQQQICgQhtAAAEEEEAAgWgFCCrRVg0FQwABBBBAAAGCCm0AAQQQQAABBKIVIKhEWzUUDAEEEEAAAQQIKrQBBBBAAAEEEIhWgKASbdVQMAQQQAABBBAgqNAGEEAAAQQQQCBaAYJKtFVDwRBAAAEEEECAoEIbQAABBBBAAIFoBQgq0VYNBUMAAQQQQAABggptAAEEEEAAAQSiFSCoRFs1FAwBBBBAAAEECCq0AQQQQAABBBCIVoCgEm3VUDAEEEAAAQQQWDSoFArVjvYOO9J/xPoO9wGFAAIIIIAAAgjkL7BYUCkWih5U+o/0W18fQSX/muGMCCCAAAIIIGBLBpWODuvvJ6jQTBBAAAEEEEBgjQQIKmsEz2kRQAABBBBAYHkBgsryRhyBAAIIIIAAAmskQFBZI3hOiwACCCCAAALLCxBUljfiCAQQQAABBBBYIwGCyhrBc1oEEEAAAQQQWF6AoLK8EUcggAACCCCAwBoJEFTWCJ7TIoAAAggggMDyAgSV5Y04AgEEEEAAAQTWSICgskbwnBYBBBBAAAEElhcgqCxvxBEIIIAAAgggsEYCBJU1gue0CCCAAAIIILC8AEFleSOOQAABBBBAAIE1EiCorBE8p0UAAQQQQACB5QUWCipmVigWitWO9g7rP8LTk5dX5AgEEEAAAQQQuCYCSwWV9vYOO9Lfb32H+67JuXlRBBBAAAEEEEBgSYGlg0q7Hek/Yn19fWY6kB8EEEAAAQQQQCBPAYJKntqcCwEEEEAAAQQyCSwZVNrakzkqh61Aj0omVw5GAAEEEEAAgVUQWCqotLW1haGfw31WIKmsgjYvgQACCCCAAAKZBAgqmbg4GAEEEEAAAQTyFCCo5KnNuRBAAAEEEEAgkwBBJRMXByOAAAIIIIBAngIElTy1ORcCCCCAAAIIZBIgqGTi4mAEEEAAAQQQyFOAoJKnNudCAAEEEEAAgUwCBJVMXByMAAIIIIAAAnkKEFTy1OZcCCCAAAIIIJBJgKCSiYuDEUAAAQQQQCBPAYJKntqcCwEEEEAAAQQyCRBUMnFxMAIIIIAAAgjkKUBQyVObcyGAAAIIIIBAJgGCSiYuDkYAAQQQQACBPAUIKnlqcy4EEEAAAQQQyCRAUMnExcEIIIAAAgggkKcAQSVPbc6FAAIIIIAAApkECCqZuDgYAQQQQAABBPIUIKjkqc25EEAAAQQQQCCTAEElExcHI4AAAggggECeAgSVPLU5FwIIIIAAAghkEiCoZOLiYAQQQAABBBDIU4Cgkqc250IAAQQQQACBTAIElUxcHIwAAggggAACeQoQVPLU5lwIIIAAAgggkEmAoJKJi4MRQAABBBBAIE8Bgkqe2pwLAQQQQAABBDIJEFQycXEwAggggAACCOQpQFDJU5tzIYAAAggggEAmAYJKJi4ORgABBBBAAIE8BQgqeWpzLgQQQAABBBDIJEBQycTFwQgggAACCCCQpwBBJU9tzoUAAggggAACmQQIKpm4OBgBBBBAAAEE8hQgqOSpzbkQQAABBBBAIJMAQSUTFwcjgAACCCCAQJ4CBJU8tTkXAggggAACCGQSIKhk4uJgBBBAAAEEEMhTgKCSpzbnQgABBBBAAIFMAgSVTFwcjAACCCCAAAJ5ChBU8tTmXAgggAACCCCQSYCgkomLgxFAAAEEEEAgTwGCSp7anAsBBBBAAAEEMgkQVDJxcTACCCCAAAII5ClAUMlTm3MhgAACCCCAQCYBgkomLg5GAAEEEEAAgTwFCCp5anMuBBBAAAEEEMgkQFDJxMXBCCCAAAIIIJCnAEElT23OhQACCCCAAAKZBAgqmbg4GAEEEEAAAQTyFCCo5KnNuRBAAAEEEEAgkwBBJRMXByOAAAIIIIBAngIElTy1ORcCCCCAAAIIZBIgqGTi4mAEEEAAAQQQyFOAoJKnNudCAAEEEEAAgUwCBJVMXByMAAIIIIAAAnkKEFTy1OZcCCCAAAIIIJBJgKCSiYuDEUAAAQQQQCBPAYJKntqcCwEEEEAAAQQyCRBUMnFxMAIIIIAAAgjkKUBQyVObcyGAAAIIIIBAJgGCSiYuDkYAAQQQQACBPAUIKnlqcy4EEEAAAQQQyCRAUMnExcEIIIAAAgggkKcAQSVPbc6FAAIIIIAAApkECCqZuDgYAQQQQAABBPIUIKjkqc25EEAAAQQQQCCTAEElExcHI4AAAggggECeAgSVPLU5FwIIIIAAAghkEiCoZOLiYAQQQAABBBDIU4Cgkqc250IAAQQQQACBTAIElUxcHIwAAggggAACeQoQVPLU5lwIIIAAAgggkEmAoJKJi4MRQAABBBBAIE8Bgkqe2pwLAQQQQAABBDIJEFQycXEwAggggAACCOQpQFDJU5tzIYAAAggggEAmAYJKJi4ORgABBBBAAIE8BQgqeWpzLgQQQAABBBDIJEBQycTFwQgggAACCCCQpwBBJU9tzoUAAggggAACmQQIKpm4OBgBBBBAAAEE8hQgqOSpzbkQQAABBBBAIJMAQSUTFwcjgAACCCCAQJ4CBJU8tTkXAggggAACCGQSIKhk4uJgBBBAAAEEEMhTgKCSpzbnQgABBBBAAIFMAgSVTFwcjAACCCCAAAJ5ChBU8tTmXAgggAACCCCQSYCgkomLgxFAAAEEEEAgTwGCSp7anAsBBBBAAAEEMgkQVDJxcTACCCCAAAII5ClAUMlTm3MhgAACCCCAQCYBgkomLg5GAAEEEEAAgTwFCCp5anMuBBBAAAEEEMgkQFDJxMXBCCCAAAIIIJCnAEElT23OhQACCCCAAAKZBAgqmbg4GAEEEEAAAQTyFCCo5KnNuRBAAAEEEEAgkwBBJRMXByOAAAIIIIBAngIElTy1ORcCCCCAAAIIZBIgqGTi4mAEEEAAAQQQyFOAoJKnNudCAAEEEEAAgUwCBJVMXByMAAIIIIAAAnkKEFTy1OZcCCCAAAIIIJBJgKCSiYuDEUAAAQQQQCBPAYJKntqcCwEEEEAAAQQyCRBUMnFxMAIIIIAAAgjkKUBQyVObcyGAAAIIIIBAJgGCSiYuDkYAAQQQQACBPAUIKnlqcy4EEEAAAQQQyCRAUMnExcEIIIAAAgggkKcAQSVPbc6FAAIIIIAAApkECCqZuDgYAQQQQAABBPIUIKjkqc25EEAAAQQQQCCTAEElExcHI4AAAggggECeAgSVPLU5FwIIIIAAAghkEiCoZOLiYAQQQAABBBDIU4Cgkqc250IAAQQQQACBTAIElUxcHIwAAggggAACeQoQVPLU5lwIIIAAAgggkEmAoJKJi4MRQAABBBBAIE8Bgkqe2pwLAQQQQAABBDIJEFQycXEwAggggAACCOQpQFDJU5tzIYAAAggggEAmAYJKJi4ORgABBBBAAIE8BQgqeWpzLgQQQAABBBDIJEBQycTFwQgggAACCCCQpwBBJU9tzoUAAggggAACmQQIKpm4OBgBBBBAAAEE8hQgqOSpzbkQQAABBBBAIJMAQSUTFwcjgAACCCCAQJ4CBJU8tTkXAggggAACCGQSIKhk4uJgBBBAAAEEEMhTgKCSpzbnQgABBBBAAIFMAgSVTFwcjAACCCCAAAJ5ChBU8tTmXAgggAACCCCQSYCgkomLgxFAAAEEEEAgTwGCSp7anAsBBBBAAAEEMgkQVDJxcTACCCCAAAII5ClAUMlTm3MhgAACCCCAQCYBgkomLg5GAAEEEEAAgTwFCCp5anMuBBBAAAEEEMgkQFDJxMXBCCCAAAIIIJCnAEElT23OhQACCCCAAAKZBAgqmbg4GAEEEEAAAQTyFCCo5KnNuRBAAAEEEEAgkwBBJRMXByOAAAIIIIBAngIElTy1ORcCCCCAAAIIZBIgqGTi4mAEEEAAAQQQyFOAoJKnNudCAAEEEEAAgUwCBJVMXByMAAIIIIAAAnkKEFTy1OZcCCCAAAIIIJBJgKCSiYuDEUAAAQQQQCBPAYJKntqcCwEEEEAAAQQyCRBUMnFxMAIIIIAAAgjkKUBQyVObcyGAAAIIIIBAJgGCSiYuDkYAAQQQQACBPAUIKnlqcy4EEEAAAQQQyCRAUMnExcEIIIAAAgggkKcAQSVPbc6FAAIIIIAAApkECCqZuDgYAQQQQAABBPIUIKjkqc25EEAAAQQQQCCTAEElExcHI4AAAggggECeAgSVPLU5FwIIIIAAAghkEiCoZOLiYAQQQAABBBDIU4Cgkqc250IAAQQQQACBTAIElUxcHIwAAggggAACeQoQVPLU5lwIIIAAAgggkEmAoJKJi4MRQAABBBBAIE8Bgkqe2pwLAQQQQAABBDIJEFQycXEwAggggAACCOQpQFDJU5tzIYAAAggggEAmAYJKJi4ORgABBBBAAIE8BQgqeWpzLgQQQAABBBDIJEBQycTFwQgggAACCCCQpwBBJU9tzoUAAggggAACmQQIKpm4OBgBBBBAAAEE8hQgqOSpzbkQQAABBBBAIJMAQSUTFwcjgAACCCCAQJ4CBJU8tTkXAggggAACCGQSIKhk4uJgBBBAAAEEEMhTgKCSpzbnQgABBBBAAIFMAgSVTFwcjAACCCCAAAJ5ChBU8tTmXAgggAACCCCQSYCgkomLgxFAAAEEEEAgTwGCSp7anAsBBBBAAAEEMgkQVDJxcTACCCCAAAII5ClAUMlTm3MhgAACCCCAQCYBgkomLg5GAAEEEEAAgTwFCCp5anMuBBBAAAEEEMgkQFDJxMXBCCCAAAIIIBCBQKFYKFbb2trsSP8R6zvcZ4WCIg0/CCCAAAIIIIDAGgtUzZKg0m5H+vsJKmtcH5weAQQQQAABBOYKeFBpb2+3/rsIKjQOBBBAAAEEEIhLoFCwQrWjo8P61aPSd9gY+YmrgigNAggggAACjSxQCyo+R6Wvz4wpKo3cHrh2BBBAAAEEohIgqERVHRQGAQQQQAABBOoFCCq0BwQQQAABBBCIVoCgEm3VUDAEEEAAAQQQIKjQBhBAAAEEEEAgWgGCSrRVQ8EQQAABBBBAgKBCG0AAAQQQQACBaAUIKtFWDQVDAAEEEEAAAYIKbQABBBBAAAEEohUgqERbNRQMAQQQQAABBAgqtAEEEEAAAQQQiFag7lk/R+wwW+hHW1EUDAEEEEAAgUYUKBQKhWpHewdPT27E2ueaEUAAAQQQiFygUCwUq+1t7eHpyYf7rMDjkyOvMoqHAAIIIIBA4wh4UGlrazN/ejJBpXFqnitFAAEEEEBgrQWqdQUoLFwYgspaVxLnRwABBBBAoFEFlgsqVTOCSqM2Dq4bAQQQQACBtRYgqKx1DXB+BBBAAAEEEFhUgKBC40AAAQQQQACBaAUIKtFWDQVDAAEEEEAAAYIKbQABBBBAAAEEohUgqERbNRQMAQQQQAABBAgqtAEEEEAAAQQQiFaAoBJt1VAwBBBAAAEEECCo0AYQQAABBBBAIFoBgkq0VUPBEEAAAQQQQICgQhtAAAEEEEAAgWgFCCrRVg0FQwABBBBAAAGCCm0AAQQQQAABBKIVIKhEWzUUDAEEEEAAAQQIKrQBBBBAAAEEEIhWgKASbdVQMAQQQAABBBAgqNAGEEAAAQQQQCBaAYJKtFVDwRBAAAEEEECAoEIbQAABBBBAAIFoBQgq0VYNBUMAAQQQQAABggptAAEEEEAAAQSiFSCoRFs1FAwBBBBAAAEECCq0AQQQQAABBBCIVoCgEm3VUDAEEEAAAQQQIKjQBhBAAAEEEEAgWgGCSrRVQ8EQQAABBBBAgKBCG0AAAQQQQACBaAUIKtFWDQVDAAEEEEAAAYIKbQABBBBAAAEEohUgqERbNRQMAQQQQAABBAgqtAEEEEAAAQQQiFaAoBJt1VAwBBBAAAEEECCo0AYQQAABBBBAIFoBgkq0VUPBEEAAAQQQQICgQhtAAAEEEEAAgWgFCCrRVg0FQwABBBBAAAGCCm0AAQQQQAABBKIVIKhEWzUUDAEEEEAAAQQIKrQBBBBAAAEEEIhWgKASbdVQMAQQQAABBBAgqNAGEEAAAQQQQCBaAYJKtFVDwRBAAAEEEECAoEIbQAABBBBAAIFoBQgq0VYNBUMAAQQQQAABggptAAEEEEAAAQSiFSCoRFs1FAwBBBBAAAEECCq0AQQQQAABBBCIVoCgEm3VUDAEEEAAAQQQIKjQBhBAAAEEEEAgWgGCSrRVQ8EQQAABBBBAgKBCG0AAAQQQQACBaAUIKtFWDQVDAAEEEEAAAYIKbQABBBBAAAEEohUgqERbNRQMAQQQQAABBAgqtAEEEEAAAQQQiFaAoBJt1VAwBBBAAAEEECCo0AYQQAABBBBAIFoBgkq0VUPBEEAAAQQQQICgQhtAAAEEEEAAgWgFCCrRVg0FQwABBBBAAAGCCm0AAQQQQAABBKIVIKhEWzUUDAEEEEAAAQQIKrQBBBBAAAEEEIhWgKASbdVQMAQQQAABBBAgqNAGEEAAAQQQQCBaAYJKtFVDwRBAAAEEEECAoEIbQAABBBBAAIFoBQgq0VYNBUMAAQQQQAABggptAAEEEEAAAQSiFSCoRFs1FAwBBBBAAAEECCq0AQQQQAABBBCIVoCgEm3VUDAEEEAAAQQQIKjQBhBAAAEEEEAgWgGCSrRVQ8EQQAABBBBAgKBCG0AAAQQQQACBaAUIKtFWDQVDAAEEEEAAAYIKbQABBBBAAAEEohUgqERbNRQMAQQQQAABBAgqtAEEEEAAAQQQiFaAoBJt1VAwBBBAAAEEECCo0AYQQAABBBBAIFoBgkq0VUPBEEAAAQQQQICgQhtAAAEEEEAAgWgFCCrRVg0FQwABBBBAAAGCCm0AAQQQQAABBKIVIKhEWzUUDAEEEEAAAQQIKrQBBBBAAAEEEIhWgKASbdVQMAQQQAABBBAgqNAGEEAAAQQQQCBaAYJKtFVDwRBAAAEEEECAoEIbQAABBBBAAIFoBQgq0VYNBUMAAQQQQAABggptAAEEEEAAAQSiFSCoRFs1FAwBBBBAAAEECCq0AQQQQAABBBCIVoCgEm3VUDAEEEAAAQQQIKjQBhBAAAEEEEAgWgGCSrRVQ8EQQAABBBBAgKBCG0AAAQQQQACBaAUIKtFWDQVDAAEEEEAAAYIKbQABBBBAAAEEohUgqERbNRQMAQQQQAABBAgqtAEEEEAAAQQQiFaAoBJt1VAwBBBAAAEEECCo0AYQQAABBBBAIFoBgkq0VUPBEEAAAQQQQICgQhtAAAEEEEAAgWgFCCrRVg0FQwABBBBAAAGCCm0AAQQQQAABBKIVIKhEWzUUDAEEEEAAAQQIKrQBBBBAAAEEEIhWgKASbdVQMAQQQAABBBAgqNAGEEAAAQQQQCBaAYJKtFVDwRBAAAEEEECAoEIbQAABBBBAAIFoBQgq0VYNBUMAAQQQQAABggptAAEEEEAAAQSiFSCoRFs1FAwBBBBAAAEECCq0AQQQQAABBBCIVoCgEm3VUDAEEEAAAQQQIKjQBhBAAAEEEEAgWgGCSrRVQ8EQQAABBBBAgKBCG0AAAQQQQACBaAUIKtFWDQVDAAEEEEAAAYIKbQABBBBAAAEEohUgqERbNRQMAQQQQAABBAgqtAEEEEAAAQQQiFaAoBJt1VAwBBBAAAEEECCo0AYQQAABBBBAIFoBgkq0VUPBEEAAAQQQQICgQhtAAAEEEEAAgWgFCCrRVg0FQwABBBBAAAGCCm0AAQQQQAABBKIVIKhEWzUUDAEEEEAAAQQIKrQBBBBAAAEEEIhWgKASbdVQMAQQQAABBBAgqNAGEEAAAQQQQCBaAYJKtFVDwRBAAAEEEECAoEIbQAABBBBAAIFoBQgq0VYNBUMAAQQQQAABggptAAEEEEAAAQSiFSCoRFs1FAwBBBBAAAEECCq0AQQQQAABBBCIVoCgEm3VUDAEEEAAAQQQIKjQBhBAAAEEEEAgWgGCSrRVQ8EQQAABBBBAgKBCG0AAAQQQQACBaAUIKtFWDQVDAAEEEEAAAYIKbQABBBBAAAEEohUgqERbNRQMAQQQQAABBAgqtAEEEEAAAQQQiFaAoBJt1VAwBBBAAAEEECCo0AYQQAABBBBAIFoBgkq0VUPBEEAAAQQQQICgQhtAAAEEEEAAgWgFCCrRVg0FQwABBBBAAAGCCm0AAQQQQAABBKIVIKhEWzUUDAEEEEAAAQQIKrQBBBBAAAEEEIhWgKASbdVQMAQQQAABBBAgqNAGEEAAAQQQQCBaAYJKtFVDwRBAAAEEEECAoEIbQAABBBBAAIFoBQgq0VYNBUMAAQQQQAABggptAAEEEEAAAQSiFSCoRFs1FAwBBBBAAAEECCq0AQQQQAABBBCIVoCgEm3VOoEY+QAAIABJREFUUDAEEEAAAQQQIKjQBhBAAAEEEEAgWgGCSrRVQ8EQQAABBBBAgKBCG0AAAQQQQACBaAUIKtFWDQVDAAEEEEAAAYIKbQABBBBAAAEEohUgqERbNRQMAQQQQAABBAgqtAEEEEAAAQQQiFaAoBJt1VAwBBBAAAEEECCo0AYQQAABBBBAIFoBgkq0VUPBEEAAAQQQQICgQhtAAAEEEEAAgWgFCCrRVg0FQwABBBBAAAGCCm0AAQQQQAABBKIVIKhEWzUUDAEEEEAAAQQIKrQBBBBAAAEEEIhWgKASbdVQMAQQQAABBBAgqNAGEEAAAQQQQCBaAYJKtFVDwRBAAAEEEECAoEIbQAABBBBAAIFoBQgq0VYNBUMAAQQQQAABggptAAEEEEAAAQSiFSCoRFs1FAwBBBBAAAEECCq0AQQQQAABBBCIVoCgEm3VUDAEEEAAAQQQIKjQBhBAAAEEEEAgWgGCSrRVQ8EQQAABBBBAIA0qhUUoqmaFYqFYbW9rs/7+I9Z3uM8KhcWOxhMBBBBAAAEEELhGAmn8qO9lUVApWKHa0dFh/Xf1E1SukT0viwACCCCAAALLCBBUaCIIIIAAAgggEK3AskGl/4gd7uszY+Qn2jqkYAgggAACCGxYgeWCyhHNUSGobNj658IQQAABBBCIWoCgEnX1UDgEEEAAAQQaW4Cg0tj1z9UjgAACCCAQtQBBJerqoXAIIIAAAgg0tgBBpbHrn6tHAAEEEEAgagGCStTVQ+EQQAABBBBobAGCSmPXP1ePAAIIIIBA1AIElairh8IhgAACCCDQ2AIElcauf64eAQQQQACBqAUIKlFXD4VDAAEEEECgsQUIKo1d/1w9AggggAACUQssGlQKhWpHe4f186yfqOuPwiGAAAIIILChBZYNKnf1W9/hPisUeCrhhm4IXBwCCCCAAAIxCiwWVIqFYrW9vd36CSoxVhtlQgABBBBAYOMKVOsubaGgYmYFgsrGrX+uDAEEEEAAgagFCCpRVw+FQwABBBBAoLEFCCqNXf9cPQIIIIAAAlELEFSirh4KhwACCCCAQGMLEFQau/65egQQQAABBKIWIKhEXT0UDgEEEEAAgcYWIKg0dv1z9QgggAACCEQtQFCJunooHAIIIIAAAg0tUK0LKul+s/V/Jhz2UWnoJsLFI4AAAgggsDYCyihzOlSSDd/mhJcqQWVtaoezIoAAAggg0OACBJUGbwBcPgIIIIAAAjELEFRirh3KhgACCCCAQIMLEFQavAFw+QgggAACCMQsQFCJuXYoGwIIIIAAAg0uQFBp8AbA5SOAAAIIIBCzAEEl5tqhbAgggAACCDS4AEGlwRsAl48AAggggEDsAvX7qCxYVvZRib0KKR8CCCCAAAINLEBQaeDK59IRQAABBBCIXYCgEnsNUT4EEEAAAQQaWICg0sCVz6UjgAACCCAQuwBBJfYaonwIIIAAAgg0sABBpYErn0tHAAEEEEAgdgGCSuw1RPkQQAABBBBoYAGCSgNXPpeOAAIIIIBA7AIEldhriPIhgAACCCDQwAIElQaufC4dAQQQQACB2AUIKrHXEOVDAAEEEECggQUIKg1c+Vw6AggggAACsQsQVGKvIcqHAAIIIIBAAwsQVBq48rl0BBBAAAEEYhcgqMReQ5QPAQQQQACBBhYgqDRw5XPpCCCAAAIIxC5AUIm9higfAggggAACDSxAUGngyufSEUAAAQQQiF2AoBJ7DVE+BBBAAAEEGliAoNLAlc+lI4AAAgggELsAQSX2GqJ8CCCAAAIINLAAQaWBK59LRwABBBBAIHYBgkrsNUT5EEAAAQQQaGABgkoDVz6XjgACCCCAQOwCBJXYa4jyIYAAAggg0MACBJUGrnwuHQEEEEAAgdgFCCqx1xDlQwABBBBAoIEFCCoNXPlcOgIIIIAAArELEFRiryHKhwACCCCAQAMLEFQauPK5dAQQQAABBGIXIKjEXkOUDwEEEEAAgQYWIKg0cOVz6QgggAACCMQuQFCJvYYoHwIIIIAAAg0sQFBp4Mrn0hFAAAEEEIhdoD6oHOk/Yn19fWaF2EtN+RBAAAEEEECgIQTSoNLR3mH9/f0ElYaodS4SAQQQQACBdSKgoFIoFKqdHZ2zQaW+7Opdqa6Ti6GYCCCAAAIIILCxBGpBpb3T+o/0W9+dfbMXmHUIiECzsRoHV4MAAggggEAEAoVioVhtb2+3/v4jdlhzVOb/rCSwEFIiqEqKgAACCCCAwMYTmA0qd/Vb3+E+K9TPpmXoZ+PVOFeEAAIIIIDAOhLwoNLW1pbMUTmsSSvzil+9cp5K3TEr6XBZRx4UFQEEEEAAAQQiEvDJtG1t7XbXO+6yw4f7rFgoZirelcEm069zMAIIIIAAAgggsKjAnKDS13en1gEtcnDas1L33+lOoWkhgAACCCCAwDUSKGpCSn2Pyp19r1xyOXK1WrWq8kq14n/nBwEEEEAAAQQQuFYCTU1Nc4PKK1/5Cpspl/18obOkYNV0IxUPKeEv/ZH/OWHlWtUNr4sAAggggEDDC7S0ts7rUbnzlSGIJCFFo0Dpv+tPC/5/6oYJR8we2/CWACCAAAIIIIDAKguUSqW5QeXwT/dZoW4yrZYq13pUvH9lNqSscll4OQQQQAABBBBA4AqB2vLku+7Sqp/DVijOnSE7Z18VABFAAAEEEEAAgbwE6p+e/I5kefLc5cb0oORVF5wHAQQQQAABBK4UqO1Mu1iPSu1XmDhL+0EAAQQQQACBnAUKxWKx2t7Wbv3pFvrzhn68PPUhZXaubc5F5XQIIIAAAggg0FACGvopFZuq7W1tdld/f3go4UKbuC3Vm8Kmbw3VZrhYBBBAAAEEVk2gPl8skj9qQaW/PzyUcMEfgsqq1QkvhAACCCCAAAKJwHJBRSuO9VDC9vZ2O3LkiPWpR2WhH4IKbQoBBBBAAAEEVlsgS1DpP3IkDP2sNKgw5LPa1cXrIYAAAggg0FgCWYJK5h4VgkpjNSauFgEEEEAAgdUWyBxUNEdloWGehf6MoLLa1cXrIYAAAggg0FgCBJXGqm+uFgEEEEAAgXUlQFBZV9VFYRFAAAEEEGgsgeWCSmH+qh+GfhqrgXC1CCCAAAIIrKUAQWUt9Tk3AggggAACZtVkTmdhgfmeS/23hrAjqDRENXORCCCAAAKRCvh9OF18stjCFG0TH2n5r3mxCCrXnJgTIIAAAghcS4F5N3fvgVjmrr5aN/3VehZvNXmhyryC+aWkIUVzMdxxkbOmXS/X0notXpugshbqnBMBBBBA4FoJ5Hm/TgPG1V6LAojKXZkXQ4pmpr/SH4LKAtJMpr3a5sfvI4AAAgisrsBy/RiFxfoc5t7wr7pbpWqrFVSssHAEmVPEajX0qCxW7jwT2upW6NKvRo9KntqcCwEEEEDg6gWSO5dSgm7w9WmhWrWKFa4IEIVCYfb+rm/gC81afRIFq65KUlGwmg1XIbOENJLkl/DPil+6dILK3JqiR+VJtFx+BQEEEEDgGgikX611w9Y/J3+vpP8cTlmpVhfsUZm9v1etkP7+VZeyNnEk8ysl/SNWmdObMlvKNLB4yPK/inpK8OIzb+lRSZ6ezD4qmRsjv4AAAgggsBoCSSBJAkq1UrZCpWJV/eX/qeIBZalejjAxVUM25cUnpWYoqvfT1Hd7ZPhd70UphJ4UlV85o1o3I8VftlC0ov6hWLRiscmKpaIHlvCz0CziDAVYL4cy9LNeaopyIoAAAo0skC6LKXsgMQWNStmsXDGPJxry8bu9/q1umGceWdFfJgSe5Wa6LKd9tVNcQjAJr6LhKi9Z/VCWZ6CS96ZYsWRF/VUqWaFYWmD852pLs9zVruF/zxxU+voWLu1ia7/X8No4NQIIIIDARhFIh3mmzSrTVi2XraDAUlFAUY9KuAnp77NTPK68eac9Kosu8V0LLvWqKIykQ0Aaukqn4fhwTzGEr2LJSkUFlSarqmdFvS+h22UtSp3fObMElf4jR+wwQSW/yuFMCCCAAAKJQBJUylNm5Skf7lFQUTDx/1WSHpK6ya0hsMy9iYc5tPVTV5cCrv/dq+1/Weg8aS9KWs4w30XXomXK/pMEFU3DUT+RelSKpebQq6K/0qCy1CTb9d6GCCo51+BKZppv1AlROVNzOgQQ2EgCsz0qlZlJC/NTNM9k9qeisFKtWlETTpMFMgsLrCyoFKqaC6J4MD+kpHNl0nklWZ3rekGSz/vqvHtDrYeoqB6Vkk/+9R4khZNSa/izUlMYFvJVTppsu0E7VwgqWRvYVR5PULlKQH4dAQQaVsCHeqasPDVhlcqMaaZG/Y9u7gorHlT85r1YL8jKgopvtaYAkC4Nrp1sNqjM30l2ZXWzfFBJX6eqibO+tLpqRU0atpJVm1vDXBXvWVEZNeSVBBXvhVlZKdbNUQSVnKtqFYNKmOUe9hF4kpPOc754TtcQAumHyvxe84wfnn7T8fkGheTGk+ht5C7uhmggV3GRCiozk1aZHvcelXSeSbLjSBJMVthAlvosrgWckk9y9ZBQV+zZJq4zz9S2clk4Fi3U8Bfq+lj4t9OVQcWkR0XBpdrUYiUFlaZW72HxWTlJz0zdFixXAR3ZrxJUcq6QVQwq5XIYxdS3h7C2foF3Us6Xx+kaUKDuvqBvsyE8Kz+HvR/8Z4X3jvrjyuVymBiZ7B8RviVneK0GrIoNf8m+yicJKuWrXF68aHBO92hRPFFQMSsWqr5EWL/ivTS1MRYNx8z4n6d7oYTejeQ9UNt4bv7J5geV2R6aK+swbAbnYUnhXUGl1GylJgWVTb5s2WOUylRJOlMyfimIvt0QVHKuoqsIKiHkh9ng+tCeM8tdb6L5H+TXYu5Xzlycbh0JJBuEaiJgGqD9i54+XMsVK2qsfYmuv9BtX0n2iSiEyZFJj4opjPtdYh15UNTVF1jNoDK/MdW6IkJQqbU3tVv9Tytzkom7cy6sEr4w6vO31jxrE3bTTXOTSbO1X1woqCzGNRtUfPJwLag01XpUwtOANlo6WeSL9yIdVIVioVhtb283Vv2swvvuKoKKx5R0Zrsn+/DhH2J+eKPU3ilpZfLBvgqVxkssK5C0NwUNhRL/4NZqheTTPg3XSwaVJISnWSa8VvimqXauru7aZzHtetkq2ZAHrGpQqa2rSajS5cEhqPj3vnRFkQeVdGWOgkuSC6oK1JXQ65d8UdTnsv7yz+R54WG236R+IGm5mprbo6KgUik1WampLqgkk343bFahR2W5RrLK/33JcdHk076QbkQUErr+X28pf58kjT+dNJZ+iPs8lfrudYLKKlccL7eUgFrs5OSUjY6M2MzMjB+a9gCWSk3W3d1tzc3pCoXFX0mvc+HCBZucnPRubA27qym3tLRYR2eHtbZuCrt08tOYAtcoqMxZ1eMfsmHPknTlUOggKfveLTYzE4KI/kgrbwraiK2pbvhdR6fPQA6TcdOfdHO3bL0fCwSVJg39NFmhpDkqOkfSo7JR3xoElZzf7ysIKukyteR7qQeVslUsbO8Tek2mp6dteHjExkZH/QI6Ozv9r+bm5nBBBJWcK7axTzc0NGQDAwN27tw5Gx+f8F4Q9YgoUKtd3nTTTdbT0xN6RRb50aZdo6Njdv83vmEXL15MduEs+mu0bdpk27fvsJ07d1hvb29jYzfy1V+DoDL3cYBhkof3/BWKVp6esurMlE2PXbTy6JDNTI5ZdSosjfYP4lKzNW3abKWOXmtq77ZiU7IaJ9nfxDdxSz6zQ7Vl6UlJK3oFQSVZnUSPCkM/q/PxsJKgkozf1K+rVw+4frVULNjExJSdO3vOTp48aRcvDJomHe7atdsOHDhgvb09/u2ToLI61cWrLN37oaY6NT1tDz34kD3xxBM2dOmSTZdnvNcjnV+ybfs2u/XWW23Xrl2zQXqBl1VPzODgoP3zP9/tgUeTBfUa01PT1tRUsp7uHtu3f5897WlPs9ZN9Kw0ZNtccVBJlx+Hm/yVP5r/NGPViRGrTo5aoanJips6rNisz86C2fSEzYxdtomhszY9dM4mB49beeS8Vaana3MDfV+TYsGaNnVYc/cua+7da82d262pc4s1tW0289fSipz6b45PZi7JvKCiybOlZit6j0qLWakp6bXZqN0p8+amMUdlbd/6tR7CZOVEoaDNfdQZXrRKtWTlmYqVyzN29sw5+9a3vmkD5wdsamLCg0pXV5ft3bvXDhzYb9u3bw9hhR8ErpGAWqXanVb5DJw7Z/fcc48P2XR3dVt3T49tatsUVkJUKt4DopCyefPmpXtUKhUbHx+3Y8eO2eCFC+FbrYLQ1KSNDI/Y5eFh27y5057+9Kfb3n17rbmpee7Komt0rbxsRAIrDCpFLRlOJp6qFyPEFv1d3+E0plixyvSYTZ34hk2ee9SKbZ3WsvuQtW7Z67vczlw4aWNnHrHxwRM2M3zBypMjYTJ4sTXsFKtX9OcKla1g0+HVmzus1LHNWnZcb207Dllz7y5fleP7oCRhybe894Gh2Z6V9Lvr4vt8pkFFv5VMpm1qtqI2e0uWJ1s1efbP8i8WUWVmKApDPxmwrvGhc4KKh3B1QyazVKpFmxiftIFzg3b06KN27IljNjY26s1fbyD9pQ/xg9cftOuvv962btsa1tkznn+Na60xX94/zKdnbGpq2r718Lfsmw895EM1N930VNt/YL+1bWrzSbUz5bKVikVramla4jFxs0OV+uyfnJj0gNPU1ORteGJi3E6eOGkPP/KIB5n9+/fbM57xdNMEf39IW/2Kt8asjsa56kxBpWzVgm7gIahUfHs4/VN4qGFlcthGv/k/beyxu/1PN113k7XtudnKk2M2evoRGz//uFl52iplLT+uWqnUYqWWDjMN7/ggfMUq1bIVp0etOj1m5Ykxb7elrm3Wdt0t1rH/Vmvdut8KrZ1WLYd5W+nQz2xoCh/xPsl20Q4RgsqcBVr0qKzd+10NtZyk4UKyE+JMoRLmplQLVpmasXOnTtvjDz7sPSmXJkb8JlDUI8CLJStrWWehYD29PUnPygHbtnWbtbTSs7J2tbqBz6wtGyoVG7k8Yl/9x3+0s2fPek/eLbd8m+3YucNDinpBhkdGbGJ83B8al85ZCUs8w4qIdPWEdtcM+6WElW0tLa3W3dVlXd1dPlx0fuC83XvfvXb8+HGf6/L873y+9W7p9bZfW4Gxgbm5tETgKoNK6FeZ9qBSrlRt5BufsNFHv2zlqTErtbRZqa3bJ8qqF688Ne49GM2bt1vbtoPW0rnN56MUW9pn96ktz9j0yIDNDJ22iQvHbXr8koeSUmuXte48ZG17nm6btu+3wqZOXwVn1pTcc2cn2c5OJwx7r1y5oI2gQlCJ5BPA54l7I9UbKZkwq8RuVZuenLILA+ft+GOP25nHjtnU5JRNVGc8xIQl/LM70zY1Ndvmzk7bu2+fHTp0yLvdNb5Pz0okFb1BipFuaDU0dNm++IUv2IXBC7Zn717v6eju6fY5VEcfPWrnB8/b1NSU947U9qHwLvPQi5Iu30yji46rKICXij4J98Ybb7R9+/fb+NiY3XvvvfbII4/4MOcLX/RCH2aasyR/g9hyGUsIrEZQqU754MtMpWLDX/uojT/+Tx5KFF4KTc3eC1MttVixpc029Vxnbduut9btB63U2hm2rG9q8SXJ4eZZ8K38K5dP28TA4zZ16ZRNXT5nUyODPkTUuv2QdR68w9p232Sl1narpkM0oS/cn5jsbwXPKBrWIagsWPsM/cTxsRC6/sIiZAWVqYpZ2feVKNu506ftwXvvs0sXLtrE6JgfV9Eb1sdgm/0N4U8PTbZ91jBQW1ubDwHdcMMNtm3bNuasxFHNG6MUdV2vw0PD9um//YxdHrps1113nT39llt82aQCxbFjj/sqHv1o+GdFP96lEr5Zathnz5699vRn3OJDSfd+/V579OijHr5f8IIXeM/KnE0OV3QCDlrXAqsUVDR/RXOsRu77pI0+8g9Wnhj2rejLpYJp4UJzU7tt2nGjdd/yPda8eZs/rdh/fDWQd/uFJcGFpvCQQB9KGrXy+GW7/Ng/2vBjX7XJ0QvW1L7dNh94hvVc/+3W0rvLHyZYLTb57/kze5K5M2HXWQ1VEVQIKhG/Qz1oJIOVlaS1jk9P2rnz5+2Jx47aqccet6nJSf8W4PeJ6kxdUFGDT4NK2P1N3161d8W+fft83ormrLS06M22gWeGR1y/G7FoanMa+vnyV75i588P+ITZW265xcYnJuwb933Dh4OmZzTRcP62VyvUKBRsS2+v3XrbrbZlyxZ74IEH7PjxE7ZlS68959nP8WEh3/CQn8YRWKWgoh6VqoYnv/EpG3n476w8Nqw0bZWihjTNmprarXX79dZ783daU+8eK7R2hF3Bp8atOhGeM1Ro6bRCZ7cVFFZ8M059u5y2yYHH7PKxf7Lhkw/Y9OSYtXVfZ1ue+lzr2HmDFdt7fcVOodhkFR8G0me32nDZgwpDP4s0ZXpU1vg9HlJH8vRLDfRUrTxdsfLMjA0MDNrDRx+zkyeP2/jkuH/RDL0mVSupUfvWh1rCqYaeLMerm5Glb6Sbuzbbwf37fIJj79at1uyrgdKwQmhZ49pfn6evmj8sUG1xYmLCjp84bmfPnLGenl47eMNBH/b52tfusUuXhnxeytX8aBjz9ttv92XJCinnzp61zs2ddvPNT7O2tk0ElavBXY+/u+Kgoh4P3fjDipt0Mm3ouZgOn52Vsg1949M2+vA/WHl8yMOCf83zTdxardTWYe07D1n7nlusecdTrNDSZpPnn7Cxkw/ZzNS4NXdtt469t1hT5zYfEjKfMFu1ysy4jZ971C4/+lUbPXG/bxLXc+hZ1vOUZ1mpe7cVmtvCXJWCwkp46GGRoLJ0aySorOG7tZYTkodgqeuvqmduzfiSz0ePHrPjx0/b5bFhmymF5/sk88OtpPFUDzhhGzjfu9afrplsMBQyvnefb+nutD179tgNhw5Zz7atPgE3vIG9L3MNATj1ehXwHrxK2NRtYmLSRkZHrKW5xYPxsccft7vvvse0CVw6HPlkr1NLmu+443Y79JRDNjoyaiMjI96mNZypHW+9GbOd/pPlXX+/VylbNXl6soLGYpWvSbA+PJNsuDY3qIRAoX1Uhu77jI0++r9sZmzICuVJK+pztdRsFX0BnJm0Qmu7dd/4XOs89Dwrdm6z0eP324WHvmRT40PWvnWfbbn5u6xl6z4rNLcnc670zqjY9OVzNvrE12z4ka/YxPknrH37DdZ76/fYpt03W3FTl1WT3hQtOFbZsgaVih5KqPbfHJ6ezPJkf4QMz/pZ9Xd0fT5IHylerdjE1JQNnB20xx9/3E6eOmXDoyNhtYQvVQ4TsDyK+BM7QxNP+wtraykqySzxZDi1qVD0CbY3HLrRDlx/wDZ3d/nkRpZLrHqtNs4LJqtzPOomm7ulT3F77Ohjds89X/N9Va42qGjlz+133O4722qV28z0tJ8v7BOkbc4JKo3T6JLhlekJ3wPFg8i8lDrbVzz739Kt3/xhflawprre6NFjd9vYY1+16YunrDox6oHBn0bsQWXKN23rPPCvrPPGZ1tTxzYbPvY1G3zg8zY9csE29eyybXf8oLXsfIpvt+9b7uu9UClbZWrMJgeO2uVv/b0NP3a3ldp7rOfGZ1rXLS+wUuf22qTa+m3pSj4rMfSNX/Hjj0gJR9ee9eNBRU9PVlBJt9BPUvvia53XZ3OhR2UN6m1OSEl6Ia3qqyPODpy3+7/5sJ09d94mpkY0N90KlbI1+bcHLWnTB7SGfMK3goL3qKQDP7p7aN1o6C3RB3pJ464zYXVFd2+XHTi43w5ef8B6ejf7aqAnt6XzGphxyqgEfIlx8lf9U5E1QfGxxx+3++69z86fP3/1QaW722677VZ76k1P9evXpofK6+mutd47yE/DCPhDWafHZoOKP+V49gM1fIlL/y/M+wv/K1olaSvNemimvsQ1tdjM+GWbHnzMpgZP+g61Gv5JV/MUSiXv/Wju2mEtPbt9e/zho1+1iw983qZGLlhLW5dtf+5PWMveWz1E+Hb5miSr5wFVyzZz+ZxdfugLdunBz1uxtcM2bT1g25/zEt8ILgzXzyu3r/FcoI9I4UfbUOhjX9df1FyakpW04aGGkTyoJK+1UTd8W66F+xMP6FFZjinDf6+LhukT16pV34ZcY/uPHD1qx06dtLHxCatowmxB+6hUreRj/RqySYNKGE9NW/bsNs0KKqHRKpxoy/2qprFXC6bJ5t09XXbgBq0Guj55Zgof9Bkqj0PV5JKAkg77KJz4Q9oKChJlO6HN2R7+ll28eOmqg0pX12ZfuaahyyY9x8q3LS/63iqbNm3yCeIelBjCbIi26UFlqi6oJAsH0otPg0rt8SMeVNRTUaoFlaZKsqusf0xqiGjG/NucdgTXXz6kXp192J8/BdzMZqbs8qNftsH7P2czY8PW0rnFtt7+fda6//awt4q2sy9qrsqU76VSGRuy4Yf/3i587RO+aqh16z7bqqCyZbcVtFoz9I0nn9XJ8uQVBpWygoq20W8hqKSABJXV/AhYaDy9ULGJ0VF7+KFv2kMPPehzUkLHZfpYwnRzoFJYjpzsrljQm7A2wXbOWzWs0g/3DitWZ3yAqKK0XTTr3bHdvu222+zQDYdmP+A3WlfhatYZr3WFgMLK5cvDdvr0aZ+LMj015Zu66UdLlc8PDnoP4dX+qEdQgUR/qfekoH9vbfXt+A8evCGsZmsOW+nzs/EF6oOKwrEPci/Qo1Jb5us9DDNzgkpzsqGmr7CpTlt1atQqUyP6WmelUkeYv6fAoV1taz12M2YzEzb88P+ywXs/Y5MjF63Q1mndB26zzTd9hzVv3Wulpo6wD4tCigL11ISNPvIVG/zyX/kXRR3T8x0vsZYte713Rk9dTntCQmRZeY9KWU9s1s7NCkj0qIQeMnqdl7kQAAAgAElEQVRUVvEDoL5DJTxN3HtNJkZG7FsPfdO+9a1v2bAmz2qPlGTuiu9o6EFCY6dJj4q+BSzcUVgbzlFXoZJMqTpjJXUflgp+M+no6ban3Xqr3fy0b7OmZM7LEvs3r+LF81IbRUAPEDx96rS31zNnzngvR7osXtvqK6QoZHhznxPOw0yq0OM3+//zXf7/9t78O44sSw/7IiP3TGQisW/ESpAENxAsLlVF1jLdNdM9MxprFo2kGWmquvsH+Z8Z9ajKx+fIx0fykT0zsiz7yPbY4+5W91RXdRVZRRLcigtWggCxr4ncl4hIn3tfRGYiARCJhSSWF33YLAIvIl7cuHHf9+7yXcFSK4KaVmhJVBAJcsNQqAo9PafQ2tYGl+xrdVjUasvn2AugYucNnALYbcjGFhGbuI/4zACc3mpUdV6F3VsFxVVhMhKavD5UKWRkERu/j+WHP0difpRL7711HQj1vAfvsbPckNDmcIueQqS6mQwSwzcx//X/zLruCDWj6to/g7OmFYrdy3kwguhN5J5w/km5HhUJVNbqigQqW3472xuwIVDRkU4k8WJ8komyVldXkEwlkaVYKoginD4WwWJIcVZhv0WVT45yWBQCNeaKQAaee1rQd0YAh5yewqOi53Jwelyob25G16lTaG05BrG7kLvR7b1EOVrTdCwsLGBycpJp7cniluaLCPZaSi4UnhZqYFiaXLtmN8xqaLIsW0DFvAbpMdHyU6sI0v9jLce4509tXS2IjVk6VI6GTu4ZUCF7aQPiU0+x/OD/RXLmKZwV9ajq+S1UnHgPNrtI1iZyNvZsE2+KoSETnkFs5CZWnn6B2PwzOHwh5kcJ9f4Q/tY+qN6g2VsoByMRY46Wxdv/iQk6nVWtqPngY/aosMeGbLvJSGv1eJZAZYd6LIHKDgW32WkbARVbjnlTYuEoN18Lh5cxOzeDlXCUk65oR8lEtAxUTENuGv8c9a2giqD81tWsDOLELtGEi7LcbUoO/sog6hsb0dDSjBrqZuvxQbXcoHv8mPJyh1sCBDiolUMsHkc0GuWcEU7OpjC/IQAFldMXJ9paPX7WeU/W/EB4URjQWEz7Vp4g+3cF8PH5fRwOovvKsM/h1rXip9tToKLkkJgZwtL9v0Ny8jvYqBS5/RKqzv8jqMF63uQZlNhHTCdUKUThHD2NTHgKq4M3sfT0S2ixRXjrO1HV97vwH+uD3RPkXBXS3+zKDKIDv8bK459BUZ1wNxxH9bt/BmdlE9tm5k8p4sCSoZ9d6LEEKrsQ3qanmo1O8j5w8R+0S41HY1iNJPHkySCmJsc5Ecyh2pHNCHplkSdL4RyxS9XJm0IvSXDw5+/I4MbKcs9liXQRbSdPoa37JELBAHxuF6hs2UoSfxVPKa95iCVAuqjnRLNBszcPhShJAyORiMmhYjGOF/RybRRI/GtDGhQTeFMZfUUgAL+PmEGLDvYcEhCS3sBDrGXrHm3PgApd2WZDZvkFVh7+jPlOKEnXS2Di0p/A03YB0HWqASrUVJrFDzktifTCOCLPHyA+PwJXdQtCJ6/BVdkExUa9gFzQ0knEJx4g8vRzJKYewuGvgq/zCirP/wAOf41Jw09+bqvykkI/Jr9L6RexQdWPzFEpUQ0JVPbYDBQjAwYWYvcodoUKtKyBaEzH3bv3MTY2AENPM7EPA3pSYBtVPSjwOBxc0aMpIlUsp9Ef2s1SIpfYzeoc8CFqoSwcqoJTFy+js+cMfE4H3JLqbY9f7NG6HNNaUWiSXNfEO0E5VWT7FYVzVkaGR7AaiZi6TbLZDFCIhPCNDvomvD4vujqpMeExvgJ5a6g0me9N5feUG2NdepPrHK03c7ifdi+BCvGeaLElrD76rwg//QJabAGuQC1C53+AwLnf4fCMyIoSG8t8iDynccJsNhVFNrrIpHCOimqoqoup8Yn8Lb26iNWn/4DIwK+Qjc7DFWpG5ZnvoaL7umhuyPbeImojsMLtZ03YXsLmLIHK1kotgcrWMtrWiI2ASp64jarkDCQTafT392P42RAyWgYqxzOdIuHKluUqh2PNLaiqDMHuoIo6HbF4irlXiGRLcE0QN6P4wFTFgMOu4nzfBXR3d8PldkOlD2pbE5eDpQQKErCACnkBV5aXEV5dRWVlEFXV1ZianMSDBw+xvLRUyEkRmLzEK2JWglq/MEM9vNk1k06on8/Zs2fR1tqG1cgqlzxXVPhRX18vwj6WR0WClCOhnnsGVEyPXS6bRmL8LsLf/RyJmQHYVDt8zWdQeekPudcPOFdFh5IThG4iImkCCdJRPcvVlGKzaYeNclp0A/HJp1gd+ByJifswMlH4Ws6hsvcH8Lac5/wXC6gwnwrlH7LvhjwqwoOz5pBAZWvdlkBlaxlta8S6WItpwTmuQzxBGlKpOO7038HQ6Aiy7FZ3wzDcUBQddiXFnZHPn+1FW3s7PG6Kc+pYWY1gYGQEI8PPkE0avMvVYbDBJ9BCCYdvne/Bqe5OqB4vQNTLtEeQBn5br08OLgIrZq+f+/fvsxelra0dx493cTNCInxbWVnJlyzzvjRfxSbyrGiHKpppCuNs/d7av1L4kjokU6PD+vo6jI2NYXx8HFWhKly+cgU+n6AtlxT6R0cr9w6o5Dg5lgoOsuFprD7+FSLU8ye6BNUbgLf7KgIn34e75hiXHFNvHi5O4CIgk+yQE7+pyCEHIoej7FwjFUdqfgyRwa+YQt+IL8PmcCJ04YcInnof9ooGszqOvN125MxwveAhEoGmdYcEKlsruAQqW8toRyNK3RlmKTG5tFOJJHtUBkcHkDXSsNt9MHQXOJijpOH1enHhQh+6jnfB5XQwGo9G4xgaGsbAkwEk4xkGKORpgY3c4yocDjsu9p5Hd3cXHG43QB08dzRxeZKUQCGSE4vF8fmv/gFLy0scnjl18hTS6QwGBwcxOzfLBHDcAiJPDC7KjgtARZTQF7p/C+nSGJtNZc/J6Z4ebkRI1ySwEggE8MEHH7IHRybSHi1t3DugQnqncwNCIxVBYvI7xAa/Zg+Ink5CcfsR7HkfwRPvwslghUCxKLe3Cuy56zHT5ucYzGjxMNJzY4iN3kb8WT8n3dqcLnibT6Hm8h/CXX+c+VMoGZxzWaiMOU/4Qsy2VkZMyTuVQGVrJZdAZWsZ7XREKccaFe9QCWcqnsWdO3cx+OwBskYMDrsfhuZmoKIiDY/fj76Lb6Gzq4t7nlD2eDyWwMjQCB4/esxAhzwllK9CmwBKpHW5XOjtu4TjJ04yaOENgDykBHYqARPlUuLsL37+C06ebWhoxNmzZ+D3+7lX1cjoKLLMqZIG8a4Q8DCzssyYf+Hma8qUbTbmYCGPSkdHB/f5IbDz6LtHTM9Pfau+99H3UFVVJfIGTO/MTh9FnndwJLBXQIV9eOzEpvBNBnpiGfHn9xB7+DOkFp5DS6XhrmlFRftF+Lsvc0mxwuyzdhDFNwEWg6stDejZDIxsEsmpYSTGHyP94gn08BRf39XQicCZ91HRdRkOLwFru5nXZSbRiguxV4aqNwVkl0Bl2xopgcq2RVb2CeuACoOLHFKxLPrv3MPQswfIGFHYVR9ympsV2W4Blbcuob2jAy6ni6ObiXgCw0OjePLoEVLxFO9S9VyWFwa7qsDjcTNQ6ew+AScBFYrtS5dK2e9KDiw1nmSjcwxQvvrqK670qampxblzZ1FbV4e52Vk8e/aMOysnk0lks1kGHrwfpa7LRRm07F0xafC5P5VdhYNYN1WVuVLoTzwR53DSxMQEgoEgPvjwAwQrK3l3WlwCLd/T4ZbAXgIVqqDM6aLJJe3ctPA0Yk+/QHTkFjKrCzDSCa7J8TT3wN3UA3uwEfZANVSP32StJQ64DNIrc8gsTCAxM4zM0gyUdAQ2hwpndTO83ZcR6HkPdlcFbA4XbDan8KhYxD+c9CLSdQVQKa/Xj6z6WW+PJDPtK/r2N2Ktpw8xtZrFvbv3MMxAJQbV5oGRpQQsA3ZVg9frQ++ly2gzgQoZ/XA0jpHhUQw8fop0PCHUXaEOy4CqAG4CKhcJqHRzMq5qUUNLsPKK3u4hvqypMxSrj0aiuH37Nubm5hGqrETP6dNobKSmazkmLUwlU9zHanNSwWISOMG7QofwqKicj0Uge2lpiRN0Kf+loaEely9fRmWoUoSRJOI+xMq29tH2EqjoZsNCwTwlQIK2Os8hoPjoHWTCszDiq6I7uGKH6grAUVkDh6dCJNUaGvRMBno8wn+y2RQ3DHQ4HfDUt8LfdQnutl7mTWF2cabmpyKGPJ8EP5yF2TfwpYiHl6GfrfVbelS2ltFOR2wEVMijkl7N4N6dexgYvQddScLh8CKTsMOu5gRQ8flw4fIVtLZ3wOmg0A8QiyUxMjqGgSdPkY4liCIANhvlB+gw9Cw8Hi8uXrmCzq5u3qkKxgtZo7zTd3fkz+PdqAAjxKY8PDTMHrqWlhbUN9TD5/OzhlHIh7x+VL3DxnrdsdbRTYtCOp1GNquBmh0SiRz9PTHxgvtgkVE/3t2FkydOcuky70xlQviRUce9AypE5kbNCkVBAZGtUbkweVi0yBzSC88QHfgaiZE7yMbCUGxOOIha3wYYGdoICngjgIYNyCShU96Jx4+KthMI9rwNz7FzsPnqRF6KLkqPCfCIg24qmh+WsjWve5kSqGyt3xKobC2jnY7YsA8g6a5mYHxsCo8H7mN+ZQrQVShZJ2yqAkXNwUdA5a2LOHbsGJdo0hGLJzAyMoonj58gFaUPibyTBqN+j8+H6poanDlzFk1NzeyZUah3BaN8q4vnTp9CnndkJZADNEPDangVDx88FD1/TO4T6nSsZzXYVJVzSbq6OvlvInDb7CBQsxJewejIKHOwUCIuV4DqOihpl3JdmpqacO7cOe78LVlpj57mld892cKvIvdDsKEIYEE90BRuzUDggSIvgiWWsQONo2ogLYH0zAiHdKiKh/4mrwnlouR0arYpeK9IQSnvxFFRA3fbGbga2uAMNcAZaoTqrcrb1zwYsYAKz8nMSMm7VDYlFEJOsYl5UxsKquiUvX7WKr8EKq/OGGzasNgAEtEMXsw8x+ziC2STGpQMJXFRwonCibFd3V2ora2F3cyKTabS3CSOKPiNrMHdbKHqTMRVWVWNhoYG1NbUwOP2iG6iuTTvCBSbpH57dW/4EF/ZqqonKv1MBhPjE3g29oxDQAQo6KAKNtVuR01tDXrP96KpuZE9gPmjpLSY8lgotHPv3j3uI0QhTSJ0o8WJuibX1dWh+3g3A3SXS9CU21TyDcr45SHWtDWPxkAlm4CRTeT7nb20e3I+60OACt7AmUBFYRuYg6HYicjB7DNF1QfEPQUuNdYzCeiJCPTIIoeFstFl06MipqUy2VslHDVNsAdqYfNUsAfF6uUDXRTbU3WR6L1GZc70I8osNAShXB6olBC9WU/+Uo+Kp6h7shVSWstSfiR0QwKVN/CaraTaTALpdBK6nkNOFzX8HOZUbFyi7HSZxEG86zSQTqXYba7kFN6FKhyDBY9zuT2cRCuMOgdYxYOxO14a+jfwlg/FLUnDyPNBehdZjSASjSCRSELTsgwwKDGWqoBqa+vYE0j5UXmStiIJ0FhN15BMpTA/O8dJulldg121c/jH6XShMhhEsDLIlW4UvqSFxyKGOxTClA+xpQS4wSXlgmhJs9llSejQXPipJ5o4itNTC3YuX33GRG3FtzVL5wkcENsy91QzAF2DkU0jl0kz15V1bSpLtrncsDmp2IFsdCEkxGbWmp75O8urs2Ze+UfYLIZpgiyaK4ePbMjZHExORwm6XInEu14JVHK0MH762Wf4yY9/vLEybSRjuf5t+eFtOCAvSyIBEgwUpJzF4rSI2kS2eNEmdYP3YHluJLnbzl6HPGsDCZCemSknBDLYc27kkNU0LkmmJpukuQQoRMNCu+BGIT3eoD8PeUeoBJmMe1ajkuYMV8DRdclrSNewmGjZw2J1EZcv52hJwNCR09LIEVhhEFEKVHLsoSCgwvknG9fRmBBGLO6USCtyVIoOzn3a++Qnq//a9vKqrGcRoIlCVbA5eRNAfYUkUDExmk2xSaDyRsyBtRuwmoBL38cbeQ3yphtLYIONCNl2JngzPXYEKPL9eF5m901Hn+jhI5Yf/pHFZmujKiCr3Ei+kCMrAWojrxNvSQo5ncInOwcqQoYvBzN7K2facBY5esq++BZAhcJKtGtYA66OmJdAhn7K1iY5UErg6EmgqFR5Ta5IkZ0s3pi+zHxyaiF5S2yCvdbc9uZlapVvypyUo6dm+Sfec6ByEGS5AVBRKfxph6I6mQMmH8IvxJoOwoPt3RwlUNk7WcorSQkcOgmYeIK8KILRxPyBVYnMcfpCt0EGIC9DKyUJtoXSzXxWgfSsHDolKveBzNw6LQPd9KiYVGn5C/CSXmbop9y7vvlxmwAVCqfaKPRDH5v0qEjCtzevqXIGUgL7UwIbgY6SEI/VdNCiuy/nQbgbrUmPnwc2+cTEnbjPy7mrHLO/JWDmpGhEtJaGrmdhIw8L55qaFT1HAKhwfyGbEzYCKqrLJIQTyeX5CqKjViAhPSr7+9OVs5MSeOMSKAOs5JNOyp1sMSgpvn4+eaXcC8lxh0cCJvcIgZNsFpqWgcJEamuBCpOolZFMuz/lUqrs/HSFxGDiXyF2WxOoUHNZ/j0l2EqgIpNp96dSy1lJCUgJSAkcFQmIECInausadC0Lg8CKqIsUgMWs8qHqGsa0Zknv/peQWV68ZqJWJZLpLRJeAyjMyeKEQuSJnEgrSOskUJFVP/tfz+UMpQSkBKQEDrsERJMdwXFC3CbM12NynTAwEYs7NxzkFXzDNn8mqBHkb/vi4NDVWtdkIf9GVAtxeT8171RV9qhwWbJ5HkE1CVQkUNkXuiwnISUgJSAlcOQlwGDEoDp4GJSvoltdh7k23uQasQBKMetaQXIECdR9AFKsIp0C1BJzFPlZZvUbk8UJoGK3KbBRuIf+5HtnWQDniJUkF38IMkflyJsFKQApASkBKYF9JAEiBjQ9KwRSzKIynUAK5a/kctAVYo8lHlgTqJSs4eRJEUGTN3zkROCKoFZpSxXqIWT1E7JYmFUr9MMJtUTJL0GK5R6TVT9vWJfl7aUEpASkBKQELAmYrhBGKOK/icSYS9l16mNmIEcd/Mx8FSsVtVR+G2WFvHYZm9Ti9BcHrdYAKrPc3wzvcLsIZmQ2KfUtyn6WwRH2pphyk0DltWuvvKGUgJSAlICUQNkSsKh6iGKfQkPceVCcXcq1Yl1zPy3tnGNScggOoSLyQ/5vEQYqPJxF9b+fnqbst7Z3A2XoZ+9kKa8kJSAlICUgJfCKJCCyZ8WfNev2PkhGKfeR889QaDVUaJpo+oCKuyjmafMlUJEelXKVTI6TEpASkBKQEnj9EshjkUJ/NKtp1GYwZW3X5Nc/5bV3LEr+3bRjYUmwas0DSKAigcqb1mF5fykBKQEpASmBzSVQAlREKMXkH9kAqYjUkFKq4zcr4EKn502h1fpclDw+kUBFApVXrL+lannEVe4VS1teXkpASuCwScCkT4HC4IPaVxZSaDcjTs4Ryysfbz6tlmdghX02JXehfJTS8qXD9iZ3+DwyR2WHgsufthE6XqtsEqjsVsbyfCkBKYGjJYG13hCL100xwYfFVbsWglh2V5zLkIZBgQQqB153JFDZzSukpC6LysdsqJUza+MtIE8fiWG2mt2GK9KsatvN5MReYjt5ZpsNLkX5u56VvICUgJSAlMBmEjBJ3YglJU96JpCHDbrwqOSdJTnTy0JgpLilNyWrqlCIx8SqDirCK/mfbcc+7tkL28lNj7gfXgKV3WifBVTo4ykGKhYwMdFKjoh7thcz3StsIIHKbt6vPFdKQErg9UvADO/k6ePFDATOMLlVqDEhmV/mU7F+S3bXSlolJn7699oF3mKyl0Dl9b/VXd1RApVdic90WZgfR94Nki/wFxdndkL+j/xH9TJ8vFcgZVseFZ7QJkh/Lye0S3HL06UEpAQOtwQKtpJWp2KracKOXI4J4Bi4FBvS0txZsrsmYZygrC/gFglUDpgOSaCyjRdmuSeKF25S/i3Wd2sIpYAJ7P/63HjleFTyH+1WD7INUcmhB0ACRSH9vEEvrek0xzDHVqnark0JOAAPLKe47yVA7XxMk6rkdNCfnOrMc6BZtlTXhT4Sy7y1B1R00xDbTFBC/yTKfZPxNf/sVs5qKR1LKeix0lv2vdCOwAQlUNnOSzYZERnmC60mA09/mFGQIYgVPKUh4isisEAghTp+8jdjdaoyG1NtZwbbHSuBynYldoTGWyCEHYLCKgt+KdLWHGx5lkxyo5swm/3tCpjuWx5SAq9AAuQtERs66vmjAza7oJVnNTW7J5MxZR01vSQic1acxz80L6JrJqKxOv+Y11kXFDJRixVS4g/BGiR1/RW85u1dUgKVMuXFSkvonPJRCICobNzJqGu6Di0jul86HNT9kr4T6tkg6JANXUcmnYWmKPC4HFAZPRjIKWpRh8wy57HNYRKobFNgh3l4seev2A1udn3TNB2ZTMakKFfgcrlgt6sMv0nPddLjTIb13Olywmaj38lDSuDVScAwdOjZJCFl2MizopJxNWnnGZxQh+UMcroOxeGEqjqgp+PIROah2FQ4/EGorgrkTKAjGgGaRx7PCHssgBD/PxSyzWsGvrpnlFcuQwISqJQhpPwQ8qgIoJIze3Pqmo54LI75mTn2lNQ318MfqDDDOwrvRBPxOGamZ5HKamhqqkcw4AV9bzn6aPiDsBpZiH2EOAxzd1u0ohT/es2015+f3/BuEJYSLASFg/fK7C0t+um68+SStB1NOQhjLW9gPJFAPBbD6moEkUiEgYrD4USwMoiqqioEKir4cVYjEczNzjFQqaurQzAYhI13r2/2EB7NNz+PNyuFQ3J3Bg/CnuVgQIuHEZt/Bi0Vgbe6Fe7KRthU01OtqMgmYkgsTiITW4EnWANv3TEkF8YQHrwBm9OD0Im34a7rMvss52CzlVRlWo0PTfUxsiloyRhvMh3eINhQ81EUY9pI1LyR3UwHS2NIm+QKSGC0uRJLoFL+By4IhITSUYNx+s9MMou5+Xk8ufsVckYGF65cR2NrB1+UvBnkTVmYnsW9e/cQjSVwvvcc2jtb4HLbkVMcACP8HBR2aZKii8z1nKFRI03AsAuXppnAvlFeK8Vx2UPD4Mn8iItBTSERHoaZJc/wxzQGuZxmuvnN3caG35FcCMrXlP0/ksApgWzykjwbG8PYszEsLy8hnU7DrtrZfe7z+dDW1o6TJ07A5XZhfGICjx8/ZkB75sxpdHZ2wpZPEjCfuTShcRNRmBEkofIb6VuZ+QFinRFARWKV/a93W86QIi6GaWe1LFILzzH/+JdIhedQffJdBDsuwuH2AobBeCa5OIXFp98gOjOKUPspNPR+iOjcEJYe/gp2TwVqzn4f3uYzgN1j3tq0Y5ayUEiT9UcAjeTCOKITT+FweVDZeQHwVLDXRlHJDm+uzHwN3n1uhmJKDbL1vVhxrmL7aubYMFqTdlcsphzSs+W8Xi8+/ewz/OTHP974bWz0Ao6YDAtMhwwt2MZmUhlMT8+i/+avoWsZvP3eb6Gts1NIloGKgbnJady8cRMrq6t499130HWiDU6XA4bigEaly7oGm54V13S4Oe6aM7KwqRQ3UqFp5MkB7yQMcnXyhwxeUGihoLG6rsHIkbFWYVdV3umyjrOzRHh2aFEy6H85A6pNjON9iwlUFGu3Ybo/1yrCEXvZW1rUAzrA1AkOWWoaYrEY+vv7MfliEv4KP+rr6znks7KygpmZGbicLvRe6EVzSzNmZ2bx8OFDfvBz586hq6srX1Whss7ZCl45a4dqGELvDIN/T+PY+8GlpQp0Q+dvhH5Gv6dxNJ7G0R/+hnLiZ7yvLb6G2ViWFjYBVKSOHlCtLEw771HJIadnkZgbwsy3/wdSkUU09P4OgifehcNXKeyroSM5M4rZ+7/Eyvhj1PVcQfO1P4GWWkVs4hFsdie8jV1wVNQL/EDIhnJbqAMzXUF1QLE5OB+Lf23oCA/exPKD/wp3qBG1F38Xzsp6KOTBMYEObSDJXtPcOFfL7uIcGvJCCjCTg5FJic0nXV9RkNMzJthxWqlgHJbinajJZGfQNQ2dr2FTaQNLym2lGUi9lkCljC+b1ZiTYK3dXyGmmc6kMD01hdt3HiKVyuDa9cvo7Gxlz4aSU2HoOczNzOLrG19jYXEB3/vwQ3R2dcDhdCCi57AUS0ELr8AVX0aWQEbdMVT63PDa7bA7VSSzGhaXl2BkNbidLmSzWSSTSeiahtpQCF6/H8lMEqurq0il0nC53AiFgvD7KbxkhwIy/kAykeIx2XQS6XQKbrcXlZVV8Pg8sNvpg6JFwELyxc9pCUh+LGWoyv4eUuKlIFAwMDCIu/fucnLs2bNn0d7ewXoQjcbwfGwMi4uLqK6pQfeJ4wiHw3j48DtkM1kc7+pCfUM9EokEg5WKigCqqkIMbMg4E7jIZDOIRUVIKZNJw+12IxAIwuv1sJ6qqo11kkARudrp56lUCvF4HLW1dagIVCCdSnM4Kh6P8X0IRAUCAVRUVMDhoEVGJPoyUCnetO7vNyFnV4YEKPckNTeI+Zv/EenVJdT0/S6CJ6/B7g2I8LuhIT0zjPkHv8DKxGPUn34P9e/8MbTkElLzz6EoDrjrW2H318HIZmDEl6BFV6HHw9C1JOzeENTQMTgrqtmeppcnEXn6BWLDN+AI1KGy5wO4a1rhqmmB4q2CkUkgG55BNjIHLb7MQMRd3Qo1WA+bMwCbw4lcNoXk9FNoyShfQ1UUaNE5BiWOYBOHsMjM2iuboHpDQn+1DBKLL5BJhOEONcAdbIDN4WZwIw4r7FSG0A7rEOlR2frNvhyoJHk3erv/MZKpDN577xKOd7VyMi1gZyM6NzeHG199hfn5OXz/o8l57u8AACAASURBVI/Q2d4OQ8tiZG4Jj8enEZuegCcyj4zqgFHVjM6OdvS0taKqKoC5lSU8HRzE8uISnDaVjTUZ8mQigYbqajTU1yOWTmF+aQGR1Qgb8vb2VnR3H0d9XT10PccLxdjYBGamprEaXkImnYLD4UZtXQOOd59EW1srg3vGKRZH0jqvigQqW2vKPh9hhkmsWRKYePp0AA8ePoBqs+HMmbPsJXF73DwknUohGovBbrfD43FjanKKPSrJVBKBigCSyRSi0Qh7UTweD/ou9qG9rZ0ByWpkFaOjoxgZGWUgQvfye30MPnpO9aC9o50TcicnJ/HwwXfs2QkEKhBeCcOmqrjY14e6+nq+xrNno6zb7FW0qairr8P5c+fQ0tzCu2FKAibQsy4Mtc9fh5zeyyVANjI1O4yFb/8G2XgU1X2/h4rjlzikQ7aVvBHp+VEsEVAZ/w41J99BTd9vIzp0G9GRu7CH6lF55m14alqRmhvH8uDXiL8YgJGOw8jGOPnW3XgRDVf/MRRPACv3/x7xoa+hJyLspbb7g/C1nEP1lT+Go6Yd0We3sfzocyTnBmAYGdgdXjh8IfiOnUXo9A/gCDZAT4QRfvj3iI19C8Xpg01LQk8swVXfA3fDaUSGvoASW0TV9Y/h7X4Pit2NxMIYZh/+ksFKqPMiAy67v0YAFfasSNsrPSplWIsCUClK9jDPS6czmJyYxre3v0U8Gce5s2fR1NRokrwpnKMyP7+EwYEBZFMJvPfedbR2NWNyagJPnowjHE4hFHShrtqBRCKL2QUCESrOnD6Jzq5OrEaj6O+/ixcvXvAusramGjYjxzvdaDwBr8+HYIUXPp8H0UQaS0thOOw2nDvTg7NnzyGeymBwcAgjI99xnkEo1Aq73YPV8DyikQU0NjTh8ltX4HS7hOue66ctoRTH++THUoaq7O8hJUBFNwzMzs7g/v37WFpaQmVlCI0NDagMhVBR4Wd9I5Bid5BrO4fx8XH03+lHIp5AqKoKFC72uN2YX1jg8xsa6nH16lVOtJ2ansLTJwMMQILBAHtQYrEoxsbG0Nzcgrfeegu1dTWYGJ/A7du3sbK8gtq6Ovh8XgQDQTQ1N7Mn5fHjR3DYHaitq4XT5cLy0jIikVUOUZ0/dx6VoUrOr6Iwkgz97G/129bsSFc1Dan5Yazc/PdIh+fhb78Ib0M3VE+FyUprQ3Z1DuHhm0gsPkdVz4eouvpPEBv4DZYe30DO7kR934fw17VhcfAbzD39Bi5XANVNbVAdKsLzU0hFkqjt+x14jp1Gen4Eiae/QmpuBHaXD676bniPnYGn5TT0xCrmH32B+MwQPMFqeGtaOMQTm3/O4cvqsx8heOJ7MLIJrNz4D4g8+xaqp5KTfx1uH5x1nXBUtyPy6BdID36JwLV/Ad+5H8LmDiDyrB8L/X/HicE1Zz9E9ZkPYffXmh6V9ey625LjYRksPSpbv8k8UMnT5BcqcdKZLKYnZnDz1ldsQP3+CjidLuiGyZ6oKNC1HP/O53DgytUraOqsw8NHDzA2OIXaUBN6znaiqs6JeDSNZ4MzGHs+hvqmOjbmuZyCu3fvYXJqCk3NTTh5ohs+jxcLc3O4dfceXC4Pzp7qRGNTI6LxDJ48HcTczDROdXfh8pUrWF5N4datb7C4NIrzvefR2noGDqcPC/OTePrkHtKpLC5ffBstLS2wO53Co0IHhwkkUNlaOw7mCA5e6jqo4mdifBzPnz/H4uISJzISoKX8kObmZtaLlmMt/JA05s7tO1zl1n2iG93dlGTrZPBx/9599ua9++67fB55/QjAkLelrq6WvSSzMzP49a9/DafTievXrqO1rRUTEwKoUAiJPS3t7fD5fRzGvHPnNqampnDhwgV0d3fznBYWFjA4OMghozOnz/A8PF6vLJM+mGq4+awJqOg6g4eVr/4tkrPDsPvroXi8MDQNhpaG4vBwn59sZB5GNonQ6Y9Qff0TxId+g/mHX3D+SF3fh/CF6jH78HMsjD5AZVMPGo6fg72uDqnlJSSWV+FrOQl7TTv0bAbx7/4/xB79As5QE0K9vw97XTuo2GD18RdYHr0Hm9ONmtPX4W85BT2dRHT0DpZGbsJb04yaKz+CzeNH+Ot/h8jwN3A3nkZl99tw1bTC5qviHJTE8A1E7/xnuDuuwP/On0P1VmLl8edYuv9zuCobUH/lj+Cp74Li9AuyOgr7FPc7OmzvudznkUBla0m9FKiks5ienMXNb3/DcXSKrbvcHhhMkKWwcaXclckXL+B1u3H16hU0NNTg/v27mJyZxfETJ9HXew5etxPJeBITUy9w+/YduBweXLt+HW6Ph5MdyWCf6O5msOFxObEwN4/PP78BVXXi3XfOo7GlCbF4FnfvPcDo0BBOHu/C5bevYmpujvNjoqtR9tCEqgOcpBsNRzH9YoYTKi+cO4fTp0/D7feKpEerIYYEKlsrx0EaUVx9TrwoGiUV5jiEE15ZQTi8yoB6eXkZq+FVTmANBIPou3gBtbW1mJ2dY48KVQZduNCLnp4e9r7NTM/giy+/YC/ipUuXOKxDOkTXoT+UV0XhmdVwmEEN3fPatevo6GzH5OQU7ty5Ay2r4fLly+igc1WV875u3LjJlUjtHR2oCoXYq0M5K/Pz8+xtOdVzCn19fVydJL0pB0kRy5trTjOQIY/Kl/894tMD8DSchFpRw8mrGiWsqnZOVNWWJ6Alwgj2fB81b/8Z4s++xeR3X8Lu8qKh77fgr6zD4pOvMDvQD5vDi4rqerhCtXB7A3AEGuCqa4PNXwM9pyD64GeI3P7f4axqRtXb/wyO+i7osWUsfv2/IDE7DH/HFYR6fwB7dRuQTSHx7FvM3vkvVNmAhnc+hj3Ugsi3f4vI0Dfwn7yO0Lkfwll9DDmbA8jEkZ56gvDX/4HnXnntX0KpqMZi/98jPvkElSffR81b/xg2t5+rQTm5lrm4pDdbhn7K+GZeBlQyqSympwiofIVUOoXzvb1oamziXhQEVGjhX5hfxN27dxkYX71yBXVVVbh75w6ml+dw5sI5XDz/FpxQkcokMD0/gRtf34RNd+D6tQ/gDfjQf7cfU5OTOHXyJMfu7XYFC3OL+OLzb/ge7793EQ0tDYgndfT3P8DwwAB6TnTj0uVLGJsexze3biMdt6G+vg5OTwaKqgGaA+mkAZddRVdHGzq6uuDyukWpHsvEyh62BCQ/ljJUZX8PKQYqRo7BgVVRQ6ETqgSjZNaVlTADF/KgzC/Mo6OjA+fOnc9XCFHi4YWLfezlIB88hSE///xzBiQXL15ER0cnVlfDHCpaWlxCJpuF0+ngb2F+bp7vSSC8s7OD814IqBCwv3LlCtraKREdeD42jlvffsu5LvX1DZz3QpVtnKjLVT42zq06ceIE3C63yUa6v8UvZ7c9CeR0A5m5IYR/82+RCs8gePojuJpOQ3V4wXU7OUALTyIy9CUn3fp7PkLtpT9B4nk/xh//Bja7G80XP0KgqQvJ2edYGb2L+OKsqPrJZKA6nAxigqffgav5NBNwRr77GSJ3/gsDlZp3/yXsdV3QovNY/Px/QHp+GKHeP4D//O8zsIGWQPz5Hczc+Guu1mm4+mdQq1oR+fZ/RXT0LoJnPkTwwh/AEWw0K3x0aMuTWPnmb6EtjsJ//geAy4eV7/4BejaN6ot/hMCpDwGq+uFKTVHNJoGKLE8u68tZA1RMqnFxosKhk7npWdz49iuks2lcv/YeOju7WLnI+NKudGZmlsuTk8k47zgphk8u9OmZCZw73YO+i5dhd3uRTicwM/EM/f33oKouvP3OO3B7vMzBwh6VEyd4B0k5KAtzC/j1FzcYEL3//kU0NjUgntLQ338fQwND6DlxApcuX8bE9CTu9N+FntVx8uRJBCqpGkiBqtg50ZZoVYi4q7q6muO2InnLEouVk1MIdZUlMDlo30vAYpklkEHJrlRJY5UmE1il0MvjJ4/x+NEjVPgrcOXqVQYiBJopZER62HX8eB6oUEiHPC1vXbrESa5DQ4MYHh6Gx+NFY2MDe2ay2Qzu9d9DVssKoNLRwXpdDFTaO9rYOE+Mv2CgEolGcbqnh/NX6BDlzDoT0jEZXSAAp4PKOfMUR/te9nKC5UmA3nN6bgThG/8jsokwQn1/BG/HW1CdvvxinpkfRfj+/4XwyDcInvkI1Zf/CRJjd/Di0efIqS4cu/jbCLafB9IxZOfGkIyGWYeSy3OITY0itzSL6r7vI3j2fai+IKIDX2Kl/+/gqqxH7bV/AXtdJwOVpRt/jdTUE1R0X0NF3x/CTuBDSyL+/BZmb/xH2L0VqL/yz2GrqMPKzb9FdPwRgj0fIHTh9+AINoumRAq44ojyYGJPfg57dSsUh4s9NTQm1PeHcLecK+LTsjaM5cnrUI+SoZ+tX28hmdYifCt4GRiozEzjxjc3kNUyuH79A7S3dYi6erMRxdzcPG5+9RXvMi9duYyWtnbce/AQE4OP0FJdiVMXLsHb2IJEOIzpgQE8H3+OqsZ69L11CTaouHPnLqanCaic5AWCaM0X5ufx+Vdf8e7y/fffQmNjPRJpDbfvEFAZRM+JU3j76ttYXFzhxWU1MouzZ8+grf0UnA4PEolVRFaXoBtATXU9QqEQVC77KQYlVhm2TOjaWksO1ggCKgQYnjx+iuHhIQYU5CEhsEIVNJRj8uTpUw7VNDU04kLfBQYvd+/2s6Enz0kXAXLA9KgIoHL5ymU01Ddwgu7Ys2fo6OxEb+95znshVtsvv/wNAxYCKh3tHazXFNokUE+hH/KoUFL34sIibt2+zeeQ3tLcPF4Pl00vLS6yMW9sbITf7+MyZT7KJIk7WG/qqM42x4A0OT+K5Rv/DnpsCaEL/w18nW9B9VVC4UoYG7LLU1i+938zE23g7PdQdfVPkXh2CzMPf4mcw4OWC7+Divo2JOfGkFmehaeqAc6aei41XnrwDZaf3EJl21lU9X0AV0MHVofvYOnW/wm7x4/aS38AZ+NxVqzo0y8QHfgNJ8j6z/8e3C1ngUwU0cEvsfj4l/A3HEf91X8OxRXAwtd/jfDzR6g8dR3VvT+Eo7LZzDMxkMukkJ0b5mfKxhZgc3p5rfB3XUfg3O8z0OEqn2I7LJ3ZkvCtHDOwtuqn0HTQ8qhQPP3WrZsMVN699j7aj7Wxe5upnhUblwXfvHED0cgq3n77bXSePIGR5+MYfHAXRiKGumPt8DU0I0Yx/YkJdpWfOHMKp86eRSqe5rwAqs4gY93b2wuHw845Kr/++iu2zdeuvcWVRokU7XjvYXhoGCe6uvH22+8gm9E4+XBk9BEnKbY0H4dqd2N5eQ7LS/Pw+/240NvHHhUq/cxT6fOHIoFKOfpxIMcwqWCOdeW7R9+xV4Wrfpoa4XQ4OTdkdnaWgTBVj1H4JxxeYe8eeVxID6mUmXKw5ucXOPSTzqQZbFDlEJUx07UbGqkEXoSIqEx/dPQZG+Z33r2G9rZWTE9N4y5d0zBw8dJbaGtr4/wWAj0PHjxksEPJsi0tzczVYhHRud0u9PSc5gRz+m9BSLGu09yBfDVy0tSM0ACRoMWJmfbWf0YmFkZ9728j0HEedncFcpRMmzOQWpnD/IPPsfzsHqpOv4uGS/8IsfH7mPruSy4PPnb+ffh9FZh9cgPLL4YRqG5BZXMXbG4nVkaeIDo7garWU6jufQ/O+lbEnt3Dwq3/B6l0BoH2XgRbuuFp7EB26QWWHvwc8aUZOOtOwNXYA+hJJJ9/g8zKFKrOfB81fX8AA3ZMf/2fsDT2GLUnL6P+3PfhCFmhH2YARS4exdLNf4/Vod/wc7pCTai69Mfwnvge598UGMqlPue/hR15VI44wrOACwkxk85g6sUshgfuQTey6L1wBU3Nx4SumSyL5P24338X6UgcvX19aOhoQzybxtSLScxOvEAsHodGjIc5oMJTiZqaarS2N6CqphrxaBIDTwaxvLyI5uYmdrcT/8Ti3ALuPrjPu8nTZ08ztwRVIFEp8vjz5zy293wvk75REuPzZ6OYm5/jxSSradzgK+APoaWFFpIWOJ0eMDNtcaGPGd6ShvNwSoC8KpSTQrkoVFUWjUTZy6IqgiGW9KypqQnHu4/D6/GCPIODgwOsIpTYTRVBVMFD1UK3bt3iHJLTp88weCAW2+GhIa7OsTsccLtcnCRLZIMEbs6eOYv6hgbmFhoaHOL7nTx1kiuGmKE2l2PPydTUNDPkWucRuKJ8FapEaqMKIZ9XNkc8TOrJoXWN/1BlTzQ8h+dDjxGNRtHZ3YPa5mOCQp8qMDUNyfAyXgwNYGZqHC1dnWjt6kZscQ4TI0NwOtxo7u5BRSiAyMwLLI4+RSayCNVmh8qM3ApylY2oa+1ERUsHVJcH2eVpLI0+wtyLCbbnDa1dqO3pg93rw/L4AGbGRpBeWYaNvg+7DrdLgzdYy6XJntpWaNkMhu5+g8XZKRxr70LL8R44Kiqh2JyAITx/VLUUefwzzN/+36Cno6jp+b6oMKpuF0CFAbe5yB7xtVYCld183EUdwKlyIhJJILY6B5sth8rKBnh9fihEf28qGZGzzc/MwK4D1dW1cAT9xIwPI2sgvLSC5ZUlGNTbBzYE/NUIVQbg9qlQ7SKPhPJREsRHURlEqLqaqyYSkRiWV1bYTR+sCjGfCifuLi5yImRlMMi7YyoPJVd9JpXG9PQ0kqkENC3LXCrBiipUhipQEXCaH4bV60eWJe9GPQ7SuaQzBLZj8RgikShX/VBlDYVqKHeppraGq2roSCaSDFZEU8Ja5lGh/yawQ94SAhjEwULggSqJiPMkGosSBz5cbjdcLifnbFG38WrmYfFxiGllZZmNc3VNNXw+P6hjLoEa+pt4iiiPhpomklaSt4XCVDSWCOI44mMx08rqiIOkehvMlYl+uBzYAitaJoHlhQWkUgnU1jXC7fPBZjftlJLjpNjY4hKi4WUEa0PwBAMwEnHElpfgcnjhosaZLjty6ST05XkYq3OiEzOFVxxOoLIFtoogbG4f55Hk9BS0yBJSc9PQ0wn4q2ugVjVBqQjCSEaRDi8B9CeThE3VYPPZoPproARPAxTG0YHI/BRiq2G2y/5QDRQ72VcCKYJCn+j342P9mL3xP0Exsqi7/E8ROH4NcHiRs9llAu1GWiw9Kjv8tk0QQkaSjD0ZVUFDT71MiDitcF36vZbN8s+51wmBFLP0zDAUs08PNSLMwW53wm4X51ttCgkM0TVE/xNBdCLuKcJQVK1BgIR2oQRKyI2u2lUm6yI3vaiSULgU2TqHI7x0PZsqegoVH8SIaKH6Ncm1NEhC/B1qzP47zYzusY6wq91gHaE/BDqozQPpkMX4Sr/PZqnyBkwCx32meG0R55GOWT1/aKwFSlgfqReQSszKBZ0lXaLvwNJP69x8BId7+YgyahpTUEmF5yV6BuVr1KRq7j8N2+aMzPid2T2ZeJxyuSyMbFbYPxcB4yJ6J5NfhEJExGJLG0VhHW0gBhKdPCc2m0m3YEDRRZ+efLd6Ol91ikTXvHKR/cwil00DuQxs1AvI4Qfob9LDrAZbLsMAg/7AngOc1PDQywULNoeD28NSxRLber62AGBk0bV0HMmZp4g972dSOH99N6r6/hiepjNis5j/I2nz1yiPBCrb/Jas4VwdJzwPVsM1YXBJ18y+I9wHy/ROmNz0hC1sNh1QSJ3pIxJtxMUw00SbIaNUNssfGjUPtBq50YLCnyIvEmI85+ya8+E7F5ehcidmAisETOi34vcKfU5mB1LF6uDMvCmcvCCe0vpo1oSDJFDZocbs39PMxn9Cb6kzuHjh9DfpGDO/FiFvARpEfx1Kgi1SYAGaWSHNH7PHQ+iTBZYJ5HCztnznWjHeAijEmGsBcl0v8PqwOlKzTQJWOnXPpTkQ+JdGff8q13Zmxh1UzfCzaYcoJE76Qz+3O5DTc8xYyzqWD49YfZ4sQ2VDzqZCIx0zL0nDuSQg36XempdpL8l+EsEaAxld8KxxEbQNOdXDuYaKLr4J+rlCTWTJ88O9BU1vCTXXpLlybqLZMZMXCHajQNfiiM8MIvz4Z8gsT3I4qLrnt+Bvvww7Jdyy54W/lO0I7WiMlUBlB++5aOG2jDkbUHJBF3WtJ5OfPyjubyqgyhpPxpsa7IiKGqtdPfWftfJbyGBbBt5aKMQ9FEFWaF3e0uvif1ubE4U8L2JevBDx/fjr4Q+TP0SFPDJUqlySoJLPPJehoB1oycE4xcIZitUPvDBt0rWC/po6ZwJzq/sxAxUTZFtARyit0DcCEwJQCIp7BvNEd886X/D2CQAiQjvkGWTSQW50mzOJOYvAP6OatdctS9gl6l3WOXLQ65eA5a023zEt9NwwlfZ0BjgczhbNMpVFfxf/0FJNa+0nKgbe0Jkdi7l7t7mpFA4P4QnJKTmzAlKwixPoEbUFQoH4euSB5MpOsqAqbIYqWvNYRpnd6+Lb4CbI3BU8hvjcCJKzg+yx8VW1wFN/HPZALRSnl9o5r5d13r34+l/DvrqjBCo7fB2WgTeNJiN8ZqO1doZknIuMPuF0hTwopL8UWjHpkYuACp2f37ma3kjrw8jbWLNPVQkiEjcqNsSWt5GBimF2RqbFwgQq5hwMcpMqKoMUSjBbc0igskPlOICnlYLdotyPPP4tGsM/o3+bYIbtKQEQy7NnKj8vCrSrZcNd5DYx9VMAFwIoIoy0Js1kgzkdQMnKKe9QAlbEhHQr3zCVvH+GCItbqMHaeuX9aiV2t9g/IZzFlpUGdNMbx3pL17U8MOYekugbDEY4BQPLm0lWfTLGtMFToFLSITnKi517+T2huS4YaWjxMIxMlJNmHe4K2Fw+wO4qbCAlmN5YWyRQ2eFXVAQM2Eiz0Tbd5YzwCxpnhVtyZskvq7nlzhRbT9HEkFlhS0M3BUdgPopkLRJFH+s6oGICKJ4RrwAmCKIvieP64mNl9lxxV94xmBvZghXIi0dC+11oyv4/dSOgYhrt/OTXWHzLdFu7zBJ39Ube643ON33zVmjzZfeSqrj/1WgvZ8gWyjR6lofNMqu0zbMskqVWtrzNNW1vUQ7TGt0pMpZGvk0IGW+yhwRDaENnRsF5EmTNRVC0uAbeCpGKobZ8a7R1wN6y1/QsHDLSoRAVBB1U5bNRiF2a23WqpNgUW44y+D/97DP85Mc/Xh8iO+wobzchwVIvBin+Opu92Q2KFb9kTKnMi/9tDX3pvNe4fASK4vH0gRROLL3NBmuJjJjupfU9qNfKW1/zAUr//SqfayP7s9Nv9rDbslf5Hl7ntdd4RdaHJckxYhUbWI6LwubQ8rdsRVRJymCSeLKrhX03RW4RcrOQp1y4t828bbafxSkojEO2lSZlubutHe7azenrFPOBuRctqwxUPARUPsVPfvKTjXN5DvMHvlOjV/yWt2O482M3Qh8lC8HLNKkcoJKPEVmftblVYA+KtSvePIdLAvsD8ykf7om+5FPZ1oMfZju2LUHs48Fl2OO1vg3xLAWgYr3kctBDMdu4Ze2sGKVAJ9TBvpAhZcqtdI6l/34puM7H5c1krn38LvbL1ET4WMkRN8F/Rx4VAiobHMV5lmviyPvlQfZiHht9IDs1bBsa1mIvh6XwL/kqy/hgt3zszeZfmjgrvvS1SQI7ffYtJyUH7GsJ7PY72Au9fRUCkvr8KqS6t9csU3cO7npkJsNYFROHdjHdplqU8W0KoOL24rPPPsOPf/yjQklt0b0OrmKUKzAzLlkyvFA2vNV11mHuNcmBIhtkLVAROSsbHVa53Vb33BBSblzetpEirHmpG+wU+BwxRyseu5MZyXMOjgRKc6TWzHwrY1LmIvOmpJGnCnhTE5D3fYkEiu3vekXayP6sS74uufp+U8eCI724IkIqBa8vG22ci0RjVg0SUPEwUPn4Lz5moqbig91sRRcSCZf7TQ12/8KLuSKsq20lwDV33UQurKBbvIh1s98zGReFerYpIjYO7A0tiqlu8xpy+MGTQPF3kC+Lt3Th4D2OnPGBkYBpq0psX94Obes5rODQtk6Sg9+ABMpZHwV5nmLLEcX1Z59+hk8+PrpARXgOCv9vsQ+VizEYull1+fnrmB6Jci9SdN7uvYI7ByksBYtHgx9hq+30G9BwectXIwGuJDY3IuZf2wLs5qzyVWr7ZE9zGDdXr0YB3tRVhb0qtTSixH379kdU7mz/vDf19EfxvhYhH3Mu5TfG67/UEqDyKT75+JN1HpW8d6HgZjiUy5YABpZVNSHLNvW8mJXWWt63a+RLM8p3p8C7AysFgCKYQOVxBCRgMtTuxZPmPTJSd/ZCnIf8Gpvbqp1g3VyBbeWQy+3gPd7atdaiZCqsL1yOXnSsByqf/GhToJI/j+vND+OitRbJbf8ZN96zrfXSbKVU4hp5GvNdijlP8LbVbV/ye4vJUWaq7EKIB+jUPI/ELudc/DVs7xvY5Y3l6QdUAhYZ5Xr/benCtfUDWmsU8UhtPVqOeL0SyKePiMWOj+L1tnTdopYxIvTjcuHTTz/FJ5/8KN+bY7OplxNTer2PfXjvtrP4rCmP/M54J/uRgkzFHPJckIdX2GvonA71Y7784fYsP+oIy1A++g4kYIV+1oOLnQCVNYF8iVZ28D5e4SlWPzzLc1JSrVO6YjHrNQEVt9uNv/o3/wY/+uSTQm7CFvM8bKGAjZJpX+Greuml9062uw39CKx7VHJUqM8MS2z3CUJvSnXkfaUEDqgEXg1QOaDCOBrTLmrg+9IHFr3DFCZ8+6u/+it8/PHHL12ThHvGyrA7ZLLcneNhb4Wxp+7K3T7Ynk5mb+W0m6uVioUYrs0O2NR7ho8i16QF2bYP2g6p/HYj+yN/7iYkYiWqslH4OR9SK9HNwyHSoqTKogfa/sZBfnMHQh82WJqKO7hbzyA2j1ByPp8PP/3XPxVA5SWH2OnvxS79QIhRTvIQS2Cd8VMATdOQTCaRTCSh6ZoZ3y5aLvL2bzuGcDtj2JMIlAAABNRJREFUD7HA5aOtlQD33bJ6bJnVgUXdd8lg2+0qPB4PiJBTtauiHxdTuO+kmlC+ACmBAyCBjQA496qDkvP7/fjLv/zX+Pgv/mJjCn3r+djmSqByAF63nOIWEigGKkzIpwDxWAKTU1OYm5tFOp0pqnQyOWV2IlUukZRgZSeiO7znmGEOE6gUP2deLxUFHrcbtXW1aG5qRkUgsK5Md+9CxIdX0vLJDpgENvQUrgEqf8mEb1sfEqhsLSM5Yr9LoJjMjAx+NpvF/Pw8nj9/jpXllTwnzq65DWk3sN+FIef3WiUgcgfXa0Ux26phiI7noVAlOto70NTchHxI0pytBCqv9bXJm70xCUig8sZEL2/8ZiVQTDJESbS6pmFufg7j4+MIr4S5XI7jpVSOn2cv2wkr89GomHqzb/Og3b2QOPoyZ5tu6PD5/Ojo6EBHezuHf9aUfctqloP24uV8dyQBCVR2JDZ50sGXQClQofyU8MoKh37Is5LJpEFEQ4IZUzxvIVtlOzynEqgcfG3Z6yco8Upb9QnUJda8lZEzWP9CoSq0tbWioaEBqk3d64nI60kJHAAJSKByAF6SnOKrkEApUKFFgRJp52ZnMTM7g9XVCLRstmTDW5xrUl5ARyGGzPKGvorHlNfclxIgT53VfLSQHEvJshYYJtIrKnJoaKhHc1MTgpVB6Loh05325fuUk3q1EpBA5dXKV15930qguHLCMASYMHQD6UwaqWQK6UwG/PNdHxKo7FqEh+0COeFRyXP2UEmDYjZ/zXvvAKfTCZ/XC5fbBbvdvsa7d9hEIp9HSmBzCUigIrXjCEqgUFlBD88rBEthTXKimX3Oe9ziPBVriSnbSyIrfo6gipXxyBsoEEcZRaiRtIaow1WbxemTV0jZd6sM6cohh0kCEqgcprcpn6VcCVg08eZaYWWcWCxBVm8aBjRFi0f+8tYaUxYGKWtQuTOX4w6LBIrZj4tzoErVJa+rRYC6kDR1WKRx6J5jTfsT2ZZil+9XApVdClCeflAlsIbwraR2n6qA6Mj3GCmt7S8CKttvXnlQJSbnvVcSYGBcjg6ZyHmz1G1ZnrxXb2Rvr2OBFEqIJkxJtobtjQQsOxZ0EeGb5FHZsRTliQdOAsU8KiIAJEqROQRk/v92ansOnADkhN+oBIqTubc1kaLFTgKVbUnutQy2QIqu6yDy4STlu6XSCAQCXMXFDfZkdv2234UEKtsWmTzhMEhg3UKR96wXfO8vNSiHstfKYXizB+MZdgxUBKpeA6wPxhMfjVkSeKQk/FQ6xUnQyWQciwtL8PsrGKw47I6Ch+VoiGRPnlIClT0Ro7zIQZPARv1SOGnWfBDhqd0kY1YuFAftde+7+Uqgsu9eyZ5MiMI9WlZDPB6Hx+uGkdMxMzMDLaujpqYWgQrhWaFEaXmULwEJVMqXlRx5iCSwUUfWda70DXJTJDPoIVKCN/gouwUqPHWZp/0G3+DGtyagks1kEV5dhc/nwa+/+Bw3btzAn/7pP0VFRQCVwUpU+CvgcDhkGGgbb08ClW0ISw49PBLYEqhsVNlT4mWROQKHRx9e95PsCqi87snK+5UtAQIqmUwGKyvL8Pl9+Ju/+Wv89Kc/xZ//+Z/jX/2r/xazM3Pcu4nCQORVySfaln2Hoznw/wd75Gi9VTjbPAAAAABJRU5ErkJggg==;" vertex="1" parent="1">
          <mxGeometry x="60" y="39.82" width="240.15" height="520.18" as="geometry" />
        </mxCell>
      </root>
    </mxGraphModel>
  </diagram>
</mxfile>
